<?xml version="1.0" encoding="utf-8"?>
<!-- Generator: Adobe Illustrator 15.1.0, SVG Export Plug-In . SVG Version: 6.00 Build 0)  -->
<!DOCTYPE svg PUBLIC "-//W3C//DTD SVG 1.1//EN" "http://www.w3.org/Graphics/SVG/1.1/DTD/svg11.dtd">
<svg version="1.1" id="Layer_1" xmlns="http://www.w3.org/2000/svg" xmlns:xlink="http://www.w3.org/1999/xlink" x="0px" y="0px"
	 width="780px" height="506px" viewBox="0 0 780 506" enable-background="new 0 0 780 506" xml:space="preserve">
<g>
	<polyline points="335.019,337.533 586.458,337.533 586.458,337.033 335.019,337.033 335.019,337.533 	"/>
	<polyline points="337.743,335.879 500.951,289.958 500.816,289.477 337.607,335.396 337.743,335.879 	"/>
	<polyline points="435.314,221.384 337.481,341.498 337.869,341.812 435.702,221.7 435.314,221.384 	"/>
	<polygon fill="#F8F8F8" points="565.051,96.565 565.051,103.084 481.504,103.084 481.504,96.565 	"/>
	<polyline points="607.925,96.711 481.678,96.711 481.678,96.211 607.925,96.211 607.925,96.711 	"/>
	<polyline points="607.925,103.439 481.678,103.439 481.678,102.939 607.925,102.939 607.925,103.439 	"/>
	<polygon fill="#F8F8F8" points="747.562,438.521 741.043,438.521 741.043,236.827 747.562,236.827 	"/>
	<polyline points="747.417,440.409 747.417,240.037 747.917,240.037 747.917,440.409 	"/>
	<polyline points="740.689,440.409 740.689,240.037 741.189,240.037 741.189,440.409 	"/>
	<polygon fill="#F8F8F8" points="198.386,92.987 198.386,109.136 144.956,109.136 144.956,92.987 	"/>
	<polyline points="198.886,92.737 145.807,92.737 145.807,92.237 198.886,92.237 	"/>
	<polyline points="198.886,109.386 145.807,109.386 145.807,108.886 198.886,108.886 	"/>
	<polygon fill="#F8F8F8" points="724.575,161.548 724.575,332.609 763.968,332.609 763.968,161.548 	"/>
	<polygon points="724.575,161.548 724.075,161.548 724.075,333.109 764.468,333.109 764.468,161.048 724.075,161.048 
		724.075,161.548 724.575,161.548 724.575,162.048 763.468,162.048 763.468,332.109 725.075,332.109 725.075,161.548 
		724.575,161.548 724.575,162.048 	"/>
	<polyline fill="#F8F8F8" points="392.87,97.552 392.87,104.071 327.224,104.071 327.224,97.552 392.87,97.552 	"/>
	<polyline points="393.484,97.697 328.269,97.697 328.269,97.197 393.484,97.197 393.484,97.697 	"/>
	<polyline points="393.484,104.426 328.269,104.426 328.269,103.926 393.484,103.926 393.484,104.426 	"/>
	<polygon fill="#F8F8F8" points="589.996,172.345 583.476,172.345 583.476,118.916 589.996,118.916 	"/>
	<polyline points="589.851,172.845 589.851,119.766 590.351,119.766 590.351,172.845 	"/>
	<polyline points="583.122,172.845 583.122,119.766 583.622,119.766 583.622,172.845 	"/>
	<polyline points="587.232,309.535 587.232,218.462 587.732,218.462 587.732,309.535 	"/>
	<path d="M673.392,361.74v-1.518h0.5v1.518H673.392z M673.392,359.206v-1.519h0.5v1.519H673.392z M673.392,356.672v-1.518h0.5v1.518
		H673.392z M673.392,354.139v-1.52h0.5v1.52H673.392z M673.392,351.604v-1.518h0.5v1.518H673.392z M673.392,349.068v-1.518h0.5
		v1.518H673.392z M673.392,346.534v-1.519h0.5v1.519H673.392z M673.392,344v-1.518h0.5V344H673.392z M673.392,341.466v-1.518h0.5
		v1.518H673.392z M673.392,338.932v-1.518h0.5v1.518H673.392z M673.392,336.396v-1.518h0.5v1.518H673.392z M673.392,333.861v-1.516
		h0.5v1.516H673.392z M673.392,331.327v-1.517h0.5v1.517H673.392z M673.392,328.794v-1.519h0.5v1.519H673.392z M673.392,326.26
		v-1.518h0.5v1.518H673.392z M673.392,323.725v-1.517h0.5v1.517H673.392z M673.392,321.189v-1.517h0.5v1.517H673.392z
		 M673.392,318.656v-1.518h0.5v1.518H673.392z M673.392,316.122v-1.519h0.5v1.519H673.392z M673.392,313.588v-1.518h0.5v1.518
		H673.392z M673.392,311.055v-1.52h0.5v1.52H673.392z"/>
	<path d="M601.854,408.361l0.702-1.325l0.441,0.234l-0.704,1.325L601.854,408.361z M603.025,406.153l0.705-1.323l0.439,0.234
		l-0.704,1.323L603.025,406.153z M604.199,403.946l0.704-1.324l0.44,0.234l-0.703,1.324L604.199,403.946z M605.373,401.738
		l0.704-1.323l0.441,0.234l-0.704,1.323L605.373,401.738z M606.547,399.531l0.704-1.324l0.441,0.234l-0.704,1.323L606.547,399.531z
		 M607.72,397.323l0.705-1.323l0.441,0.233l-0.704,1.324L607.72,397.323z M608.895,395.116l0.703-1.324l0.442,0.233l-0.704,1.324
		L608.895,395.116z M610.068,392.908l0.703-1.323l0.441,0.233l-0.705,1.324L610.068,392.908z M611.242,390.701l0.704-1.324
		l0.439,0.234l-0.704,1.324L611.242,390.701z M612.416,388.493l0.704-1.323l0.44,0.232l-0.703,1.326L612.416,388.493z
		 M613.589,386.286l0.704-1.324l0.442,0.233l-0.704,1.324L613.589,386.286z M614.763,384.079l0.704-1.324l0.442,0.233l-0.704,1.324
		L614.763,384.079z M615.938,381.872l0.704-1.325l0.44,0.234l-0.704,1.324L615.938,381.872z M617.111,379.664l0.704-1.324
		l0.439,0.233l-0.704,1.325L617.111,379.664z M618.284,377.457l0.705-1.325l0.439,0.234l-0.704,1.323L618.284,377.457z
		 M619.458,375.249l0.704-1.324l0.441,0.233l-0.703,1.324L619.458,375.249z M620.632,373.042l0.704-1.325l0.442,0.234l-0.705,1.324
		L620.632,373.042z M621.806,370.834l0.704-1.324l0.441,0.233l-0.704,1.325L621.806,370.834z M622.979,368.627l0.705-1.325
		l0.44,0.234l-0.704,1.323L622.979,368.627z M624.153,366.419l0.704-1.323l0.44,0.232l-0.704,1.324L624.153,366.419z
		 M625.327,364.212l0.704-1.325l0.44,0.235l-0.704,1.323L625.327,364.212z M626.501,362.004l0.704-1.324l0.439,0.234l-0.702,1.324
		L626.501,362.004z M627.674,359.797l0.705-1.324l0.441,0.234l-0.704,1.322L627.674,359.797z M628.848,357.589l0.704-1.323
		l0.442,0.233l-0.704,1.324L628.848,357.589z M630.021,355.382l0.703-1.325l0.442,0.235l-0.705,1.323L630.021,355.382z
		 M631.196,353.174l0.704-1.324l0.439,0.234l-0.704,1.324L631.196,353.174z M632.369,350.967l0.705-1.324l0.439,0.234l-0.703,1.323
		L632.369,350.967z M633.543,348.759l0.704-1.323l0.442,0.233l-0.704,1.324L633.543,348.759z M634.717,346.551l0.704-1.324
		l0.442,0.235l-0.705,1.323L634.717,346.551z M635.892,344.344l0.703-1.324l0.441,0.234l-0.704,1.325L635.892,344.344z
		 M637.064,342.136l0.705-1.323l0.439,0.234l-0.704,1.323L637.064,342.136z M638.238,339.93l0.704-1.326l0.44,0.235l-0.704,1.325
		L638.238,339.93z M639.412,337.721l0.704-1.324l0.44,0.235l-0.704,1.324L639.412,337.721z M640.586,335.514l0.704-1.324l0.44,0.234
		l-0.703,1.325L640.586,335.514z M641.759,333.307l0.705-1.324l0.441,0.234l-0.704,1.324L641.759,333.307z M642.933,331.1
		l0.704-1.326l0.442,0.235l-0.704,1.325L642.933,331.1z M644.107,328.891l0.703-1.324l0.441,0.235l-0.705,1.324L644.107,328.891z
		 M645.281,326.684l0.704-1.324l0.439,0.234l-0.704,1.325L645.281,326.684z M646.454,324.477l0.705-1.324l0.44,0.234l-0.703,1.324
		L646.454,324.477z M647.628,322.27l0.704-1.326l0.442,0.236l-0.704,1.324L647.628,322.27z M648.802,320.061l0.704-1.324
		l0.442,0.236l-0.705,1.323L648.802,320.061z M649.976,317.854l0.704-1.324l0.441,0.234l-0.704,1.325L649.976,317.854z
		 M651.149,315.646l0.704-1.324l0.44,0.234l-0.704,1.324L651.149,315.646z M652.323,313.438l0.704-1.324l0.44,0.234l-0.704,1.325
		L652.323,313.438z M653.497,311.23l0.704-1.324l0.441,0.234l-0.705,1.324L653.497,311.23z M654.671,309.023l0.704-1.325
		l0.441,0.235l-0.704,1.324L654.671,309.023z M655.844,306.814l0.705-1.323l0.441,0.235l-0.704,1.323L655.844,306.814z
		 M657.019,304.607l0.703-1.324l0.442,0.234l-0.704,1.325L657.019,304.607z M658.192,302.4l0.704-1.324l0.44,0.234l-0.705,1.324
		L658.192,302.4z M659.366,300.193l0.704-1.325l0.439,0.235l-0.703,1.323L659.366,300.193z M660.539,297.984l0.705-1.323
		l0.439,0.235l-0.702,1.323L660.539,297.984z M661.713,295.777l0.704-1.324l0.442,0.234l-0.704,1.324L661.713,295.777z
		 M662.887,293.57l0.704-1.323l0.442,0.233l-0.705,1.324L662.887,293.57z M664.062,291.363l0.702-1.324l0.441,0.234l-0.704,1.324
		L664.062,291.363z M665.234,289.154l0.705-1.322l0.439,0.232l-0.704,1.326L665.234,289.154z M666.408,286.948l0.704-1.324
		l0.44,0.233l-0.703,1.324L666.408,286.948z"/>
	<path d="M503.486,284.785l-0.557-1.398l0.467-0.186l0.555,1.4L503.486,284.785 M502.561,282.45l-0.555-1.399l0.464-0.185
		l0.557,1.399L502.561,282.45 M501.635,280.115l-0.555-1.399l0.465-0.185l0.556,1.4L501.635,280.115 M500.709,277.779l-0.554-1.398
		l0.464-0.186l0.555,1.4L500.709,277.779 M499.784,275.445l-0.556-1.399l0.466-0.185l0.555,1.4L499.784,275.445 M498.858,273.109
		l-0.557-1.398l0.466-0.186l0.556,1.4L498.858,273.109 M497.933,270.775l-0.555-1.399l0.465-0.185l0.557,1.399L497.933,270.775
		 M497.007,268.439l-0.555-1.398l0.465-0.186l0.555,1.4L497.007,268.439 M496.082,266.105l-0.555-1.399l0.465-0.185l0.554,1.399
		L496.082,266.105 M495.156,263.771l-0.557-1.4l0.467-0.184l0.555,1.399L495.156,263.771 M494.231,261.436l-0.557-1.399l0.466-0.185
		l0.555,1.4L494.231,261.436 M493.305,259.102l-0.555-1.4l0.465-0.184l0.557,1.399L493.305,259.102 M492.38,256.766l-0.555-1.399
		l0.465-0.185l0.554,1.4L492.38,256.766 M491.454,254.432l-0.555-1.399l0.465-0.185l0.555,1.399L491.454,254.432 M490.529,252.096
		l-0.557-1.4l0.465-0.184l0.556,1.4L490.529,252.096 M489.604,249.761l-0.556-1.4l0.465-0.184l0.557,1.4L489.604,249.761
		 M488.677,247.426l-0.554-1.4l0.464-0.184l0.556,1.4L488.677,247.426 M487.752,245.091l-0.555-1.4l0.465-0.184l0.555,1.4
		L487.752,245.091 M486.826,242.756l-0.555-1.399l0.465-0.185l0.555,1.4L486.826,242.756 M485.901,240.42l-0.557-1.4l0.466-0.184
		l0.556,1.4L485.901,240.42 M484.976,238.085l-0.555-1.4l0.464-0.184l0.557,1.4L484.976,238.085 M484.05,235.75l-0.555-1.4
		l0.465-0.184l0.555,1.4L484.05,235.75 M483.124,233.416l-0.555-1.399l0.465-0.185l0.555,1.4L483.124,233.416 M482.199,231.081
		l-0.556-1.399l0.466-0.185l0.555,1.4L482.199,231.081 M481.273,228.747l-0.557-1.4l0.465-0.185l0.557,1.4L481.273,228.747
		 M480.348,226.412l-0.555-1.4l0.465-0.185l0.557,1.4L480.348,226.412 M479.422,224.077l-0.555-1.4l0.465-0.185l0.555,1.4
		L479.422,224.077 M478.497,221.742l-0.555-1.4l0.465-0.185l0.554,1.4L478.497,221.742 M477.571,219.407l-0.557-1.4l0.467-0.185
		l0.555,1.4L477.571,219.407 M476.646,217.072l-0.557-1.4l0.465-0.184l0.556,1.399L476.646,217.072 M475.72,214.737l-0.555-1.4
		l0.465-0.184l0.556,1.399L475.72,214.737 M474.795,212.401l-0.555-1.4l0.465-0.184l0.554,1.399L474.795,212.401 M473.869,210.066
		l-0.555-1.4l0.465-0.184l0.555,1.4L473.869,210.066 M472.944,207.731l-0.558-1.4l0.466-0.184l0.556,1.4L472.944,207.731
		 M472.019,205.396l-0.556-1.4l0.465-0.184l0.557,1.4L472.019,205.396 M471.092,203.062l-0.554-1.4l0.464-0.184l0.555,1.4
		L471.092,203.062 M470.167,200.727l-0.555-1.4l0.465-0.184l0.555,1.4L470.167,200.727 M469.241,198.392l-0.554-1.4l0.464-0.184
		l0.555,1.4L469.241,198.392 M468.316,196.057l-0.557-1.4l0.465-0.184l0.557,1.4L468.316,196.057 M467.39,193.722l-0.555-1.4
		l0.465-0.184l0.557,1.4L467.39,193.722 M466.465,191.387l-0.555-1.4l0.465-0.184l0.555,1.4L466.465,191.387 M465.539,189.052
		l-0.555-1.4l0.465-0.184l0.555,1.4L465.539,189.052 M464.614,186.717l-0.556-1.4l0.466-0.184l0.555,1.4L464.614,186.717
		 M463.688,184.382l-0.556-1.4l0.465-0.184l0.557,1.4L463.688,184.382 M462.763,182.046l-0.555-1.4l0.465-0.184l0.556,1.4
		L462.763,182.046 M461.837,179.711l-0.555-1.4l0.465-0.184l0.555,1.4L461.837,179.711 M460.912,177.376l-0.555-1.4l0.465-0.184
		l0.554,1.4L460.912,177.376 M459.986,175.042l-0.557-1.4l0.467-0.184l0.555,1.4L459.986,175.042 M459.062,172.707l-0.557-1.4
		l0.465-0.184l0.556,1.4L459.062,172.707 M458.135,170.372l-0.555-1.399l0.465-0.185l0.556,1.4L458.135,170.372 M457.21,168.037
		l-0.555-1.399l0.465-0.185l0.554,1.4L457.21,168.037 M456.284,165.702l-0.556-1.399l0.466-0.185l0.555,1.4L456.284,165.702
		 M455.359,163.367l-0.557-1.4l0.466-0.184l0.555,1.4L455.359,163.367 M454.433,161.032l-0.555-1.4l0.465-0.184l0.557,1.4
		L454.433,161.032 M453.507,158.697l-0.555-1.399l0.465-0.185l0.555,1.4L453.507,158.697 M452.582,156.362l-0.555-1.399l0.465-0.185
		l0.555,1.4L452.582,156.362 M451.656,154.027l-0.557-1.4l0.467-0.184l0.555,1.399L451.656,154.027 M450.731,151.692l-0.557-1.4
		l0.465-0.184l0.557,1.399L450.731,151.692 M449.805,149.357l-0.555-1.4l0.465-0.184l0.557,1.399L449.805,149.357 M448.88,147.022
		l-0.555-1.4l0.465-0.184l0.555,1.4L448.88,147.022 M447.954,144.688l-0.555-1.4l0.465-0.184l0.555,1.4L447.954,144.688
		 M447.029,142.353l-0.557-1.4l0.467-0.184l0.555,1.399L447.029,142.353 M446.104,140.018l-0.556-1.4l0.465-0.184l0.557,1.399
		L446.104,140.018 M445.178,137.683l-0.555-1.4l0.465-0.184l0.556,1.4L445.178,137.683 M444.252,135.348l-0.555-1.4l0.465-0.184
		l0.555,1.4L444.252,135.348 M443.327,133.013l-0.555-1.4l0.465-0.184l0.555,1.4L443.327,133.013 M442.401,130.678l-0.557-1.4
		l0.466-0.184l0.556,1.4L442.401,130.678 M441.476,128.343l-0.555-1.4l0.465-0.184l0.556,1.4L441.476,128.343 M440.55,126.008
		l-0.555-1.4l0.465-0.184l0.555,1.4L440.55,126.008 M439.625,123.673l-0.555-1.4l0.465-0.184l0.554,1.4L439.625,123.673
		 M438.699,121.337l-0.556-1.4l0.466-0.184l0.555,1.4L438.699,121.337 M437.774,119.002l-0.557-1.4l0.466-0.184l0.555,1.4
		L437.774,119.002 M436.848,116.667l-0.555-1.4l0.465-0.184l0.557,1.4L436.848,116.667 M435.923,114.333l-0.556-1.4l0.465-0.184
		l0.555,1.4L435.923,114.333 M434.997,111.998l-0.555-1.4l0.465-0.184l0.555,1.4L434.997,111.998 M434.071,109.663l-0.557-1.4
		l0.467-0.184l0.555,1.4L434.071,109.663 M433.146,107.328l-0.557-1.4l0.465-0.184l0.557,1.4L433.146,107.328 M432.22,104.993
		l-0.555-1.4l0.465-0.184l0.556,1.4L432.22,104.993 M431.295,102.658l-0.555-1.4l0.465-0.184l0.555,1.4L431.295,102.658"/>
	<path d="M497.054,285.417l0.623-1.367l0.455,0.207l-0.623,1.367L497.054,285.417 M498.092,283.139l0.623-1.367l0.455,0.207
		l-0.623,1.367L498.092,283.139 M499.131,280.857l0.622-1.366l0.455,0.208l-0.622,1.367L499.131,280.857 M500.169,278.581
		l0.623-1.367l0.455,0.207l-0.623,1.367L500.169,278.581 M501.207,276.302l0.623-1.366l0.455,0.207l-0.622,1.366L501.207,276.302
		 M502.246,274.021l0.623-1.367l0.455,0.209l-0.623,1.367L502.246,274.021 M503.284,271.744l0.623-1.366l0.455,0.207l-0.623,1.366
		L503.284,271.744 M504.323,269.466l0.623-1.366l0.455,0.207l-0.623,1.366L504.323,269.466 M505.361,267.188l0.623-1.367
		l0.455,0.207l-0.623,1.367L505.361,267.188 M506.4,264.908l0.623-1.366l0.454,0.207l-0.622,1.366L506.4,264.908 M507.438,262.63
		l0.623-1.366l0.455,0.207l-0.623,1.366L507.438,262.63 M508.478,260.352l0.623-1.367l0.454,0.207l-0.623,1.367L508.478,260.352
		 M509.515,258.072l0.623-1.366l0.455,0.207l-0.623,1.366L509.515,258.072 M510.554,255.794l0.622-1.367l0.455,0.207l-0.622,1.367
		L510.554,255.794 M511.592,253.516l0.623-1.368l0.455,0.208l-0.623,1.367L511.592,253.516 M512.63,251.237l0.623-1.367l0.455,0.207
		l-0.623,1.367L512.63,251.237 M513.669,248.958l0.623-1.367l0.455,0.207l-0.623,1.367L513.669,248.958 M514.707,246.679
		l0.623-1.367l0.455,0.208l-0.623,1.367L514.707,246.679 M515.746,244.4l0.623-1.367l0.455,0.207l-0.623,1.367L515.746,244.4
		 M516.784,242.122l0.623-1.367l0.455,0.207l-0.623,1.367L516.784,242.122 M517.823,239.843l0.623-1.367l0.455,0.208l-0.623,1.367
		L517.823,239.843 M518.861,237.564l0.623-1.367l0.455,0.207l-0.623,1.367L518.861,237.564 M519.9,235.286l0.622-1.367l0.454,0.207
		l-0.621,1.367L519.9,235.286 M520.938,233.007l0.623-1.367l0.455,0.208l-0.623,1.367L520.938,233.007 M521.976,230.728l0.623-1.366
		l0.455,0.207l-0.623,1.367L521.976,230.728 M523.015,228.45l0.623-1.367l0.455,0.207l-0.623,1.367L523.015,228.45 M524.054,226.17
		l0.622-1.367l0.455,0.208l-0.623,1.367L524.054,226.17 M525.092,223.892l0.623-1.366l0.455,0.207l-0.623,1.367L525.092,223.892
		 M526.13,221.614l0.623-1.367l0.455,0.207l-0.623,1.367L526.13,221.614 M527.169,219.334l0.623-1.367l0.455,0.208l-0.623,1.366
		L527.169,219.334 M528.207,217.056l0.623-1.366l0.455,0.207l-0.623,1.367L528.207,217.056 M529.246,214.777l0.623-1.367
		l0.455,0.207l-0.623,1.367L529.246,214.777 M530.284,212.499l0.623-1.367l0.455,0.208l-0.623,1.366L530.284,212.499
		 M531.323,210.22l0.623-1.366l0.454,0.207l-0.623,1.367L531.323,210.22 M532.361,207.941l0.623-1.367l0.455,0.207l-0.623,1.367
		L532.361,207.941 M533.4,205.663l0.622-1.367l0.454,0.208l-0.622,1.366L533.4,205.663 M534.438,203.384l0.623-1.366l0.455,0.207
		l-0.623,1.367L534.438,203.384 M535.476,201.105l0.623-1.367l0.455,0.207l-0.623,1.367L535.476,201.105 M536.515,198.827
		l0.623-1.367l0.455,0.208l-0.623,1.366L536.515,198.827 M537.553,196.548l0.623-1.366l0.455,0.207l-0.623,1.367L537.553,196.548
		 M538.592,194.27l0.623-1.367l0.455,0.207l-0.623,1.367L538.592,194.27 M539.63,191.991l0.623-1.367l0.455,0.208l-0.623,1.366
		L539.63,191.991 M540.669,189.711l0.623-1.366l0.454,0.207l-0.622,1.367L540.669,189.711 M541.707,187.434l0.623-1.367l0.455,0.207
		l-0.623,1.367L541.707,187.434 M542.746,185.155l0.622-1.367l0.455,0.208l-0.623,1.366L542.746,185.155 M543.784,182.876
		l0.623-1.367l0.455,0.207l-0.623,1.367L543.784,182.876 M544.822,180.598l0.623-1.367l0.455,0.207l-0.623,1.367L544.822,180.598
		 M545.861,178.318l0.623-1.367l0.455,0.208l-0.623,1.367L545.861,178.318 M546.899,176.041l0.622-1.367l0.455,0.207l-0.623,1.367
		L546.899,176.041 M547.938,173.762l0.623-1.367l0.455,0.207l-0.623,1.367L547.938,173.762 M548.976,171.482l0.623-1.367
		l0.455,0.208l-0.623,1.367L548.976,171.482 M550.015,169.205l0.623-1.367l0.455,0.207l-0.623,1.367L550.015,169.205
		 M551.053,166.926l0.623-1.367l0.455,0.207l-0.623,1.367L551.053,166.926 M552.092,164.646l0.622-1.367l0.455,0.208l-0.623,1.367
		L552.092,164.646 M553.13,162.369l0.623-1.367l0.455,0.207l-0.623,1.367L553.13,162.369 M554.168,160.09l0.623-1.367l0.455,0.207
		l-0.623,1.367L554.168,160.09 M555.207,157.811l0.623-1.367l0.455,0.208l-0.623,1.367L555.207,157.811 M556.245,155.532
		l0.623-1.366l0.455,0.207l-0.623,1.367L556.245,155.532 M557.284,153.253l0.623-1.367l0.455,0.207l-0.623,1.367L557.284,153.253
		 M558.322,150.975l0.623-1.367l0.455,0.208l-0.623,1.367L558.322,150.975 M559.361,148.696l0.623-1.366l0.455,0.207l-0.623,1.367
		L559.361,148.696 M560.399,146.417l0.622-1.367l0.455,0.207l-0.623,1.367L560.399,146.417 M561.438,144.139l0.621-1.367
		l0.455,0.208l-0.623,1.367L561.438,144.139 M562.476,141.859l0.623-1.366l0.455,0.207l-0.623,1.367L562.476,141.859
		 M563.514,139.582l0.623-1.367l0.455,0.207l-0.623,1.367L563.514,139.582 M564.553,137.303l0.623-1.367l0.455,0.208l-0.623,1.366
		L564.553,137.303 M565.591,135.024l0.623-1.367l0.455,0.207l-0.623,1.367L565.591,135.024 M566.63,132.746l0.623-1.367l0.455,0.207
		l-0.623,1.367L566.63,132.746 M567.668,130.467l0.623-1.367l0.455,0.208l-0.623,1.366L567.668,130.467 M568.707,128.188
		l0.623-1.367l0.455,0.207l-0.623,1.367L568.707,128.188 M569.745,125.91l0.623-1.367l0.455,0.207l-0.623,1.367L569.745,125.91
		 M570.784,123.63l0.622-1.367l0.455,0.208l-0.622,1.367L570.784,123.63 M571.822,121.353l0.623-1.367l0.455,0.207l-0.623,1.367
		L571.822,121.353 M572.86,119.074l0.623-1.367l0.454,0.207l-0.622,1.367L572.86,119.074 M573.899,116.794l0.622-1.367l0.455,0.208
		l-0.623,1.367L573.899,116.794 M574.938,114.517l0.622-1.367l0.455,0.207l-0.623,1.367L574.938,114.517 M575.976,112.238
		l0.623-1.367l0.455,0.207l-0.623,1.367L575.976,112.238 M577.014,109.958l0.623-1.367l0.455,0.208l-0.623,1.367L577.014,109.958
		 M578.053,107.681l0.623-1.367l0.455,0.207l-0.623,1.367L578.053,107.681"/>
	<polyline points="553.883,425.969 366.819,354.16 366.998,353.693 554.062,425.502 	"/>
	<polygon fill="#F8F8F8" points="747.319,433.886 747.319,440.405 542.137,440.405 542.137,433.886 	"/>
	<polyline points="741.366,433.99 545.348,434.031 545.348,433.531 741.366,433.49 	"/>
	<polyline points="748.167,440.659 545.348,440.76 545.348,440.26 748.167,440.159 	"/>
	<polyline points="443.886,222.315 586.403,190.058 586.514,190.544 443.996,222.803 	"/>
	<polyline points="503.18,285.455 584.857,196.877 585.226,197.217 503.548,285.794 	"/>
	<text transform="matrix(0 -1 1 0 747.9648 296.0684)" font-family="'HelveticaNeue'" font-size="12">Deep Storage (S3)</text>
	<text transform="matrix(1 0 0 1 71.7695 121.7432)" font-family="'HelveticaNeue'" font-size="9">Events</text>
	<text transform="matrix(1 0 0 1 185.2461 360.3838)" font-family="'HelveticaNeue'" font-size="9">Query</text>
	<text transform="matrix(0 1 -1 0 592.1211 250.8838)" font-family="'HelveticaNeue'" font-size="7">Assign task</text>
	<text transform="matrix(1 0 0 1 489.8945 92.3994)" font-family="'HelveticaNeue'" font-size="7">Cr</text>
	<text transform="matrix(1 0 0 1 497.1523 92.3994)" font-family="'HelveticaNeue'" font-size="7">eate r</text>
	<text transform="matrix(1 0 0 1 514.793 92.3994)" font-family="'HelveticaNeue'" font-size="7">ealtime tasks</text>
	<text transform="matrix(0.4147 -0.91 0.91 0.4147 538.1338 185.0542)" font-family="'HelveticaNeue'" font-size="7.0003">Announcing</text>
	<text transform="matrix(0.3584 0.9336 -0.9336 0.3584 460.4395 161.4355)" font-family="'HelveticaNeue'" font-size="7">Realtime task</text>
	<text transform="matrix(1 0 0 1 620.0664 103.9385)" font-family="'HelveticaNeue'" font-size="12">Zookeeper</text>
	<text transform="matrix(1 0 0 1 71.4023 381.0293)" font-family="'HelveticaNeue'" font-size="12">Client</text>
	<text transform="matrix(1 0 0 1 15.7695 471.8135)" font-family="'HelveticaNeue'" font-size="12">Peons </text>
	<text transform="matrix(1 0 0 1 52.8789 471.8135)" font-family="'HelveticaNeue'" font-size="9">(W</text>
	<text transform="matrix(1 0 0 1 63.0352 471.8135)" font-family="'HelveticaNeue'" font-size="9">orkers) </text>
	<text transform="matrix(1 0 0 1 93.0352 471.8135)" font-family="'HelveticaNeue'" font-size="9">:</text>
	<text transform="matrix(1 0 0 1 15.7695 489.6963)" font-family="'HelveticaNeue'" font-size="9">1, Segment handof</text>
	<text transform="matrix(1 0 0 1 92.3008 489.6963)" font-family="'HelveticaNeue'" font-size="9">f    2, Realtime queries    3, Realtime indexing</text>
	<polyline fill="#F8F8F8" points="128.59,14.5 128.59,185.563 167.984,185.563 167.984,14.5 128.59,14.5 	"/>
	<polyline points="128.59,14.5 128.09,14.5 128.09,186.063 168.484,186.063 168.484,14 128.09,14 128.09,14.5 128.59,14.5 
		128.59,15 167.484,15 167.484,185.063 129.09,185.063 129.09,14.5 128.59,14.5 128.59,15 128.59,14.5 	"/>
	<text transform="matrix(0 -1 1 0 151.9883 140.4072)" font-family="'HelveticaNeue'" font-size="12">Collector</text>
	<g>
		<g>
			<defs>
				<polyline id="SVGID_1_" points="151.05,90.106 134.796,78.08 139.855,71.244 151.134,79.59 157.246,71.33 162.22,75.011 
					151.05,90.106 				"/>
			</defs>
			<clipPath id="SVGID_2_">
				<use xlink:href="#SVGID_1_"  overflow="visible"/>
			</clipPath>
		</g>
		<g>
			<defs>
				<polyline id="SVGID_3_" points="151.05,90.106 134.796,78.08 139.855,71.244 151.134,79.59 157.246,71.33 162.22,75.011 
					151.05,90.106 				"/>
			</defs>
			<defs>
				<polyline id="SVGID_4_" points="133.405,79.959 149.659,91.987 162.22,75.011 145.967,62.983 133.405,79.959 				"/>
			</defs>
			<clipPath id="SVGID_5_">
				<use xlink:href="#SVGID_3_"  overflow="visible"/>
			</clipPath>
			<clipPath id="SVGID_6_" clip-path="url(#SVGID_5_)">
				<use xlink:href="#SVGID_4_"  overflow="visible"/>
			</clipPath>
			<g transform="matrix(1 -2.781663e-008 -7.697224e-009 1 5.210631e-006 4.423406e-006)" clip-path="url(#SVGID_6_)">
				
					<image overflow="visible" enable-background="new    " width="470" height="506" xlink:href="BA43DBE5.jpeg"  transform="matrix(0.0239 -0.0323 0.0323 0.0239 134.7363 78.0845)">
				</image>
			</g>
		</g>
	</g>
	<g>
		<g>
			<defs>
				<polyline id="SVGID_7_" points="157.246,71.33 145.967,62.983 139.855,71.244 134.614,67.365 146.838,50.845 163.358,63.069 
					157.246,71.33 				"/>
			</defs>
			<clipPath id="SVGID_8_">
				<use xlink:href="#SVGID_7_"  overflow="visible"/>
			</clipPath>
		</g>
		<g>
			<defs>
				<polyline id="SVGID_9_" points="157.246,71.33 145.967,62.983 139.855,71.244 134.614,67.365 146.838,50.845 163.358,63.069 
					157.246,71.33 				"/>
			</defs>
			<defs>
				<polyline id="SVGID_10_" points="134.614,67.365 151.134,79.59 163.358,63.069 146.838,50.845 134.614,67.365 				"/>
			</defs>
			<clipPath id="SVGID_11_">
				<use xlink:href="#SVGID_9_"  overflow="visible"/>
			</clipPath>
			<clipPath id="SVGID_12_" clip-path="url(#SVGID_11_)">
				<use xlink:href="#SVGID_10_"  overflow="visible"/>
			</clipPath>
			<g transform="matrix(1 -4.195133e-009 4.195133e-009 1 4.665067e-006 3.275765e-006)" clip-path="url(#SVGID_12_)">
				
					<image overflow="visible" enable-background="new    " width="514" height="514" xlink:href="BA43DBE7.jpeg"  transform="matrix(0.0239 -0.0323 0.0323 0.0239 134.5576 67.3735)">
				</image>
			</g>
		</g>
	</g>
	<g>
		<g>
			<defs>
				<polyline id="SVGID_13_" points="151.134,79.59 139.855,71.244 145.967,62.983 157.246,71.33 151.134,79.59 				"/>
			</defs>
			<clipPath id="SVGID_14_">
				<use xlink:href="#SVGID_13_"  overflow="visible"/>
			</clipPath>
		</g>
		<g>
			<defs>
				<polyline id="SVGID_15_" points="151.134,79.59 139.855,71.244 145.967,62.983 157.246,71.33 151.134,79.59 				"/>
			</defs>
			<defs>
				<polyline id="SVGID_16_" points="134.614,67.365 151.134,79.59 163.358,63.069 146.838,50.845 134.614,67.365 				"/>
			</defs>
			<clipPath id="SVGID_17_">
				<use xlink:href="#SVGID_15_"  overflow="visible"/>
			</clipPath>
			<clipPath id="SVGID_18_" clip-path="url(#SVGID_17_)">
				<use xlink:href="#SVGID_16_"  overflow="visible"/>
			</clipPath>
			<g transform="matrix(1 2.988376e-009 1.760461e-008 1 2.283709e-006 1.099174e-006)" clip-path="url(#SVGID_18_)">
				
					<image overflow="visible" enable-background="new    " width="258" height="352" xlink:href="BA43DBE5.jpeg"  transform="matrix(0.0239 -0.0323 0.0323 0.0239 139.7842 71.2412)">
				</image>
			</g>
		</g>
	</g>
	<path fill="#F8F8F8" d="M201.082,124.264c2.855,0,5.17-10.5,5.17-23.452c0-12.953-2.315-23.453-5.17-23.453
		c-2.854,0-5.169,10.5-5.169,23.453C195.913,113.764,198.228,124.264,201.082,124.264L201.082,124.264z"/>
	<path d="M201.082,124.264v0.5c0.517,0.001,0.989-0.242,1.382-0.61c0.692-0.65,1.254-1.705,1.769-3.114
		c1.526-4.219,2.516-11.685,2.519-20.228c-0.001-6.507-0.58-12.396-1.526-16.691c-0.475-2.149-1.037-3.897-1.688-5.15
		c-0.327-0.626-0.676-1.131-1.074-1.501c-0.393-0.369-0.865-0.611-1.382-0.61c-0.516,0-0.988,0.242-1.382,0.61
		c-0.691,0.649-1.253,1.706-1.768,3.114c-1.526,4.219-2.516,11.685-2.519,20.229c0.001,6.507,0.58,12.396,1.526,16.691
		c0.475,2.149,1.037,3.897,1.688,5.149c0.327,0.627,0.676,1.132,1.073,1.502c0.394,0.368,0.866,0.611,1.382,0.61V124.264v-0.5
		c-0.197,0-0.422-0.086-0.701-0.343c-0.486-0.443-1.029-1.389-1.509-2.723c-1.458-4.007-2.462-11.43-2.459-19.886
		c0-6.446,0.578-12.283,1.502-16.477c0.461-2.095,1.013-3.781,1.599-4.902c0.291-0.561,0.592-0.977,0.867-1.231
		c0.279-0.256,0.504-0.342,0.701-0.343c0.198,0,0.423,0.086,0.702,0.343c0.486,0.444,1.029,1.39,1.509,2.723
		c1.458,4.008,2.462,11.43,2.459,19.887c0,6.445-0.578,12.282-1.503,16.476c-0.46,2.095-1.012,3.781-1.598,4.902
		c-0.291,0.561-0.592,0.977-0.867,1.231c-0.279,0.257-0.504,0.343-0.702,0.343V124.264L201.082,124.264z"/>
	<path fill="#F8F8F8" d="M336.438,124.264c2.854,0,5.169-10.5,5.169-23.452c0-12.953-2.314-23.453-5.169-23.453
		c-2.855,0-5.171,10.5-5.171,23.453C331.267,113.764,333.582,124.264,336.438,124.264L336.438,124.264z"/>
	<path d="M336.438,124.264v0.5c0.516,0.001,0.987-0.242,1.382-0.61c0.691-0.65,1.253-1.705,1.768-3.114
		c1.526-4.219,2.516-11.685,2.52-20.228c0-6.507-0.58-12.396-1.526-16.691c-0.474-2.149-1.037-3.897-1.688-5.15
		c-0.326-0.626-0.675-1.131-1.072-1.501c-0.395-0.369-0.866-0.611-1.382-0.61c-0.518,0-0.988,0.242-1.383,0.61
		c-0.691,0.649-1.253,1.706-1.769,3.114c-1.526,4.219-2.515,11.685-2.52,20.229c0.001,6.507,0.58,12.396,1.526,16.691
		c0.475,2.149,1.037,3.897,1.688,5.149c0.326,0.627,0.676,1.132,1.073,1.502c0.395,0.368,0.865,0.611,1.383,0.61V124.264v-0.5
		c-0.197,0-0.424-0.086-0.702-0.343c-0.486-0.443-1.029-1.389-1.51-2.723c-1.458-4.007-2.462-11.43-2.459-19.886
		c0-6.446,0.578-12.283,1.503-16.477c0.462-2.095,1.013-3.781,1.599-4.902c0.291-0.561,0.592-0.977,0.867-1.231
		c0.278-0.256,0.505-0.342,0.701-0.343c0.197,0,0.423,0.086,0.701,0.343c0.486,0.444,1.03,1.39,1.509,2.723
		c1.459,4.008,2.463,11.43,2.46,19.887c0.001,6.445-0.577,12.282-1.503,16.476c-0.461,2.095-1.013,3.781-1.598,4.902
		c-0.292,0.561-0.592,0.977-0.868,1.231c-0.278,0.257-0.504,0.343-0.701,0.343L336.438,124.264L336.438,124.264z"/>
	<polyline points="201.082,77.858 336.438,77.858 336.438,76.858 201.082,76.858 	"/>
	<polyline points="201.082,124.764 336.438,124.764 336.438,123.764 201.082,123.764 	"/>
	<polyline fill="#F8F8F8" points="201.082,77.851 336.72,77.851 336.72,123.771 201.082,123.771 201.082,77.851 	"/>
	<text transform="matrix(1 0 0 1 234.6445 106.2432)" font-family="'HelveticaNeue'" font-size="12">Kafka</text>
	<g>
		<g>
			<defs>
				<polyline id="SVGID_19_" points="287.823,114.149 270.744,114.149 270.744,93.931 279.248,93.931 279.248,108.31 
					287.823,108.31 287.823,114.149 				"/>
			</defs>
			<clipPath id="SVGID_20_">
				<use xlink:href="#SVGID_19_"  overflow="visible"/>
			</clipPath>
			<g transform="matrix(1 0 0 1 -9.657550e-006 -2.260731e-006)" clip-path="url(#SVGID_20_)">
				
					<image overflow="visible" enable-background="new    " width="444" height="542" xlink:href="BA43DBE3.jpeg"  transform="matrix(0.039 0 0 0.0377 270.6323 93.8345)">
				</image>
			</g>
		</g>
	</g>
	<g>
		<g>
			<defs>
				<polyline id="SVGID_21_" points="287.823,93.931 279.248,93.931 279.248,87.758 299.799,87.758 299.799,93.765 287.823,93.765 
					287.823,93.931 				"/>
			</defs>
			<clipPath id="SVGID_22_">
				<use xlink:href="#SVGID_21_"  overflow="visible"/>
			</clipPath>
			<g transform="matrix(1 0 0 1 -5.380916e-006 -3.485866e-006)" clip-path="url(#SVGID_22_)">
				
					<image overflow="visible" enable-background="new    " width="516" height="196" xlink:href="BA43DBED.jpeg"  transform="matrix(0.0405 0 0 0.0333 279.0322 87.5947)">
				</image>
			</g>
		</g>
	</g>
	<g>
		<g>
			<defs>
				<polyline id="SVGID_23_" points="287.823,108.31 279.248,108.31 279.248,93.931 287.823,93.931 287.823,108.31 				"/>
			</defs>
			<clipPath id="SVGID_24_">
				<use xlink:href="#SVGID_23_"  overflow="visible"/>
			</clipPath>
			<g transform="matrix(1 0 0 1 3.200257e-007 -2.409378e-006)" clip-path="url(#SVGID_24_)">
				
					<image overflow="visible" enable-background="new    " width="218" height="387" xlink:href="BA43DBEF.jpeg"  transform="matrix(0.0409 0 0 0.038 279.0317 93.8345)">
				</image>
			</g>
		</g>
	</g>
	<g>
		<g>
			<defs>
				<polyline id="SVGID_25_" points="308.374,114.315 287.823,114.315 287.823,114.149 289.523,114.149 289.523,108.31 
					299.799,108.31 299.799,93.765 308.374,93.765 308.374,114.315 				"/>
			</defs>
			<clipPath id="SVGID_26_">
				<use xlink:href="#SVGID_25_"  overflow="visible"/>
			</clipPath>
			<g transform="matrix(1 0 0 1 -7.303461e-007 -1.883243e-006)" clip-path="url(#SVGID_26_)">
				
					<image overflow="visible" enable-background="new    " width="540" height="540" xlink:href="BA43DBED.jpeg"  transform="matrix(0.0387 0 0 0.0387 287.6719 93.5947)">
				</image>
			</g>
		</g>
	</g>
	<g>
		<g>
			<defs>
				<polyline id="SVGID_27_" points="289.523,114.149 287.823,114.149 287.823,108.31 289.523,108.31 289.523,114.149 				"/>
			</defs>
			<clipPath id="SVGID_28_">
				<use xlink:href="#SVGID_27_"  overflow="visible"/>
			</clipPath>
			<g transform="matrix(1 0 0 1 2.725286e-006 -1.856626e-006)" clip-path="url(#SVGID_28_)">
				
					<image overflow="visible" enable-background="new    " width="67" height="179" xlink:href="BA43DBE3.jpeg"  transform="matrix(0.0294 0 0 0.0351 287.6719 107.9946)">
				</image>
			</g>
		</g>
	</g>
	<g>
		<g>
			<defs>
				<polyline id="SVGID_29_" points="299.799,108.31 289.523,108.31 289.523,93.931 287.823,93.931 287.823,93.765 299.799,93.765 
					299.799,108.31 				"/>
			</defs>
			<clipPath id="SVGID_30_">
				<use xlink:href="#SVGID_29_"  overflow="visible"/>
			</clipPath>
			<g transform="matrix(1 0 0 1 -2.087793e-005 -3.814566e-006)" clip-path="url(#SVGID_30_)">
				
					<image overflow="visible" enable-background="new    " width="317" height="391" xlink:href="BA43DBE5.jpeg"  transform="matrix(0.0388 0 0 0.0382 287.6719 93.5947)">
				</image>
			</g>
		</g>
	</g>
	<g>
		<g>
			<defs>
				<polyline id="SVGID_31_" points="289.523,108.31 287.823,108.31 287.823,93.931 289.523,93.931 289.523,108.31 				"/>
			</defs>
			<clipPath id="SVGID_32_">
				<use xlink:href="#SVGID_31_"  overflow="visible"/>
			</clipPath>
			<g transform="matrix(1 0 0 1 -1.515204e-006 -2.409378e-006)" clip-path="url(#SVGID_32_)">
				
					<image overflow="visible" enable-background="new    " width="67" height="358" xlink:href="EBCEC82E.jpeg"  transform="matrix(0.0294 0 0 0.041 287.6719 93.834)">
				</image>
			</g>
		</g>
	</g>
	<polyline fill="#D5D5D5" points="18.248,27.451 18.248,47.86 47.615,47.86 47.615,27.451 18.248,27.451 	"/>
	<g>
		<g>
			<defs>
				<path id="SVGID_33_" d="M56.905,63.252H9V15.347h47.905V63.252 M18.248,27.451V47.86h29.367V27.451H18.248"/>
			</defs>
			<clipPath id="SVGID_34_">
				<use xlink:href="#SVGID_33_"  overflow="visible"/>
			</clipPath>
			<g transform="matrix(1 0 0 1 5.556806e-007 -3.770634e-007)" clip-path="url(#SVGID_34_)">
				
					<image overflow="visible" enable-background="new    " width="532" height="521" xlink:href="EBCEC82E.jpeg"  transform="matrix(0.0907 0 0 0.0926 8.792 15.1152)">
				</image>
			</g>
		</g>
	</g>
	<g>
		<g>
			<defs>
				<polyline id="SVGID_35_" points="47.615,47.86 18.248,47.86 18.248,27.451 47.615,27.451 47.615,47.86 				"/>
			</defs>
			<clipPath id="SVGID_36_">
				<use xlink:href="#SVGID_35_"  overflow="visible"/>
			</clipPath>
			<g transform="matrix(1 0 0 1 1.734988e-007 8.536717e-007)" clip-path="url(#SVGID_36_)">
				
					<image overflow="visible" enable-background="new    " width="326" height="231" xlink:href="EBCEC82A.jpeg"  transform="matrix(0.0922 0 0 0.0906 17.9121 27.1143)">
				</image>
			</g>
		</g>
	</g>
	<polyline fill="#D5D5D5" points="18.248,88.396 18.248,108.805 47.615,108.805 47.615,88.396 18.248,88.396 	"/>
	<g>
		<g>
			<defs>
				<path id="SVGID_37_" d="M56.905,123.984H9V76.079h47.905V123.984 M18.248,88.396v20.409h29.367V88.396H18.248"/>
			</defs>
			<clipPath id="SVGID_38_">
				<use xlink:href="#SVGID_37_"  overflow="visible"/>
			</clipPath>
			<g transform="matrix(1 0 0 1 5.556806e-007 3.337714e-006)" clip-path="url(#SVGID_38_)">
				
					<image overflow="visible" enable-background="new    " width="532" height="532" xlink:href="EBCEC82A.jpeg"  transform="matrix(0.0907 0 0 0.0907 8.792 75.8345)">
				</image>
			</g>
		</g>
	</g>
	<g>
		<g>
			<defs>
				<polyline id="SVGID_39_" points="47.615,108.805 18.248,108.805 18.248,88.396 47.615,88.396 47.615,108.805 				"/>
			</defs>
			<clipPath id="SVGID_40_">
				<use xlink:href="#SVGID_39_"  overflow="visible"/>
			</clipPath>
			<g transform="matrix(1 0 0 1 1.734988e-007 4.007776e-006)" clip-path="url(#SVGID_40_)">
				
					<image overflow="visible" enable-background="new    " width="326" height="231" xlink:href="EBCEC826.jpeg"  transform="matrix(0.0922 0 0 0.0906 17.9121 88.0752)">
				</image>
			</g>
		</g>
	</g>
	<polyline fill="#D5D5D5" points="18.248,148.632 18.248,169.041 47.615,169.041 47.615,148.632 18.248,148.632 	"/>
	<g>
		<g>
			<defs>
				<path id="SVGID_41_" d="M56.905,184.717H9v-47.905h47.905V184.717 M18.248,148.632v20.409h29.367v-20.409H18.248"/>
			</defs>
			<clipPath id="SVGID_42_">
				<use xlink:href="#SVGID_41_"  overflow="visible"/>
			</clipPath>
			<g transform="matrix(1 0 0 1 5.556806e-007 3.644971e-006)" clip-path="url(#SVGID_42_)">
				
					<image overflow="visible" enable-background="new    " width="532" height="521" xlink:href="EBCEC826.jpeg"  transform="matrix(0.0907 0 0 0.0926 8.792 136.5547)">
				</image>
			</g>
		</g>
	</g>
	<g>
		<g>
			<defs>
				<polyline id="SVGID_43_" points="47.615,169.041 18.248,169.041 18.248,148.632 47.615,148.632 47.615,169.041 				"/>
			</defs>
			<clipPath id="SVGID_44_">
				<use xlink:href="#SVGID_43_"  overflow="visible"/>
			</clipPath>
			<g transform="matrix(1 0 0 1 1.734988e-007 -3.442483e-006)" clip-path="url(#SVGID_44_)">
				
					<image overflow="visible" enable-background="new    " width="326" height="231" xlink:href="EBCEC83A.jpeg"  transform="matrix(0.0922 0 0 0.0906 17.9121 148.3154)">
				</image>
			</g>
		</g>
	</g>
	<polygon points="108.454,36.397 108.454,34.498 63.603,34.499 63.603,32.407 108.454,32.407 108.454,30.512 111.494,33.455 	"/>
	<polygon points="108.454,44.901 108.454,43.002 63.603,43.002 63.603,40.911 108.454,40.911 108.454,39.016 111.494,41.959 	"/>
	<polygon points="108.454,97.343 108.454,95.443 63.603,95.443 63.603,93.353 108.454,93.353 108.454,91.457 111.494,94.399 	"/>
	<polygon points="108.454,105.847 108.454,103.948 63.603,103.948 63.603,101.856 108.454,101.856 108.454,99.96 111.494,102.904 	
		"/>
	<polygon points="250.129,333.15 250.128,331.253 141.498,331.253 141.498,329.161 250.129,329.161 250.128,327.266 253.169,330.21 
			"/>
	<polygon points="144.538,341.654 144.538,339.757 253.169,339.757 253.169,337.666 144.538,337.666 144.538,335.77 
		141.498,338.713 	"/>
	<polygon points="108.454,158.288 108.454,156.389 63.603,156.389 63.603,154.298 108.454,154.298 108.454,152.401 111.494,155.345 
			"/>
	<polygon points="108.454,166.792 108.454,164.892 63.603,164.893 63.603,162.802 108.454,162.802 108.454,160.906 111.494,163.849 
			"/>
	<path fill="#F8F8F8" d="M588.12,491.854c30.546,0,55.309-24.763,55.309-55.309s-24.763-55.311-55.309-55.311
		c-30.547,0-55.31,24.765-55.31,55.311S557.573,491.854,588.12,491.854"/>
	<path d="M588.12,491.854v0.5c30.823,0,55.809-24.985,55.809-55.809s-24.984-55.811-55.809-55.811s-55.81,24.986-55.81,55.811
		c0,30.822,24.985,55.809,55.81,55.809V491.854v-0.5c-15.137,0-28.836-6.134-38.756-16.053c-9.919-9.92-16.054-23.619-16.054-38.756
		c0-15.138,6.135-28.836,16.054-38.756c9.92-9.92,23.619-16.055,38.756-16.055s28.836,6.135,38.756,16.055
		c9.919,9.92,16.053,23.618,16.053,38.756c0,15.137-6.134,28.836-16.053,38.756c-9.92,9.919-23.619,16.054-38.756,16.054V491.854
		L588.12,491.854z"/>
	<text transform="matrix(1 0 0 1 562.832 450.7354)" font-family="'HelveticaNeue'" font-size="12">Historical </text>
	<text transform="matrix(1 0 0 1 570.3867 465.1338)" font-family="'HelveticaNeue'" font-size="12">Nodes</text>
	<path fill="#F8F8F8" d="M586.736,122.28c12.404,0,22.461-10.056,22.461-22.461c0-12.404-10.057-22.46-22.461-22.46
		c-12.405,0-22.461,10.056-22.461,22.46C564.275,112.224,574.331,122.28,586.736,122.28"/>
	<path d="M586.736,122.28v0.5c12.681,0,22.96-10.28,22.961-22.961c-0.001-12.68-10.28-22.959-22.961-22.96
		c-12.683,0-22.96,10.279-22.961,22.96c0.001,12.681,10.278,22.961,22.961,22.961V122.28v-0.5c-6.066,0-11.555-2.457-15.529-6.432
		c-3.974-3.976-6.431-9.463-6.432-15.529c0.001-6.065,2.458-11.552,6.432-15.528c3.976-3.975,9.463-6.432,15.529-6.432
		c6.064,0,11.553,2.457,15.527,6.432c3.976,3.976,6.433,9.463,6.434,15.528c-0.001,6.066-2.458,11.553-6.434,15.529
		c-3.976,3.975-9.463,6.432-15.527,6.432V122.28"/>
	<g>
		<g>
			<defs>
				<polyline id="SVGID_45_" points="590.345,113.446 571.567,113.282 571.743,93.063 580.247,93.138 580.124,107.168 
					590.399,107.258 590.345,113.446 				"/>
			</defs>
			<clipPath id="SVGID_46_">
				<use xlink:href="#SVGID_45_"  overflow="visible"/>
			</clipPath>
		</g>
		<g>
			<defs>
				<polyline id="SVGID_47_" points="590.345,113.446 571.567,113.282 571.743,93.063 580.247,93.138 580.124,107.168 
					590.399,107.258 590.345,113.446 				"/>
			</defs>
			<defs>
				<polyline id="SVGID_48_" points="569.405,93.042 569.229,113.262 590.345,113.446 590.522,93.227 569.405,93.042 				"/>
			</defs>
			<clipPath id="SVGID_49_">
				<use xlink:href="#SVGID_47_"  overflow="visible"/>
			</clipPath>
			<clipPath id="SVGID_50_" clip-path="url(#SVGID_49_)">
				<use xlink:href="#SVGID_48_"  overflow="visible"/>
			</clipPath>
			<g transform="matrix(1 -4.021428e-010 2.248302e-011 1 3.307237e-005 4.597703e-006)" clip-path="url(#SVGID_50_)">
				
					<image overflow="visible" enable-background="new    " width="470" height="506" xlink:href="EBCEC83A.jpeg"  transform="matrix(0.0401 3.502826e-04 -3.502826e-04 0.0401 571.7031 93.0171)">
				</image>
			</g>
		</g>
	</g>
	<g>
		<g>
			<defs>
				<polyline id="SVGID_51_" points="600.674,107.348 590.399,107.258 590.521,93.227 580.247,93.138 580.304,86.618 
					600.854,86.797 600.674,107.348 				"/>
			</defs>
			<clipPath id="SVGID_52_">
				<use xlink:href="#SVGID_51_"  overflow="visible"/>
			</clipPath>
		</g>
		<g>
			<defs>
				<polyline id="SVGID_53_" points="600.674,107.348 590.399,107.258 590.521,93.227 580.247,93.138 580.304,86.618 
					600.854,86.797 600.674,107.348 				"/>
			</defs>
			<defs>
				<polyline id="SVGID_54_" points="580.304,86.618 580.124,107.168 600.674,107.348 600.854,86.797 580.304,86.618 				"/>
			</defs>
			<clipPath id="SVGID_55_">
				<use xlink:href="#SVGID_53_"  overflow="visible"/>
			</clipPath>
			<clipPath id="SVGID_56_" clip-path="url(#SVGID_55_)">
				<use xlink:href="#SVGID_54_"  overflow="visible"/>
			</clipPath>
			<g transform="matrix(1 -2.015424e-010 2.015424e-010 1 -1.173076e-005 -1.299481e-006)" clip-path="url(#SVGID_56_)">
				
					<image overflow="visible" enable-background="new    " width="514" height="514" xlink:href="EBCEC83E.jpeg"  transform="matrix(0.0401 3.502826e-04 -3.502826e-04 0.0401 580.2646 86.5767)">
				</image>
			</g>
		</g>
	</g>
	<g>
		<g>
			<defs>
				<polyline id="SVGID_57_" points="590.399,107.258 580.124,107.168 580.247,93.138 590.521,93.227 590.399,107.258 				"/>
			</defs>
			<clipPath id="SVGID_58_">
				<use xlink:href="#SVGID_57_"  overflow="visible"/>
			</clipPath>
		</g>
		<g>
			<defs>
				<polyline id="SVGID_59_" points="590.399,107.258 580.124,107.168 580.247,93.138 590.522,93.227 590.399,107.258 				"/>
			</defs>
			<defs>
				<polyline id="SVGID_60_" points="580.304,86.618 580.124,107.168 600.674,107.348 600.854,86.797 580.304,86.618 				"/>
			</defs>
			<clipPath id="SVGID_61_">
				<use xlink:href="#SVGID_59_"  overflow="visible"/>
			</clipPath>
			<clipPath id="SVGID_62_" clip-path="url(#SVGID_61_)">
				<use xlink:href="#SVGID_60_"  overflow="visible"/>
			</clipPath>
			<g transform="matrix(1 -1.084093e-010 -3.525780e-011 1 2.674354e-005 2.324387e-006)" clip-path="url(#SVGID_62_)">
				
					<image overflow="visible" enable-background="new    " width="258" height="352" xlink:href="EBCEC83E.jpeg"  transform="matrix(0.0401 3.502826e-04 -3.502826e-04 0.0401 580.207 93.0796)">
				</image>
			</g>
		</g>
	</g>
	<path fill="#F8F8F8" d="M337.675,391.482c30.546,0,55.31-24.764,55.31-55.31c0-30.547-24.764-55.31-55.31-55.31
		s-55.309,24.763-55.309,55.31C282.366,366.721,307.129,391.482,337.675,391.482"/>
	<path d="M337.675,391.482v0.5c30.823-0.002,55.81-24.987,55.81-55.81c0-30.823-24.986-55.81-55.81-55.81
		s-55.809,24.986-55.809,55.81c0,30.821,24.985,55.808,55.809,55.81V391.482v-0.5c-15.137,0-28.836-6.135-38.756-16.053
		c-9.919-9.922-16.053-23.621-16.053-38.757c0-15.138,6.134-28.836,16.053-38.756c9.92-9.919,23.619-16.054,38.756-16.054
		s28.836,6.135,38.756,16.054c9.919,9.92,16.054,23.618,16.054,38.756c0,15.136-6.135,28.835-16.054,38.757
		c-9.92,9.918-23.618,16.053-38.756,16.053V391.482"/>
	<text transform="matrix(1 0 0 1 319.7148 354.6182)" font-family="'HelveticaNeue'" font-size="12">Br</text>
	<text transform="matrix(1 0 0 1 331.7148 354.6182)" font-family="'HelveticaNeue'" font-size="12">oker</text>
	<g>
		<g>
			<defs>
				<polyline id="SVGID_63_" points="341.379,339.296 322.6,339.132 322.777,318.913 331.28,318.986 331.158,333.018 
					341.433,333.107 341.379,339.296 				"/>
			</defs>
			<clipPath id="SVGID_64_">
				<use xlink:href="#SVGID_63_"  overflow="visible"/>
			</clipPath>
		</g>
		<g>
			<defs>
				<polyline id="SVGID_65_" points="341.379,339.296 322.6,339.132 322.777,318.913 331.28,318.986 331.158,333.018 
					341.433,333.107 341.379,339.296 				"/>
			</defs>
			<defs>
				<polyline id="SVGID_66_" points="320.438,318.893 320.262,339.111 341.379,339.296 341.555,319.076 320.438,318.893 				"/>
			</defs>
			<clipPath id="SVGID_67_">
				<use xlink:href="#SVGID_65_"  overflow="visible"/>
			</clipPath>
			<clipPath id="SVGID_68_" clip-path="url(#SVGID_67_)">
				<use xlink:href="#SVGID_66_"  overflow="visible"/>
			</clipPath>
			<g transform="matrix(1 -4.021428e-010 2.248302e-011 1 2.604696e-005 1.190983e-005)" clip-path="url(#SVGID_68_)">
				
					<image overflow="visible" enable-background="new    " width="470" height="506" xlink:href="EBCEC85D.jpeg"  transform="matrix(0.0401 3.502826e-04 -3.502826e-04 0.0401 322.7373 318.8672)">
				</image>
			</g>
		</g>
	</g>
	<g>
		<g>
			<defs>
				<polyline id="SVGID_69_" points="351.708,333.197 341.433,333.107 341.555,319.076 331.28,318.986 331.337,312.468 
					351.887,312.646 351.708,333.197 				"/>
			</defs>
			<clipPath id="SVGID_70_">
				<use xlink:href="#SVGID_69_"  overflow="visible"/>
			</clipPath>
		</g>
		<g>
			<defs>
				<polyline id="SVGID_71_" points="351.708,333.197 341.433,333.107 341.555,319.076 331.28,318.986 331.337,312.468 
					351.887,312.646 351.708,333.197 				"/>
			</defs>
			<defs>
				<polyline id="SVGID_72_" points="331.337,312.468 331.158,333.018 351.708,333.197 351.887,312.646 331.337,312.468 				"/>
			</defs>
			<clipPath id="SVGID_73_">
				<use xlink:href="#SVGID_71_"  overflow="visible"/>
			</clipPath>
			<clipPath id="SVGID_74_" clip-path="url(#SVGID_73_)">
				<use xlink:href="#SVGID_72_"  overflow="visible"/>
			</clipPath>
			<g transform="matrix(1 -2.015424e-010 2.015424e-010 1 1.518268e-005 4.398874e-006)" clip-path="url(#SVGID_74_)">
				
					<image overflow="visible" enable-background="new    " width="514" height="514" xlink:href="EBCEC85F.jpeg"  transform="matrix(0.0401 3.502826e-04 -3.502826e-04 0.0401 331.2979 312.4277)">
				</image>
			</g>
		</g>
	</g>
	<g>
		<g>
			<defs>
				<polyline id="SVGID_75_" points="341.433,333.107 331.158,333.018 331.28,318.986 341.555,319.076 341.433,333.107 				"/>
			</defs>
			<clipPath id="SVGID_76_">
				<use xlink:href="#SVGID_75_"  overflow="visible"/>
			</clipPath>
		</g>
		<g>
			<defs>
				<polyline id="SVGID_77_" points="341.433,333.107 331.158,333.018 331.28,318.986 341.555,319.076 341.433,333.107 				"/>
			</defs>
			<defs>
				<polyline id="SVGID_78_" points="331.337,312.468 331.158,333.018 351.708,333.197 351.887,312.646 331.337,312.468 				"/>
			</defs>
			<clipPath id="SVGID_79_">
				<use xlink:href="#SVGID_77_"  overflow="visible"/>
			</clipPath>
			<clipPath id="SVGID_80_" clip-path="url(#SVGID_79_)">
				<use xlink:href="#SVGID_78_"  overflow="visible"/>
			</clipPath>
			<g transform="matrix(1 -1.084093e-010 -3.525780e-011 1 2.202740e-005 3.603153e-006)" clip-path="url(#SVGID_80_)">
				
					<image overflow="visible" enable-background="new    " width="258" height="352" xlink:href="EBCEC85D.jpeg"  transform="matrix(0.0401 3.502826e-04 -3.502826e-04 0.0401 331.2402 318.9297)">
				</image>
			</g>
		</g>
	</g>
	<path fill="#F8F8F8" d="M586.777,230.438c21.351,0,38.658-17.309,38.658-38.66s-17.309-38.659-38.658-38.659
		c-21.353,0-38.659,17.308-38.659,38.659C548.118,213.128,565.426,230.438,586.777,230.438L586.777,230.438z"/>
	<path d="M586.777,230.438v0.5c21.628-0.001,39.158-17.533,39.159-39.16c-0.001-21.627-17.531-39.159-39.159-39.159
		c-21.627,0-39.159,17.532-39.159,39.159s17.532,39.159,39.159,39.16V230.438v-0.5c-10.539-0.001-20.075-4.271-26.983-11.177
		c-6.906-6.907-11.176-16.444-11.176-26.983c0-10.539,4.27-20.076,11.176-26.983c6.908-6.906,16.444-11.176,26.983-11.176
		s20.075,4.27,26.981,11.176c6.906,6.907,11.177,16.444,11.178,26.983c-0.001,10.539-4.271,20.076-11.178,26.983
		c-6.906,6.906-16.442,11.176-26.981,11.177V230.438L586.777,230.438z"/>
	<path fill="#F8F8F8" d="M673.214,324.51c21.353,0,38.659-17.309,38.659-38.658c0-21.351-17.308-38.661-38.659-38.661
		c-21.351,0-38.66,17.31-38.66,38.661C634.554,307.201,651.863,324.51,673.214,324.51L673.214,324.51z"/>
	<path d="M673.214,324.51v0.5c21.627,0,39.159-17.531,39.159-39.158c0-21.629-17.532-39.16-39.159-39.161
		c-21.628,0.001-39.159,17.532-39.16,39.161c0.001,21.627,17.532,39.158,39.16,39.158V324.51v-0.5
		c-10.539,0-20.076-4.271-26.981-11.176c-6.906-6.907-11.178-16.443-11.179-26.982c0.001-10.539,4.271-20.076,11.179-26.983
		c6.905-6.906,16.442-11.176,26.981-11.177c10.539,0.001,20.076,4.271,26.983,11.177c6.905,6.907,11.176,16.444,11.176,26.983
		s-4.271,20.075-11.176,26.982c-6.907,6.905-16.444,11.176-26.983,11.176V324.51L673.214,324.51z"/>
	<path fill="#FFFFFF" d="M669.943,230.438c21.351,0,38.658-17.309,38.658-38.66s-17.309-38.659-38.658-38.659
		c-21.353,0-38.66,17.308-38.66,38.659C631.283,213.128,648.592,230.438,669.943,230.438L669.943,230.438z"/>
	<path d="M671.726,230.646c0.512-0.023,1.019-0.055,1.522-0.098l-0.042-0.498c-0.498,0.042-0.999,0.074-1.502,0.097L671.726,230.646
		L671.726,230.646z M674.265,230.45c0.508-0.056,1.012-0.122,1.513-0.197l-0.074-0.494c-0.495,0.074-0.992,0.139-1.493,0.194
		L674.265,230.45L674.265,230.45z M676.784,230.087c0.502-0.089,1.001-0.188,1.496-0.296l-0.107-0.488
		c-0.488,0.106-0.979,0.204-1.476,0.292L676.784,230.087L676.784,230.087z M679.275,229.561c0.494-0.122,0.984-0.253,1.473-0.394
		l-0.138-0.48c-0.481,0.139-0.968,0.268-1.454,0.389L679.275,229.561L679.275,229.561z M681.73,228.87
		c0.484-0.154,0.969-0.318,1.445-0.491l-0.17-0.47c-0.472,0.17-0.947,0.332-1.429,0.485L681.73,228.87L681.73,228.87z
		 M684.136,228.018c0.477-0.187,0.946-0.382,1.411-0.586l-0.2-0.458c-0.46,0.201-0.924,0.394-1.393,0.578L684.136,228.018
		L684.136,228.018z M686.48,227.008c0.461-0.216,0.918-0.442,1.367-0.677l-0.229-0.443c-0.446,0.231-0.896,0.454-1.354,0.668
		L686.48,227.008L686.48,227.008z M688.751,225.848c0.446-0.247,0.886-0.502,1.321-0.765l-0.26-0.428
		c-0.43,0.26-0.863,0.512-1.305,0.755L688.751,225.848L688.751,225.848z M690.94,224.541c0.428-0.275,0.851-0.558,1.268-0.849
		l-0.287-0.41c-0.411,0.287-0.828,0.567-1.251,0.839L690.94,224.541L690.94,224.541z M693.038,223.095
		c0.409-0.302,0.812-0.613,1.209-0.93l-0.313-0.391c-0.392,0.314-0.789,0.62-1.192,0.919L693.038,223.095L693.038,223.095z
		 M695.037,221.515c0.388-0.328,0.77-0.663,1.145-1.006l-0.337-0.369c-0.369,0.338-0.748,0.669-1.131,0.993L695.037,221.515
		L695.037,221.515z M696.927,219.81c0.366-0.353,0.728-0.712,1.078-1.079l-0.361-0.346c-0.347,0.362-0.7,0.717-1.062,1.065
		L696.927,219.81L696.927,219.81z M698.703,217.984c0.342-0.375,0.677-0.757,1.004-1.146l-0.382-0.322
		c-0.323,0.384-0.654,0.761-0.992,1.132L698.703,217.984L698.703,217.984z M700.355,216.05c0.315-0.396,0.625-0.799,0.928-1.208
		l-0.403-0.297c-0.297,0.404-0.603,0.802-0.915,1.193L700.355,216.05L700.355,216.05z M701.878,214.013
		c0.29-0.417,0.572-0.839,0.846-1.266l-0.421-0.27c-0.27,0.422-0.549,0.839-0.835,1.249L701.878,214.013L701.878,214.013z
		 M703.263,211.881c0.265-0.434,0.519-0.873,0.764-1.318l-0.438-0.242c-0.243,0.439-0.494,0.873-0.752,1.301L703.263,211.881
		L703.263,211.881z M704.507,209.664c0.233-0.45,0.457-0.904,0.673-1.364l-0.452-0.213c-0.213,0.454-0.435,0.903-0.663,1.347
		L704.507,209.664L704.507,209.664z M705.601,207.372c0.203-0.464,0.398-0.932,0.584-1.405l-0.467-0.182
		c-0.183,0.467-0.374,0.929-0.573,1.386L705.601,207.372L705.601,207.372z M706.544,205.011c0.172-0.477,0.336-0.958,0.49-1.444
		l-0.479-0.151c-0.15,0.479-0.312,0.954-0.481,1.425L706.544,205.011L706.544,205.011z M707.33,202.588
		c0.141-0.487,0.271-0.978,0.394-1.472l-0.483-0.12c-0.121,0.488-0.25,0.973-0.39,1.454L707.33,202.588L707.33,202.588z
		 M707.955,200.121c0.109-0.495,0.207-0.993,0.296-1.495l-0.492-0.088c-0.088,0.496-0.185,0.988-0.292,1.477L707.955,200.121
		L707.955,200.121z M708.417,197.618c0.075-0.501,0.141-1.005,0.197-1.512l-0.497-0.055c-0.057,0.5-0.12,0.998-0.195,1.492
		L708.417,197.618L708.417,197.618z M708.713,195.088c0.043-0.504,0.076-1.012,0.1-1.521l-0.5-0.023
		c-0.022,0.503-0.056,1.004-0.098,1.502L708.713,195.088L708.713,195.088z"/>
	<path d="M708.812,189.995c-0.022-0.51-0.057-1.017-0.099-1.522l-0.499,0.042c0.042,0.498,0.075,0.999,0.098,1.502L708.812,189.995
		L708.812,189.995z M708.615,187.456c-0.057-0.506-0.122-1.01-0.197-1.511l-0.495,0.074c0.075,0.494,0.139,0.992,0.195,1.492
		L708.615,187.456L708.615,187.456z M708.253,184.936c-0.09-0.501-0.188-1-0.296-1.495l-0.489,0.106
		c0.107,0.489,0.204,0.981,0.292,1.477L708.253,184.936L708.253,184.936z M707.726,182.446c-0.12-0.495-0.253-0.986-0.394-1.473
		l-0.479,0.138c0.138,0.481,0.268,0.966,0.388,1.454L707.726,182.446L707.726,182.446z M707.035,179.991
		c-0.155-0.487-0.319-0.969-0.492-1.448l-0.47,0.171c0.171,0.472,0.333,0.948,0.483,1.428L707.035,179.991L707.035,179.991z
		 M706.182,177.584c-0.186-0.475-0.381-0.946-0.586-1.412l-0.458,0.201c0.202,0.46,0.396,0.924,0.579,1.393L706.182,177.584
		L706.182,177.584z M705.173,175.241c-0.217-0.462-0.442-0.918-0.677-1.369l-0.444,0.23c0.232,0.446,0.454,0.896,0.668,1.352
		L705.173,175.241L705.173,175.241z M704.012,172.97c-0.245-0.446-0.501-0.886-0.765-1.321l-0.427,0.259
		c0.26,0.429,0.511,0.864,0.755,1.304L704.012,172.97L704.012,172.97z M702.706,170.781c-0.275-0.429-0.56-0.851-0.85-1.268
		l-0.41,0.286c0.288,0.412,0.565,0.829,0.839,1.252L702.706,170.781L702.706,170.781z M701.259,168.683
		c-0.302-0.41-0.61-0.813-0.93-1.209l-0.39,0.312c0.312,0.392,0.619,0.79,0.918,1.194L701.259,168.683L701.259,168.683z
		 M699.68,166.684c-0.327-0.388-0.663-0.77-1.007-1.145l-0.369,0.337c0.34,0.37,0.67,0.747,0.994,1.131L699.68,166.684
		L699.68,166.684z M697.974,164.792c-0.352-0.366-0.712-0.725-1.077-1.077l-0.348,0.361c0.362,0.347,0.718,0.702,1.065,1.063
		L697.974,164.792L697.974,164.792z M696.15,163.018c-0.375-0.342-0.758-0.677-1.146-1.005l-0.322,0.383
		c0.385,0.323,0.762,0.654,1.133,0.992L696.15,163.018L696.15,163.018z M694.215,161.366c-0.396-0.317-0.8-0.627-1.209-0.928
		l-0.296,0.402c0.403,0.298,0.801,0.603,1.193,0.916L694.215,161.366L694.215,161.366z M692.177,159.843
		c-0.416-0.29-0.838-0.572-1.266-0.847l-0.271,0.421c0.424,0.271,0.84,0.55,1.25,0.836L692.177,159.843L692.177,159.843z
		 M690.045,158.457c-0.434-0.262-0.873-0.516-1.317-0.762l-0.24,0.438c0.438,0.242,0.872,0.493,1.301,0.752L690.045,158.457
		L690.045,158.457z M687.829,157.213c-0.45-0.233-0.905-0.458-1.365-0.674l-0.212,0.453c0.454,0.213,0.903,0.435,1.346,0.665
		L687.829,157.213L687.829,157.213z M685.537,156.12c-0.464-0.204-0.932-0.398-1.405-0.583l-0.183,0.465
		c0.467,0.183,0.929,0.375,1.387,0.576L685.537,156.12L685.537,156.12z M683.176,155.177c-0.477-0.173-0.959-0.336-1.442-0.49
		l-0.152,0.476c0.479,0.152,0.955,0.314,1.426,0.484L683.176,155.177L683.176,155.177z M680.754,154.39
		c-0.487-0.14-0.978-0.272-1.473-0.393l-0.119,0.485c0.488,0.12,0.973,0.25,1.453,0.389L680.754,154.39L680.754,154.39z
		 M678.286,153.765c-0.495-0.108-0.994-0.207-1.496-0.296l-0.087,0.493c0.495,0.088,0.988,0.185,1.476,0.292L678.286,153.765
		L678.286,153.765z M675.782,153.304c-0.501-0.075-1.004-0.141-1.513-0.197l-0.055,0.497c0.5,0.055,0.997,0.12,1.492,0.194
		L675.782,153.304L675.782,153.304z M673.254,153.008c-0.505-0.043-1.012-0.076-1.521-0.099l-0.022,0.5
		c0.503,0.022,1.004,0.055,1.502,0.097L673.254,153.008L673.254,153.008z"/>
	<path d="M668.159,152.909c-0.51,0.023-1.019,0.056-1.521,0.098l0.042,0.498c0.498-0.042,0.998-0.074,1.503-0.097L668.159,152.909
		L668.159,152.909z M665.621,153.105c-0.507,0.056-1.011,0.122-1.512,0.197l0.074,0.495c0.493-0.075,0.99-0.14,1.491-0.195
		L665.621,153.105L665.621,153.105z M663.101,153.468c-0.502,0.089-1,0.188-1.494,0.296l0.105,0.489
		c0.489-0.107,0.981-0.205,1.478-0.292L663.101,153.468L663.101,153.468z M660.61,153.995c-0.495,0.122-0.986,0.253-1.475,0.394
		l0.141,0.48c0.479-0.139,0.965-0.268,1.454-0.388L660.61,153.995L660.61,153.995z M658.156,154.686
		c-0.487,0.155-0.971,0.318-1.448,0.491l0.17,0.471c0.473-0.171,0.948-0.333,1.429-0.485L658.156,154.686L658.156,154.686z
		 M655.749,155.539c-0.475,0.186-0.945,0.381-1.411,0.585l0.2,0.458c0.46-0.201,0.925-0.394,1.394-0.578L655.749,155.539
		L655.749,155.539z M653.405,156.548c-0.461,0.217-0.917,0.442-1.369,0.677l0.229,0.444c0.445-0.232,0.896-0.455,1.353-0.669
		L653.405,156.548L653.405,156.548z M651.134,157.708c-0.443,0.247-0.886,0.502-1.319,0.766l0.259,0.427
		c0.43-0.26,0.863-0.512,1.304-0.755L651.134,157.708L651.134,157.708z M648.945,159.015c-0.43,0.275-0.853,0.558-1.269,0.85
		l0.286,0.409c0.411-0.287,0.829-0.567,1.251-0.838L648.945,159.015L648.945,159.015z M646.847,160.46
		c-0.407,0.303-0.812,0.613-1.209,0.931l0.313,0.39c0.391-0.314,0.789-0.62,1.192-0.918L646.847,160.46L646.847,160.46z
		 M644.849,162.041c-0.389,0.328-0.771,0.664-1.146,1.006l0.337,0.37c0.371-0.339,0.748-0.67,1.131-0.994L644.849,162.041
		L644.849,162.041z M642.958,163.747c-0.366,0.352-0.725,0.712-1.078,1.078l0.361,0.347c0.348-0.362,0.702-0.717,1.062-1.065
		L642.958,163.747L642.958,163.747z M641.183,165.571c-0.343,0.375-0.678,0.757-1.005,1.146l0.382,0.322
		c0.323-0.384,0.654-0.761,0.992-1.131L641.183,165.571L641.183,165.571z M639.53,167.505c-0.317,0.397-0.626,0.799-0.929,1.208
		l0.402,0.297c0.298-0.404,0.604-0.801,0.916-1.193L639.53,167.505L639.53,167.505z M638.008,169.543
		c-0.291,0.416-0.573,0.838-0.847,1.266l0.421,0.269c0.271-0.422,0.549-0.838,0.836-1.249L638.008,169.543L638.008,169.543z
		 M636.622,171.675c-0.262,0.434-0.517,0.874-0.762,1.318l0.437,0.242c0.243-0.439,0.494-0.873,0.753-1.301L636.622,171.675
		L636.622,171.675z M635.379,173.892c-0.231,0.45-0.458,0.905-0.674,1.364l0.453,0.213c0.213-0.454,0.434-0.903,0.665-1.347
		L635.379,173.892L635.379,173.892z M634.284,176.184c-0.203,0.464-0.397,0.932-0.583,1.405l0.466,0.182
		c0.184-0.466,0.375-0.929,0.575-1.386L634.284,176.184L634.284,176.184z M633.341,178.544c-0.172,0.477-0.336,0.958-0.49,1.444
		l0.479,0.151c0.152-0.479,0.312-0.954,0.483-1.425L633.341,178.544L633.341,178.544z M632.555,180.967
		c-0.141,0.487-0.271,0.978-0.394,1.473l0.486,0.119c0.118-0.488,0.25-0.973,0.388-1.454L632.555,180.967L632.555,180.967z
		 M631.93,183.435c-0.106,0.495-0.207,0.993-0.296,1.495l0.492,0.088c0.088-0.496,0.186-0.988,0.292-1.476L631.93,183.435
		L631.93,183.435z M631.468,185.938c-0.073,0.501-0.141,1.005-0.195,1.512l0.497,0.055c0.056-0.5,0.119-0.998,0.193-1.492
		L631.468,185.938L631.468,185.938z M631.172,188.467c-0.042,0.504-0.075,1.012-0.098,1.521l0.499,0.023
		c0.021-0.503,0.055-1.004,0.097-1.502L631.172,188.467L631.172,188.467z"/>
	<path d="M631.073,193.562c0.021,0.509,0.056,1.017,0.099,1.521l0.498-0.042c-0.042-0.498-0.075-0.999-0.097-1.502L631.073,193.562
		L631.073,193.562z M631.271,196.1c0.057,0.507,0.12,1.011,0.196,1.512l0.494-0.075c-0.074-0.494-0.139-0.992-0.195-1.492
		L631.271,196.1L631.271,196.1z M631.633,198.62c0.089,0.502,0.188,1,0.296,1.495l0.488-0.106c-0.107-0.489-0.204-0.981-0.292-1.477
		L631.633,198.62L631.633,198.62z M632.16,201.11c0.121,0.494,0.253,0.986,0.393,1.473l0.481-0.139
		c-0.14-0.481-0.271-0.965-0.39-1.454L632.16,201.11L632.16,201.11z M632.851,203.564c0.154,0.487,0.318,0.969,0.491,1.448
		l0.471-0.17c-0.171-0.472-0.331-0.949-0.484-1.429L632.851,203.564L632.851,203.564z M633.703,205.972
		c0.186,0.475,0.382,0.945,0.586,1.411l0.458-0.201c-0.202-0.459-0.394-0.924-0.578-1.393L633.703,205.972L633.703,205.972z
		 M634.712,208.314c0.217,0.462,0.443,0.918,0.677,1.369l0.444-0.23c-0.23-0.445-0.454-0.896-0.668-1.351L634.712,208.314
		L634.712,208.314z M635.873,210.585c0.247,0.446,0.502,0.887,0.765,1.322l0.43-0.259c-0.262-0.43-0.514-0.865-0.758-1.305
		L635.873,210.585L635.873,210.585z M637.179,212.775c0.276,0.428,0.561,0.851,0.852,1.267l0.41-0.286
		c-0.288-0.412-0.567-0.829-0.84-1.252L637.179,212.775L637.179,212.775z M638.626,214.874c0.302,0.409,0.612,0.812,0.93,1.209
		l0.392-0.313c-0.313-0.392-0.62-0.79-0.918-1.194L638.626,214.874L638.626,214.874z M640.205,216.872
		c0.329,0.389,0.664,0.77,1.007,1.146l0.369-0.338c-0.338-0.37-0.67-0.747-0.994-1.131L640.205,216.872L640.205,216.872z
		 M641.911,218.763c0.353,0.366,0.712,0.725,1.079,1.077l0.346-0.36c-0.362-0.348-0.717-0.702-1.064-1.064L641.911,218.763
		L641.911,218.763z M643.735,220.538c0.376,0.342,0.758,0.677,1.146,1.005l0.323-0.382c-0.384-0.324-0.761-0.654-1.132-0.992
		L643.735,220.538L643.735,220.538z M645.67,222.19c0.397,0.317,0.8,0.626,1.209,0.927l0.297-0.402
		c-0.402-0.298-0.802-0.603-1.191-0.916L645.67,222.19L645.67,222.19z M647.708,223.712c0.416,0.29,0.838,0.573,1.266,0.847
		l0.271-0.421c-0.422-0.271-0.839-0.55-1.25-0.836L647.708,223.712L647.708,223.712z M649.84,225.099
		c0.436,0.262,0.873,0.516,1.318,0.762l0.242-0.438c-0.439-0.242-0.873-0.493-1.303-0.752L649.84,225.099L649.84,225.099z
		 M652.058,226.342c0.448,0.233,0.903,0.458,1.363,0.674l0.213-0.453c-0.454-0.213-0.901-0.435-1.347-0.665L652.058,226.342
		L652.058,226.342z M654.349,227.437c0.464,0.203,0.934,0.397,1.405,0.582l0.184-0.465c-0.469-0.183-0.931-0.375-1.389-0.575
		L654.349,227.437L654.349,227.437z M656.71,228.378c0.479,0.173,0.958,0.336,1.443,0.49l0.15-0.476
		c-0.479-0.152-0.954-0.314-1.425-0.484L656.71,228.378L656.71,228.378z M659.131,229.166c0.487,0.14,0.979,0.272,1.475,0.394
		l0.118-0.486c-0.487-0.12-0.973-0.25-1.452-0.389L659.131,229.166L659.131,229.166z M661.599,229.791
		c0.495,0.108,0.994,0.207,1.496,0.296l0.087-0.492c-0.495-0.088-0.985-0.186-1.476-0.293L661.599,229.791L661.599,229.791z
		 M664.104,230.251c0.502,0.076,1.006,0.141,1.513,0.198l0.055-0.497c-0.501-0.056-0.998-0.121-1.493-0.195L664.104,230.251
		L664.104,230.251z M666.631,230.549c0.505,0.042,1.013,0.075,1.522,0.098l0.021-0.499c-0.504-0.023-1.004-0.056-1.503-0.098
		L666.631,230.549L666.631,230.549z"/>
	<path d="M708.845,192.541c0.006-0.254,0.008-0.508,0.008-0.763c0-0.255-0.002-0.509-0.008-0.762l-0.5,0.009
		c0.006,0.251,0.008,0.502,0.008,0.753c0,0.252-0.002,0.503-0.008,0.753L708.845,192.541L708.845,192.541z M670.705,152.875
		c-0.253-0.005-0.508-0.007-0.762-0.007c-0.256,0-0.51,0.002-0.765,0.007l0.012,0.5c0.25-0.005,0.501-0.007,0.753-0.007
		c0.251,0,0.502,0.002,0.753,0.007L670.705,152.875L670.705,152.875z M631.041,191.016c-0.005,0.253-0.008,0.507-0.008,0.762
		c0,0.255,0.003,0.509,0.008,0.763l0.5-0.01c-0.005-0.25-0.008-0.501-0.008-0.753c0-0.251,0.003-0.502,0.007-0.753L631.041,191.016
		L631.041,191.016z M669.18,230.68c0.255,0.005,0.51,0.008,0.765,0.008c0.254,0,0.509-0.003,0.762-0.008l-0.009-0.5
		c-0.251,0.005-0.502,0.008-0.753,0.008c-0.252,0-0.503-0.003-0.753-0.008L669.18,230.68L669.18,230.68z"/>
	<text transform="matrix(1 0 0 1 563.4492 196.1494)" font-family="'HelveticaNeue'" font-size="12">Overlor</text>
	<text transform="matrix(1 0 0 1 602.3398 196.1494)" font-family="'HelveticaNeue'" font-size="12">d</text>
	<path fill="#D5D5D5" d="M437.208,250.156c15.804,0,28.615-12.811,28.615-28.614c0-15.804-12.812-28.615-28.615-28.615
		s-28.614,12.811-28.614,28.615C408.594,237.345,421.405,250.156,437.208,250.156L437.208,250.156z"/>
	<path d="M437.208,250.156v0.5c16.08,0,29.114-13.035,29.115-29.114c-0.001-16.08-13.035-29.114-29.115-29.115
		c-16.079,0.001-29.114,13.035-29.114,29.115c0,16.079,13.035,29.114,29.114,29.114V250.156v-0.5c-7.765,0-14.79-3.146-19.879-8.234
		c-5.089-5.09-8.235-12.115-8.235-19.88s3.146-14.791,8.235-19.88s12.114-8.234,19.879-8.235c7.766,0.001,14.791,3.146,19.88,8.235
		s8.235,12.115,8.235,19.88s-3.146,14.79-8.235,19.88c-5.089,5.088-12.114,8.234-19.88,8.234V250.156L437.208,250.156z"/>
	<path fill="#F8F8F8" d="M465.823,221.542c0-15.804-12.812-28.615-28.615-28.615s-28.614,12.811-28.614,28.615
		C408.594,237.345,465.823,237.345,465.823,221.542L465.823,221.542z"/>
	<path d="M465.823,221.542h0.5c-0.001-16.08-13.035-29.114-29.115-29.115c-16.079,0.001-29.114,13.035-29.114,29.115
		c-0.003,2.132,0.979,4.005,2.615,5.548c2.458,2.321,6.382,3.997,11.041,5.123c4.66,1.123,10.058,1.681,15.458,1.681
		c7.201-0.001,14.397-0.99,19.846-2.994c2.726-1.004,5.018-2.261,6.654-3.81c1.636-1.543,2.618-3.416,2.615-5.548H465.823h-0.5
		c-0.003,1.818-0.812,3.402-2.304,4.822c-2.236,2.124-6.024,3.781-10.589,4.877c-4.562,1.1-9.893,1.653-15.224,1.653
		c-7.105,0.002-14.217-0.986-19.499-2.932c-2.641-0.971-4.82-2.184-6.312-3.598c-1.494-1.42-2.302-3.004-2.305-4.822
		c0-7.765,3.146-14.791,8.235-19.88s12.114-8.234,19.879-8.235c7.766,0.001,14.791,3.146,19.88,8.235s8.235,12.115,8.235,19.88
		H465.823L465.823,221.542z"/>
	<text transform="matrix(1 0 0 1 427.1133 218.9385)" font-family="'HelveticaNeue'" font-size="12">MM</text>
	<text transform="matrix(1 0 0 1 428.6211 242.5635)" font-family="'HelveticaNeue'" font-size="7">peons</text>
	<path fill="#D5D5D5" d="M500.175,319.438c15.804,0,28.614-12.811,28.614-28.614s-12.811-28.613-28.614-28.613
		c-15.803,0-28.613,12.812-28.613,28.613C471.562,306.627,484.372,319.438,500.175,319.438L500.175,319.438z"/>
	<path d="M500.175,319.438v0.5c16.08,0,29.114-13.035,29.114-29.114s-13.034-29.113-29.114-29.113s-29.113,13.034-29.113,29.113
		s13.033,29.114,29.113,29.114V319.438v-0.5c-7.765,0-14.791-3.146-19.88-8.234c-5.088-5.089-8.233-12.113-8.233-19.88
		c0-7.765,3.146-14.79,8.233-19.88c5.089-5.088,12.115-8.233,19.88-8.233c7.767,0,14.79,3.146,19.88,8.233
		c5.089,5.09,8.234,12.115,8.234,19.88c0,7.767-3.146,14.791-8.234,19.88c-5.09,5.09-12.113,8.234-19.88,8.234V319.438
		L500.175,319.438z"/>
	<path fill="#F8F8F8" d="M528.789,290.822c0-15.803-12.811-28.613-28.614-28.613c-15.803,0-28.613,12.811-28.613,28.613
		C471.562,306.627,528.789,306.627,528.789,290.822L528.789,290.822z"/>
	<path d="M528.789,290.822h0.5c0-16.079-13.034-29.113-29.114-29.113s-29.113,13.034-29.113,29.113
		c-0.004,2.134,0.979,4.006,2.614,5.55c2.458,2.319,6.382,3.996,11.041,5.122c4.659,1.123,10.06,1.682,15.458,1.682
		c7.2-0.002,14.397-0.99,19.847-2.994c2.724-1.004,5.016-2.261,6.652-3.81c1.636-1.544,2.618-3.416,2.615-5.55H528.789h-0.5
		c-0.003,1.818-0.809,3.402-2.303,4.822c-2.236,2.125-6.025,3.781-10.587,4.877c-4.563,1.102-9.896,1.653-15.226,1.653
		c-7.105,0.001-14.218-0.985-19.5-2.934c-2.641-0.972-4.818-2.183-6.312-3.597c-1.493-1.42-2.299-3.004-2.303-4.823
		c0-7.765,3.146-14.79,8.233-19.88c5.089-5.088,12.115-8.233,19.88-8.233c7.767,0,14.79,3.146,19.88,8.233
		c5.089,5.09,8.234,12.115,8.234,19.88L528.789,290.822L528.789,290.822z"/>
	<text transform="matrix(1 0 0 1 490.0742 288.2197)" font-family="'HelveticaNeue'" font-size="12">MM</text>
	<text transform="matrix(1 0 0 1 491.582 311.8525)" font-family="'HelveticaNeue'" font-size="7">peons</text>
	<path fill="#D5D5D5" d="M587.229,360.771c15.804,0,28.614-12.812,28.614-28.615s-12.812-28.613-28.614-28.613
		c-15.804,0-28.613,12.811-28.613,28.613C558.614,347.959,571.425,360.771,587.229,360.771L587.229,360.771z"/>
	<path d="M587.229,360.771v0.5c16.079-0.002,29.113-13.035,29.114-29.115c-0.001-16.079-13.035-29.113-29.114-29.113
		s-29.113,13.034-29.113,29.113c0,16.08,13.034,29.113,29.113,29.115V360.771v-0.5c-7.766-0.002-14.789-3.146-19.881-8.235
		c-5.088-5.089-8.232-12.114-8.232-19.88s3.146-14.79,8.232-19.881c5.092-5.088,12.115-8.232,19.881-8.232
		s14.791,3.146,19.881,8.232c5.088,5.091,8.232,12.115,8.232,19.881s-3.146,14.791-8.232,19.88
		c-5.09,5.089-12.115,8.233-19.881,8.235V360.771L587.229,360.771z"/>
	<path fill="#F8F8F8" d="M615.843,332.154c0-15.803-12.812-28.612-28.614-28.612c-15.804,0-28.613,12.812-28.613,28.612
		C558.614,347.959,615.843,347.959,615.843,332.154L615.843,332.154z"/>
	<path d="M615.843,332.154h0.5c-0.001-16.078-13.035-29.112-29.114-29.112s-29.113,13.034-29.113,29.112
		c-0.003,2.135,0.979,4.006,2.615,5.551c2.458,2.318,6.382,3.996,11.041,5.122c4.657,1.122,10.058,1.681,15.457,1.682
		c7.2-0.002,14.396-0.989,19.846-2.993c2.725-1.004,5.016-2.263,6.654-3.811c1.636-1.545,2.616-3.416,2.614-5.55L615.843,332.154
		l-0.501,0.001c-0.002,1.817-0.809,3.403-2.302,4.823c-2.237,2.123-6.025,3.78-10.588,4.877c-4.563,1.101-9.894,1.652-15.226,1.652
		c-7.105,0.002-14.218-0.986-19.498-2.934c-2.642-0.971-4.82-2.184-6.312-3.598c-1.494-1.42-2.3-3.004-2.303-4.822
		c0-7.766,3.146-14.79,8.232-19.881c5.092-5.088,12.115-8.232,19.88-8.232c7.767,0,14.792,3.146,19.882,8.232
		c5.088,5.091,8.232,12.115,8.232,19.881H615.843L615.843,332.154z"/>
	<text transform="matrix(1 0 0 1 577.1309 329.5479)" font-family="'HelveticaNeue'" font-size="12">MM</text>
	<text transform="matrix(1 0 0 1 578.6367 353.1807)" font-family="'HelveticaNeue'" font-size="7">peons</text>
	<path d="M640.218,362.023h-0.709c-0.001,0.518,0.345,0.988,0.864,1.381c0.922,0.693,2.418,1.254,4.415,1.771
		c5.979,1.525,16.562,2.515,28.673,2.519c9.224,0,17.573-0.58,23.661-1.524c3.045-0.476,5.522-1.037,7.297-1.688
		c0.888-0.328,1.604-0.676,2.131-1.073c0.521-0.394,0.865-0.864,0.864-1.382c0.001-0.517-0.344-0.988-0.864-1.383
		c-0.921-0.691-2.418-1.252-4.415-1.768c-5.979-1.525-16.562-2.518-28.674-2.52c-9.224,0-17.571,0.58-23.659,1.525
		c-3.046,0.475-5.523,1.037-7.298,1.688c-0.889,0.328-1.604,0.676-2.131,1.074c-0.521,0.394-0.865,0.865-0.864,1.381H640.218h0.709
		c0-0.196,0.121-0.422,0.486-0.7c0.628-0.485,1.969-1.029,3.859-1.509c5.681-1.459,16.2-2.463,28.188-2.459
		c9.138-0.002,17.41,0.576,23.354,1.502c2.972,0.461,5.358,1.013,6.949,1.599c0.797,0.292,1.387,0.592,1.745,0.867
		c0.364,0.278,0.485,0.504,0.485,0.7c0,0.197-0.121,0.424-0.485,0.703c-0.629,0.485-1.971,1.028-3.859,1.508
		c-5.683,1.459-16.201,2.463-28.189,2.459c-9.136,0-17.409-0.577-23.354-1.502c-2.972-0.461-5.359-1.012-6.949-1.599
		c-0.795-0.29-1.385-0.592-1.744-0.866c-0.365-0.279-0.486-0.506-0.486-0.703H640.218L640.218,362.023z"/>
	<path fill="#F8F8F8" d="M650.009,401.709c0,2.854,10.5,5.17,23.452,5.17c12.953,0,23.453-2.314,23.453-5.17
		s-10.5-5.169-23.453-5.169C660.509,396.54,650.009,398.854,650.009,401.709L650.009,401.709z"/>
	<path d="M640.218,401.709h-0.709c-0.001,0.517,0.345,0.987,0.864,1.382c0.922,0.691,2.418,1.253,4.415,1.77
		c5.979,1.525,16.562,2.516,28.673,2.52c9.224-0.001,17.573-0.58,23.661-1.526c3.045-0.475,5.522-1.036,7.297-1.688
		c0.888-0.327,1.604-0.677,2.131-1.074c0.521-0.395,0.865-0.865,0.864-1.382c0.001-0.517-0.344-0.988-0.864-1.383
		c-0.921-0.691-2.418-1.253-4.415-1.769c-5.979-1.525-16.562-2.516-28.674-2.519c-9.224,0-17.571,0.579-23.659,1.525
		c-3.046,0.475-5.523,1.036-7.298,1.688c-0.889,0.327-1.604,0.675-2.131,1.072c-0.521,0.395-0.865,0.866-0.864,1.383
		L640.218,401.709l0.709-0.001c0-0.197,0.121-0.423,0.486-0.701c0.628-0.485,1.969-1.03,3.859-1.509
		c5.681-1.458,16.2-2.463,28.188-2.459c9.138-0.001,17.41,0.576,23.354,1.502c2.972,0.461,5.358,1.013,6.949,1.598
		c0.797,0.292,1.387,0.593,1.745,0.868c0.364,0.278,0.485,0.504,0.485,0.701c0,0.196-0.121,0.423-0.485,0.701
		c-0.629,0.485-1.971,1.028-3.859,1.51c-5.683,1.458-16.201,2.462-28.189,2.458c-9.136,0.001-17.409-0.577-23.354-1.502
		c-2.972-0.461-5.359-1.013-6.949-1.599c-0.795-0.291-1.385-0.593-1.744-0.867c-0.365-0.278-0.486-0.505-0.486-0.701
		L640.218,401.709L640.218,401.709z"/>
	<polyline points="706.414,362.023 706.414,401.142 707.414,401.142 707.414,362.023 	"/>
	<polyline points="639.509,362.023 639.509,401.142 640.509,401.142 640.509,362.023 	"/>
	<text transform="matrix(1 0 0 1 647.1992 386.2744)" font-family="'HelveticaNeue'" font-size="9">Meta storage</text>
	<text transform="matrix(1 0 0 1 647.043 190.7588)" font-family="'HelveticaNeue'" font-size="12">Overlor</text>
	<text transform="matrix(1 0 0 1 685.9336 190.7588)" font-family="'HelveticaNeue'" font-size="12">d</text>
	<text transform="matrix(1 0 0 1 658.2148 201.5557)" font-family="'HelveticaNeue-Italic'" font-size="9">(Cold)</text>
	<text transform="matrix(1 0 0 1 647.668 288.501)" font-family="'HelveticaNeue'" font-size="9">Co-Or</text>
	<text transform="matrix(1 0 0 1 672.5117 288.501)" font-family="'HelveticaNeue'" font-size="9">dinator</text>
	<g>
		<g>
			<defs>
				<rect id="SVGID_81_" x="569.057" y="412.896" width="17.079" height="20.219"/>
			</defs>
			<clipPath id="SVGID_82_">
				<use xlink:href="#SVGID_81_"  overflow="visible"/>
			</clipPath>
		</g>
		<g>
			<defs>
				<rect id="SVGID_83_" x="569.057" y="412.896" width="17.079" height="20.219"/>
			</defs>
			<defs>
				<polyline id="SVGID_84_" points="586.136,433.115 569.057,433.115 569.057,412.896 577.562,412.896 577.562,427.275 
					586.136,427.275 586.136,433.115 				"/>
			</defs>
			<clipPath id="SVGID_85_">
				<use xlink:href="#SVGID_83_"  overflow="visible"/>
			</clipPath>
			<clipPath id="SVGID_86_" clip-path="url(#SVGID_85_)">
				<use xlink:href="#SVGID_84_"  overflow="visible"/>
			</clipPath>
			<g transform="matrix(1 0 0 1 -3.275407e-005 -1.576197e-005)" clip-path="url(#SVGID_86_)">
				
					<image overflow="visible" enable-background="new    " width="468" height="542" xlink:href="EBCEC85B.jpeg"  transform="matrix(0.037 0 0 0.0377 568.9521 412.795)">
				</image>
			</g>
		</g>
	</g>
	<g>
		<g>
			<defs>
				<polyline id="SVGID_87_" points="586.136,412.896 577.562,412.896 577.562,406.725 598.112,406.725 598.112,412.73 
					586.136,412.73 586.136,412.896 				"/>
			</defs>
			<clipPath id="SVGID_88_">
				<use xlink:href="#SVGID_87_"  overflow="visible"/>
			</clipPath>
			<g transform="matrix(1 0 0 1 -1.124558e-005 -1.234377e-005)" clip-path="url(#SVGID_88_)">
				
					<image overflow="visible" enable-background="new    " width="540" height="196" xlink:href="EBCEC855.jpeg"  transform="matrix(0.0387 0 0 0.0333 577.3525 406.5547)">
				</image>
			</g>
		</g>
	</g>
	<g>
		<g>
			<defs>
				<polyline id="SVGID_89_" points="586.136,427.275 577.562,427.275 577.562,412.896 586.136,412.896 586.136,427.275 				"/>
			</defs>
			<clipPath id="SVGID_90_">
				<use xlink:href="#SVGID_89_"  overflow="visible"/>
			</clipPath>
			<g transform="matrix(1 0 0 1 -1.511289e-005 -2.449774e-005)" clip-path="url(#SVGID_90_)">
				
					<image overflow="visible" enable-background="new    " width="242" height="387" xlink:href="EBCEC857.jpeg"  transform="matrix(0.0369 0 0 0.038 577.3525 412.795)">
				</image>
			</g>
		</g>
	</g>
	<g>
		<g>
			<defs>
				<polyline id="SVGID_91_" points="606.688,433.281 586.136,433.281 586.136,433.115 587.836,433.115 587.836,427.275 
					598.112,427.275 598.112,412.73 606.688,412.73 606.688,433.281 				"/>
			</defs>
			<clipPath id="SVGID_92_">
				<use xlink:href="#SVGID_91_"  overflow="visible"/>
			</clipPath>
			<g transform="matrix(1 0 0 1 4.405223e-005 -1.493407e-005)" clip-path="url(#SVGID_92_)">
				
					<image overflow="visible" enable-background="new    " width="540" height="540" xlink:href="EBCEC855.jpeg"  transform="matrix(0.0387 0 0 0.0387 585.9922 412.5547)">
				</image>
			</g>
		</g>
	</g>
	<g>
		<g>
			<defs>
				<polyline id="SVGID_93_" points="587.836,433.115 586.136,433.115 586.136,427.275 587.836,427.275 587.836,433.115 				"/>
			</defs>
			<clipPath id="SVGID_94_">
				<use xlink:href="#SVGID_93_"  overflow="visible"/>
			</clipPath>
			<g transform="matrix(1 0 0 1 2.577207e-005 -1.883333e-005)" clip-path="url(#SVGID_94_)">
				
					<image overflow="visible" enable-background="new    " width="67" height="157" xlink:href="EBCEC84B.jpeg"  transform="matrix(0.0294 0 0 0.0386 585.9922 427.1944)">
				</image>
			</g>
		</g>
	</g>
	<g>
		<g>
			<defs>
				<polyline id="SVGID_95_" points="598.112,427.275 587.836,427.275 587.836,412.896 586.136,412.896 586.136,412.73 
					598.112,412.73 598.112,427.275 				"/>
			</defs>
			<clipPath id="SVGID_96_">
				<use xlink:href="#SVGID_95_"  overflow="visible"/>
			</clipPath>
			<g transform="matrix(1 0 0 1 -1.076613e-005 -1.303619e-005)" clip-path="url(#SVGID_96_)">
				
					<image overflow="visible" enable-background="new    " width="342" height="391" xlink:href="EBCEC84D.jpeg"  transform="matrix(0.036 0 0 0.0382 585.9922 412.5547)">
				</image>
			</g>
		</g>
	</g>
	<g>
		<g>
			<defs>
				<polyline id="SVGID_97_" points="587.836,427.275 586.136,427.275 586.136,412.896 587.836,412.896 587.836,427.275 				"/>
			</defs>
			<clipPath id="SVGID_98_">
				<use xlink:href="#SVGID_97_"  overflow="visible"/>
			</clipPath>
			<g transform="matrix(1 0 0 1 1.551603e-005 -2.449774e-005)" clip-path="url(#SVGID_98_)">
				
					<image overflow="visible" enable-background="new    " width="67" height="358" xlink:href="EBCEC84F.jpeg"  transform="matrix(0.0294 0 0 0.041 585.9922 412.795)">
				</image>
			</g>
		</g>
	</g>
	<polyline fill="#00AEEF" points="58.433,314.76 58.433,353.161 114.976,353.161 114.976,314.76 58.433,314.76 	"/>
	<g>
		<g>
			<defs>
				<path id="SVGID_99_" d="M133.29,367.835H40.402v-61.103h92.888V367.835 M58.433,314.76v38.401h56.543V314.76H58.433"/>
			</defs>
			<clipPath id="SVGID_100_">
				<use xlink:href="#SVGID_99_"  overflow="visible"/>
			</clipPath>
			<g transform="matrix(1 0 0 1 -2.810858e-006 -8.775693e-006)" clip-path="url(#SVGID_100_)">
				
					<image overflow="visible" enable-background="new    " width="521" height="346" xlink:href="EBCEC870.jpeg"  transform="matrix(0.1798 0 0 0.1784 39.9927 306.4746)">
				</image>
			</g>
		</g>
	</g>
	<g>
		<g>
			<defs>
				<polyline id="SVGID_101_" points="114.976,353.161 58.433,353.161 58.433,314.76 114.976,314.76 114.976,353.161 				"/>
			</defs>
			<clipPath id="SVGID_102_">
				<use xlink:href="#SVGID_101_"  overflow="visible"/>
			</clipPath>
			<g transform="matrix(1 0 0 1 3.031512e-006 -1.924576e-006)" clip-path="url(#SVGID_102_)">
				
					<image overflow="visible" enable-background="new    " width="323" height="219" xlink:href="EBCEC870.jpeg"  transform="matrix(0.1777 0 0 0.1788 57.9922 314.3945)">
				</image>
			</g>
		</g>
	</g>
	<path fill="#D5D5D5" d="M425.695,155.162c30.546,0,55.309-24.763,55.309-55.309s-24.763-55.309-55.309-55.309
		c-30.547,0-55.31,24.763-55.31,55.309C370.386,130.398,395.148,155.162,425.695,155.162"/>
	<path d="M425.695,155.162v0.5c30.82,0,55.808-24.986,55.809-55.809c-0.001-30.823-24.987-55.809-55.809-55.809
		c-30.823,0-55.81,24.986-55.81,55.809c0,30.823,24.986,55.809,55.81,55.809V155.162v-0.5c-15.139,0-28.836-6.134-38.756-16.053
		c-9.921-9.92-16.054-23.619-16.054-38.756s6.133-28.836,16.054-38.756c9.92-9.919,23.618-16.053,38.756-16.053
		c15.136,0,28.835,6.134,38.756,16.053c9.919,9.92,16.052,23.619,16.053,38.756c-0.001,15.137-6.134,28.836-16.053,38.756
		c-9.921,9.919-23.62,16.053-38.756,16.053V155.162"/>
	<path fill="#F8F8F8" d="M425.647,155.162c-30.548,0-55.311-24.763-55.311-55.309s24.763-55.309,55.311-55.309
		c15.271,0,25.841,25,25.841,52.653C451.488,124.853,440.92,155.162,425.647,155.162"/>
	<path d="M425.647,155.162v0.5c-30.823,0-55.811-24.986-55.811-55.809c0-30.823,24.986-55.809,55.811-55.809
		c3.958-0.001,7.606,1.627,10.812,4.464c4.81,4.258,8.673,11.226,11.356,19.727c2.681,8.502,4.172,18.544,4.173,28.962h-0.5
		l0.499-0.038l0.001,0.04c-0.001,13.891-2.649,28.43-7.231,39.542c-2.293,5.557-5.066,10.26-8.268,13.599
		c-3.195,3.336-6.852,5.322-10.842,5.322V155.162v-0.5c3.645,0,7.037-1.803,10.118-5.014c4.618-4.811,8.445-12.764,11.093-22.093
		c2.647-9.329,4.13-20.034,4.13-30.356h0.483l-0.482,0.037l-0.001-0.037h0.483l-0.482,0.037l-0.001-0.02v-0.019
		c0.001-13.763-2.636-26.867-7.146-36.484c-2.254-4.809-4.976-8.743-8.046-11.456c-3.072-2.715-6.471-4.211-10.147-4.213
		c-15.139,0-28.836,6.134-38.757,16.053c-9.919,9.92-16.053,23.619-16.053,38.756s6.134,28.836,16.053,38.756
		c9.921,9.919,23.619,16.053,38.757,16.053L425.647,155.162"/>
	<text transform="matrix(1 0 0 1 397.832 130.3447)" enable-background="new    "><tspan x="0" y="0" font-family="'HelveticaNeue'" font-size="12">Storm/</tspan><tspan x="0" y="14.4" font-family="'HelveticaNeue'" font-size="12">Samza</tspan></text>
	<g>
		<g>
			<defs>
				<polyline id="SVGID_103_" points="420.77,111.621 400.785,111.621 400.785,97.588 400.218,97.588 400.218,91.068 
					403.053,91.068 420.77,91.068 420.77,111.621 				"/>
			</defs>
			<clipPath id="SVGID_104_">
				<use xlink:href="#SVGID_103_"  overflow="visible"/>
			</clipPath>
			<g transform="matrix(1 0 0 1 -7.630890e-006 -3.143810e-006)" clip-path="url(#SVGID_104_)">
				
					<image overflow="visible" enable-background="new    " width="540" height="540" xlink:href="EBCEC850.jpeg"  transform="matrix(0.0387 0 0 0.0387 399.9922 90.9541)">
				</image>
			</g>
		</g>
	</g>
	<g>
		<g>
			<defs>
				<polyline id="SVGID_105_" points="420.84,91.068 420.77,91.068 403.053,91.068 403.053,90.007 406.101,90.007 406.101,70.518 
					423.604,70.518 423.604,85.754 420.84,85.754 420.84,91.068 				"/>
			</defs>
			<clipPath id="SVGID_106_">
				<use xlink:href="#SVGID_105_"  overflow="visible"/>
			</clipPath>
			<g transform="matrix(1 0 0 1 1.684836e-005 1.492758e-006)" clip-path="url(#SVGID_106_)">
				
					<image overflow="visible" enable-background="new    " width="540" height="540" xlink:href="EBCEC850.jpeg"  transform="matrix(0.0387 0 0 0.0387 402.872 70.3145)">
				</image>
			</g>
		</g>
	</g>
	<g>
		<g>
			<defs>
				<polyline id="SVGID_107_" points="441.391,106.306 420.84,106.306 420.84,91.068 423.604,91.068 423.604,85.754 441.391,85.754 
					441.391,106.306 				"/>
			</defs>
			<clipPath id="SVGID_108_">
				<use xlink:href="#SVGID_107_"  overflow="visible"/>
			</clipPath>
			<g transform="matrix(1 0 0 1 -5.333437e-006 3.374570e-006)" clip-path="url(#SVGID_108_)">
				
					<image overflow="visible" enable-background="new    " width="540" height="540" xlink:href="EBCEC850.jpeg"  transform="matrix(0.0387 0 0 0.0387 420.6318 85.6748)">
				</image>
			</g>
		</g>
	</g>
	<g>
		<g>
			<defs>
				<polyline id="SVGID_109_" points="423.604,91.068 420.84,91.068 420.84,85.754 423.604,85.754 423.604,91.068 				"/>
			</defs>
			<clipPath id="SVGID_110_">
				<use xlink:href="#SVGID_109_"  overflow="visible"/>
			</clipPath>
			<g transform="matrix(1 0 0 1 -4.347134e-006 -1.333305e-006)" clip-path="url(#SVGID_110_)">
				
					<image overflow="visible" enable-background="new    " width="90" height="157" xlink:href="EBCEC850.jpeg"  transform="matrix(0.0352 0 0 0.0355 420.6328 85.6748)">
				</image>
			</g>
		</g>
	</g>
	<g>
		<g>
			<defs>
				<polyline id="SVGID_111_" points="400.785,118.14 380.234,118.14 380.234,97.588 400.218,97.588 400.218,111.621 
					400.785,111.621 400.785,118.14 				"/>
			</defs>
			<clipPath id="SVGID_112_">
				<use xlink:href="#SVGID_111_"  overflow="visible"/>
			</clipPath>
			<g transform="matrix(1 0 0 1 -8.103001e-006 -2.730299e-006)" clip-path="url(#SVGID_112_)">
				
					<image overflow="visible" enable-background="new    " width="516" height="540" xlink:href="EBCEC850.jpeg"  transform="matrix(0.0405 0 0 0.0387 380.0723 97.4351)">
				</image>
			</g>
		</g>
	</g>
	<g>
		<g>
			<defs>
				<polyline id="SVGID_113_" points="400.785,111.621 400.218,111.621 400.218,97.588 400.785,97.588 400.785,111.621 				"/>
			</defs>
			<clipPath id="SVGID_114_">
				<use xlink:href="#SVGID_113_"  overflow="visible"/>
			</clipPath>
			<g transform="matrix(1 0 0 1 3.525987e-006 3.914247e-007)" clip-path="url(#SVGID_114_)">
				
					<image overflow="visible" enable-background="new    " width="32" height="238" xlink:href="EBCEC850.jpeg"  transform="matrix(0.0315 0 0 0.0606 399.9922 97.4351)">
				</image>
			</g>
		</g>
	</g>
	<g>
		<g>
			<defs>
				<polyline id="SVGID_115_" points="403.053,90.007 385.549,90.007 385.549,69.455 406.101,69.455 406.101,70.518 403.053,70.518 
					403.053,90.007 				"/>
			</defs>
			<clipPath id="SVGID_116_">
				<use xlink:href="#SVGID_115_"  overflow="visible"/>
			</clipPath>
			<g transform="matrix(1 0 0 1 -1.173591e-005 -2.421531e-006)" clip-path="url(#SVGID_116_)">
				
					<image overflow="visible" enable-background="new    " width="540" height="540" xlink:href="EBCEC850.jpeg"  transform="matrix(0.0387 0 0 0.0387 385.3525 69.3545)">
				</image>
			</g>
		</g>
	</g>
	<g>
		<g>
			<defs>
				<polyline id="SVGID_117_" points="406.101,90.007 403.053,90.007 403.053,70.518 406.101,70.518 406.101,90.007 				"/>
			</defs>
			<clipPath id="SVGID_118_">
				<use xlink:href="#SVGID_117_"  overflow="visible"/>
			</clipPath>
			<g transform="matrix(1 0 0 1 5.802071e-006 -5.053743e-006)" clip-path="url(#SVGID_118_)">
				
					<image overflow="visible" enable-background="new    " width="114" height="481" xlink:href="EBCEC850.jpeg"  transform="matrix(0.0299 0 0 0.0415 402.8711 70.314)">
				</image>
			</g>
		</g>
	</g>
	<polyline points="399.19,81.212 407.339,94.818 407.554,94.689 399.404,81.083 	"/>
	<polyline points="397.178,107.456 408.186,102.664 408.086,102.435 397.079,107.227 	"/>
	<polyline points="428.175,97.467 417.198,100.019 417.254,100.262 428.231,97.71 	"/>
	<polyline points="410.37,82.404 408.599,93.941 408.846,93.979 410.617,82.442 	"/>
	<polyline points="417.122,82.402 427.271,90.105 427.421,89.907 417.273,82.204 	"/>
	<polyline points="393.062,81.083 392.938,100.261 393.188,100.263 393.312,81.084 	"/>
	<text transform="matrix(0 -1 1 0 466.2227 121.6572)" font-family="'HelveticaNeue'" font-size="9">T</text>
	<text transform="matrix(0 -1 1 0 466.2227 117.3213)" font-family="'HelveticaNeue'" font-size="9">ranquility</text>
	<polygon points="488.028,228.57 487.327,243.205 476.497,234.063 484.785,237.066 	"/>
	<polygon points="511.882,238.277 523.062,228.81 523.764,242.965 520.308,234.854 	"/>
	<path fill="#FFFFFF" d="M86.123,322.543c-5.31,0.631-9.519,4.84-10.149,10.148h10.149V322.543L86.123,322.543z M89.027,322.562
		v11.65c0,0.766-0.619,1.385-1.383,1.385h-11.65c0.746,5.696,5.612,10.096,11.512,10.096c6.416,0,11.618-5.201,11.618-11.617
		C99.123,328.177,94.723,323.309,89.027,322.562L89.027,322.562z"/>
</g>
</svg>
