<?xml version="1.0" encoding="UTF-8" standalone="no"?>
<!DOCTYPE svg PUBLIC "-//W3C//DTD SVG 1.0//EN"
 "http://www.w3.org/TR/2001/REC-SVG-20010904/DTD/svg10.dtd">
<!-- Generated by dot version 1.13 (v16) (Mon August 23, 2004)
     For user: (peb) Paul E Baclace   Title: DruidDataFlow    Pages: 1 -->
<svg width="405pt" height="492pt"
 viewBox = "-1 -1 404 491"
 xmlns="http://www.w3.org/2000/svg">
<g id="graph0" class="graph" style="font-family:Times-Roman;font-size:14.00;">
<title>DruidDataFlow</title>
<polygon style="fill:#fffef5;stroke:#fffef5;" points="0,489 0,-1 403,-1 403,489 0,489"/>
<g id="node1" class="node"><title>1</title>
<polygon style="fill:#fdf4c6;stroke:#0a0701;" points="163,4 77,4 77,40 163,40 163,4"/>
<text text-anchor="middle" x="120" y="27" style="font-family:Helvetica;">REST query</text>
</g>
<g id="node2" class="node"><title>10</title>
<polygon style="fill:#fdf4c6;stroke:#0a0701;" points="189,92 51,92 51,128 189,128 189,92"/>
<text text-anchor="middle" x="120" y="115" style="font-family:Helvetica;">Broker.query_cache</text>
</g>
<g id="edge20" class="edge"><title>1-&gt;10</title>
<path style="fill:none;stroke:#377d18;" d="M94,40C89,45 84,51 81,58 77,67 81,76 87,84"/>
<polygon style="fill:#377d18;stroke:#377d18;" points="90,82 94,92 85,87 90,82"/>
<text text-anchor="middle" x="104" y="71"> query </text>
</g>
<g id="edge14" class="edge"><title>10-&gt;1</title>
<path style="fill:none;stroke:#377d18;" d="M123,92C123,86 124,80 125,74 125,66 125,58 124,50"/>
<polygon style="fill:#377d18;stroke:#377d18;" points="121,50 123,40 127,50 121,50"/>
<text text-anchor="middle" x="146" y="71"> results </text>
</g>
<g id="node6" class="node"><title>5</title>
<polygon style="fill:#fdf4c6;stroke:#0a0701;" points="303,180 155,180 155,216 303,216 303,180"/>
<text text-anchor="middle" x="229" y="203" style="font-family:Helvetica;">Realtime.working_set</text>
</g>
<g id="edge16" class="edge"><title>10-&gt;5</title>
<path style="fill:none;stroke:#377d18;" d="M181,128C188,132 195,138 204,146 211,153 215,162 219,171"/>
<polygon style="fill:#377d18;stroke:#377d18;" points="222,169 223,180 216,172 222,169"/>
<text text-anchor="middle" x="232" y="159"> query </text>
</g>
<g id="node7" class="node"><title>6</title>
<polygon style="fill:#fdf4c6;stroke:#0a0701;" points="172,448 22,448 22,484 172,484 172,448"/>
<text text-anchor="middle" x="97" y="471" style="font-family:Helvetica;">Compute.working_set</text>
</g>
<g id="edge18" class="edge"><title>10-&gt;6</title>
<path style="fill:none;stroke:#377d18;" d="M78,128C46,144 23,157 23,198 23,198 23,198 23,378 23,404 41,426 60,442"/>
<polygon style="fill:#377d18;stroke:#377d18;" points="62,439 68,448 58,445 62,439"/>
<text text-anchor="middle" x="43" y="293"> query </text>
</g>
<g id="node3" class="node"><title>2</title>
<polygon style="fill:#fdf4c6;stroke:#0a0701;" points="359,92 233,92 233,128 359,128 359,92"/>
<text text-anchor="middle" x="296" y="115" style="font-family:Helvetica;">realtime_data_src</text>
</g>
<g id="edge2" class="edge"><title>2-&gt;5</title>
<path style="fill:none;stroke:#377d18;" d="M286,128C280,138 272,151 264,162 261,166 258,169 255,173"/>
<polygon style="fill:#377d18;stroke:#377d18;" points="258,175 248,180 253,170 258,175"/>
<text text-anchor="middle" x="326" y="159">Realtime.Firehose</text>
</g>
<g id="node4" class="node"><title>3</title>
<polygon style="fill:#fdf4c6;stroke:#0a0701;" points="280,360 136,360 136,396 280,396 280,360"/>
<text text-anchor="middle" x="208" y="383" style="font-family:Helvetica;">Compute.disk_cache</text>
</g>
<g id="edge8" class="edge"><title>3-&gt;6</title>
<path style="fill:none;stroke:#377d18;" d="M185,396C169,409 146,427 128,442"/>
<polygon style="fill:#377d18;stroke:#377d18;" points="130,445 120,448 126,439 130,445"/>
<text text-anchor="middle" x="200" y="427">Compute.map</text>
</g>
<g id="node5" class="node"><title>4</title>
<polygon style="fill:#fdf4c6;stroke:#0a0701;" points="315,268 159,268 159,308 315,308 315,268"/>
<text text-anchor="middle" x="237" y="285" style="font-family:Helvetica;">indexed segments</text>
<text text-anchor="middle" x="237" y="301" style="font-family:Helvetica;">blob_store (S3, HDFS)</text>
</g>
<g id="edge6" class="edge"><title>4-&gt;3</title>
<path style="fill:none;stroke:#377d18;" d="M230,308C226,321 221,337 217,350"/>
<polygon style="fill:#377d18;stroke:#377d18;" points="220,351 214,360 214,349 220,351"/>
<text text-anchor="middle" x="263" y="339">Compute.load</text>
</g>
<g id="edge10" class="edge"><title>5-&gt;10</title>
<path style="fill:none;stroke:#377d18;" d="M183,180C174,175 165,169 157,162 149,155 141,146 135,137"/>
<polygon style="fill:#377d18;stroke:#377d18;" points="132,138 130,128 138,135 132,138"/>
<text text-anchor="middle" x="178" y="159"> results </text>
</g>
<g id="edge4" class="edge"><title>5-&gt;4</title>
<path style="fill:none;stroke:#377d18;" d="M231,216C232,228 233,244 234,258"/>
<polygon style="fill:#377d18;stroke:#377d18;" points="237,258 235,268 231,258 237,258"/>
<text text-anchor="middle" x="302" y="247">Realtime.segmentPusher</text>
</g>
<g id="edge12" class="edge"><title>6-&gt;10</title>
<path style="fill:none;stroke:#377d18;" d="M97,448C97,430 98,403 97,378 97,198 97,198 97,198 98,177 104,155 110,138"/>
<polygon style="fill:#377d18;stroke:#377d18;" points="107,137 113,128 113,139 107,137"/>
<text text-anchor="middle" x="119" y="293"> results </text>
</g>
</g>
</svg>
