<svg xmlns="http://www.w3.org/2000/svg" xmlns:xlink="http://www.w3.org/1999/xlink" xmlns:lucid="lucid" width="1967.24" height="865.33"><g transform="translate(5341 -18.5)" lucid:page-tab-id="0_0"><path d="M-5320 166a6 6 0 0 1 6-6h508a6 6 0 0 1 6 6v308a6 6 0 0 1-6 6h-508a6 6 0 0 1-6-6zM-4640 166a6 6 0 0 1 6-6h508a6 6 0 0 1 6 6v308a6 6 0 0 1-6 6h-508a6 6 0 0 1-6-6zM-3960 166a6 6 0 0 1 6-6h508a6 6 0 0 1 6 6v308a6 6 0 0 1-6 6h-508a6 6 0 0 1-6-6z" stroke="#cfe4ff" stroke-width="2" fill="#cfe4ff"/><path d="M-5280 266a6 6 0 0 1 6-6h168a6 6 0 0 1 6 6v108a6 6 0 0 1-6 6h-168a6 6 0 0 1-6-6z" stroke="#fc9432" fill="#ffdda6"/><use xlink:href="#a" transform="matrix(1,0,0,1,-5275,265) translate(15.518518518518533 59.14583333333333)"/><path d="M-5020 266a6 6 0 0 1 6-6h168a6 6 0 0 1 6 6v108a6 6 0 0 1-6 6h-168a6 6 0 0 1-6-6z" stroke="#fc9432" fill="#ffdda6"/><use xlink:href="#b" transform="matrix(1,0,0,1,-5015,265) translate(34.00000000000001 59.14583333333333)"/><path d="M-3920 266a6 6 0 0 1 6-6h188a6 6 0 0 1 6 6v108a6 6 0 0 1-6 6h-188a6 6 0 0 1-6-6z" stroke="#fc9432" fill="#ffdda6"/><use xlink:href="#c" transform="matrix(1,0,0,1,-3915,265) translate(3.333333333333357 59.14583333333333)"/><path d="M-4340 266a6 6 0 0 1 6-6h168a6 6 0 0 1 6 6v108a6 6 0 0 1-6 6h-168a6 6 0 0 1-6-6z" stroke="#fc9432" fill="#ffdda6"/><use xlink:href="#d" transform="matrix(1,0,0,1,-4335,265) translate(45.814814814814824 59.14583333333333)"/><path d="M-4600 266a6 6 0 0 1 6-6h168a6 6 0 0 1 6 6v108a6 6 0 0 1-6 6h-168a6 6 0 0 1-6-6z" stroke="#fc9432" fill="#ffdda6"/><use xlink:href="#e" transform="matrix(1,0,0,1,-4595,265) translate(45.07407407407408 45.39583333333333)"/><use xlink:href="#f" transform="matrix(1,0,0,1,-4595,265) translate(29.59259259259261 77.39583333333333)"/><path d="M-3660 266a6 6 0 0 1 6-6h168a6 6 0 0 1 6 6v108a6 6 0 0 1-6 6h-168a6 6 0 0 1-6-6z" stroke="#fc9432" fill="#ffdda6"/><use xlink:href="#g" transform="matrix(1,0,0,1,-3655,265) translate(30.370370370370388 59.14583333333333)"/><path d="M-4401 320h42" stroke="#3a414a" stroke-width="2" fill="none"/><path d="M-4416.26 320l14.26-4.63v9.26zM-4343.74 320l-14.26 4.63v-9.26z" stroke="#3a414a" stroke-width="2" fill="#3a414a"/><path d="M-5320 166a6 6 0 0 1 6-6h188a6 6 0 0 1 6 6v48a6 6 0 0 1-6 6h-188a6 6 0 0 1-6-6z" stroke="#000" stroke-opacity="0" fill="#fff" fill-opacity="0"/><use xlink:href="#h" transform="matrix(1,0,0,1,-5315,165) translate(8.407407407407419 30.708333333333332)"/><use xlink:href="#i" transform="matrix(1,0,0,1,-5315,165) translate(101.5925925925926 30.708333333333332)"/><path d="M-4640 166a6 6 0 0 1 6-6h188a6 6 0 0 1 6 6v48a6 6 0 0 1-6 6h-188a6 6 0 0 1-6-6z" stroke="#000" stroke-opacity="0" fill="#fff" fill-opacity="0"/><use xlink:href="#j" transform="matrix(1,0,0,1,-4635,165.00000000000006) translate(12.814814814814838 30.708333333333332)"/><use xlink:href="#i" transform="matrix(1,0,0,1,-4635,165.00000000000006) translate(97.18518518518519 30.708333333333332)"/><path d="M-3960 166a6 6 0 0 1 6-6h188a6 6 0 0 1 6 6v48a6 6 0 0 1-6 6h-188a6 6 0 0 1-6-6z" stroke="#000" stroke-opacity="0" fill="#fff" fill-opacity="0"/><use xlink:href="#k" transform="matrix(1,0,0,1,-3955,165.00000000000006) translate(22.481481481481495 30.708333333333332)"/><use xlink:href="#i" transform="matrix(1,0,0,1,-3955,165.00000000000006) translate(87.51851851851853 30.708333333333332)"/><path d="M-5000 646a6 6 0 0 1 6-6h1228a6 6 0 0 1 6 6v188a6 6 0 0 1-6 6h-1228a6 6 0 0 1-6-6z" stroke="#ced4db" fill="#f2f3f5"/><use xlink:href="#l" transform="matrix(1,0,0,1,-4988,652) translate(567.9074074074074 94.77777777777777)"/><path d="M-4530 686a6 6 0 0 1 6-6h288a6 6 0 0 1 6 6v68a6 6 0 0 1-6 6h-288a6 6 0 0 1-6-6z" stroke="#9391ff" fill="#dedeff"/><use xlink:href="#m" transform="matrix(1,0,0,1,-4518,692) translate(72.14814814814815 31.833333333333332)"/><path d="M-4120 686a6 6 0 0 1 6-6h288a6 6 0 0 1 6 6v68a6 6 0 0 1-6 6h-288a6 6 0 0 1-6-6z" stroke="#9391ff" fill="#dedeff"/><use xlink:href="#n" transform="matrix(1,0,0,1,-4108,692) translate(58.074074074074076 31.833333333333332)"/><use xlink:href="#o" transform="matrix(1,0,0,1,-4108,692) translate(129.1111111111111 31.833333333333332)"/><path d="M-4940 686a6 6 0 0 1 6-6h288a6 6 0 0 1 6 6v68a6 6 0 0 1-6 6h-288a6 6 0 0 1-6-6z" stroke="#9391ff" fill="#dedeff"/><use xlink:href="#p" transform="matrix(1,0,0,1,-4928,692) translate(34.37037037037038 31.833333333333332)"/><use xlink:href="#o" transform="matrix(1,0,0,1,-4928,692) translate(152.81481481481478 31.833333333333332)"/><path d="M-4530 786a6 6 0 0 1 6-6h288a6 6 0 0 1 6 6v51.33a6 6 0 0 1-6 6h-288a6 6 0 0 1-6-6z" stroke="#000" stroke-opacity="0" fill="#fff" fill-opacity="0"/><use xlink:href="#q" transform="matrix(1,0,0,1,-4525,785) translate(0.07407407407407618 31.458333333333332)"/><use xlink:href="#r" transform="matrix(1,0,0,1,-4525,785) translate(112.5185185185185 31.458333333333332)"/><path d="M-4387.38 662.53l-1.6-3.68m-3.2-7.36l-3.2-7.38m-3.2-7.36l-3.2-7.36m-3.2-7.36l-3.2-7.37m-3.2-7.36l-3.2-7.35m-3.2-7.37l-3.2-7.36m-3.2-7.36l-3.2-7.36m-3.2-7.37l-3.22-7.36m-3.2-7.36l-3.2-7.36m-3.2-7.36l-3.2-7.36m-3.2-7.36l-3.2-7.37m-3.2-7.37l-3.2-7.36m-3.2-7.37l-3.2-7.36m-3.2-7.36l-3.2-7.36m-3.2-7.37l-3.2-7.36m-3.2-7.37l-3.22-7.37m-3.2-7.36l-3.2-7.36m-3.2-7.37l-3.2-7.36m-3.2-7.35l-1.6-3.68" stroke="#3a414a" stroke-width="2" fill="none"/><path d="M-4381.3 676.53l-9.93-11.23 8.5-3.7zM-4508.7 383.47l9.93 11.23-8.5 3.7z" stroke="#3a414a" stroke-width="2" fill="#3a414a"/><path d="M-4372.62 662.53l1.6-3.68m3.2-7.36l3.2-7.38m3.2-7.36l3.2-7.36m3.2-7.36l3.2-7.37m3.2-7.36l3.2-7.35m3.2-7.37l3.2-7.36m3.2-7.36l3.2-7.36m3.2-7.37l3.22-7.36m3.2-7.36l3.2-7.36m3.2-7.36l3.2-7.36m3.2-7.36l3.2-7.37m3.2-7.37l3.2-7.36m3.2-7.37l3.2-7.36m3.2-7.36l3.2-7.36m3.2-7.37l3.2-7.36m3.2-7.37l3.22-7.37m3.2-7.36l3.2-7.36m3.2-7.37l3.2-7.36m3.2-7.35l1.6-3.68" stroke="#3a414a" stroke-width="2" fill="none"/><path d="M-4378.7 676.53l1.43-14.93 8.5 3.7zM-4251.3 383.47l-1.43 14.93-8.5-3.7z" stroke="#3a414a" stroke-width="2" fill="#3a414a"/><path d="M-4269.77 669.5l3.4-2.18m6.78-4.36l6.8-4.36m6.78-4.36l6.78-4.36m6.8-4.36l6.77-4.36m6.78-4.36l6.8-4.36m6.78-4.36l6.8-4.36m6.77-4.35l6.8-4.36m6.77-4.35l6.8-4.36m6.77-4.37l6.78-4.36m6.78-4.36l6.78-4.35m6.8-4.36l6.77-4.37m6.8-4.36l6.78-4.36m6.8-4.35l6.77-4.35m6.78-4.36l6.8-4.36m6.77-4.36l6.8-4.36m6.77-4.36l6.8-4.36m6.77-4.36l6.8-4.36m6.77-4.36l6.8-4.36m6.78-4.36l6.78-4.36m6.8-4.36l6.77-4.36m6.8-4.36l6.77-4.35m6.78-4.36l6.8-4.37m6.77-4.36l6.8-4.36m6.77-4.35l6.8-4.36m6.77-4.37l6.78-4.36m6.78-4.36l6.78-4.35m6.8-4.36l6.77-4.37m6.8-4.36l6.78-4.35m6.8-4.36l6.77-4.36m6.8-4.36l6.77-4.36m6.8-4.36l6.77-4.36m6.77-4.36l6.8-4.36m6.77-4.36l3.4-2.18" stroke="#3a414a" stroke-width="2" fill="none"/><path d="M-4282.6 677.75l9.5-11.6 5 7.8zM-3822.72 382.25l-9.5 11.6-5-7.8z" stroke="#3a414a" stroke-width="2" fill="#3a414a"/><path d="M-4482.72 669.46l-3.37-2.18m-6.74-4.36l-6.74-4.35m-6.75-4.36l-6.75-4.35m-6.74-4.36l-6.75-4.37m-6.74-4.36l-6.76-4.35m-6.75-4.36l-6.75-4.36m-6.75-4.36l-6.74-4.36m-6.75-4.36l-6.74-4.35m-6.74-4.36l-6.75-4.35m-6.74-4.36l-6.75-4.37m-6.75-4.35l-6.74-4.36m-6.76-4.36l-6.74-4.36m-6.75-4.36l-6.75-4.35m-6.74-4.37l-6.75-4.36m-6.73-4.36l-6.75-4.35m-6.75-4.36l-6.74-4.36m-6.75-4.36l-6.74-4.36m-6.75-4.36l-6.76-4.36m-6.74-4.35l-6.75-4.36m-6.74-4.37l-6.74-4.36m-6.74-4.36l-6.75-4.34m-6.75-4.36l-6.74-4.36m-6.75-4.36l-6.74-4.36m-6.76-4.35l-6.75-4.36m-6.75-4.35l-6.75-4.36m-6.74-4.37l-6.75-4.36m-6.74-4.35l-6.74-4.36m-6.75-4.36l-6.74-4.36m-6.75-4.36l-6.74-4.35m-6.75-4.36l-6.76-4.36m-6.74-4.35l-6.75-4.36m-6.74-4.37l-6.74-4.35m-6.75-4.36l-3.36-2.18" stroke="#3a414a" stroke-width="2" fill="none"/><path d="M-4469.9 677.74l-14.5-3.84 5.03-7.8zM-4927.28 382.26l14.5 3.84-5.03 7.8z" stroke="#3a414a" stroke-width="2" fill="#3a414a"/><path d="M-4797.85 662.74l-1.72-3.68m-3.45-7.38l-3.46-7.37m-3.45-7.37l-3.45-7.37m-3.46-7.38l-3.45-7.37m-3.44-7.37l-3.46-7.37m-3.45-7.38l-3.45-7.37m-3.45-7.37l-3.46-7.37m-3.46-7.37l-3.45-7.4m-3.47-7.36l-3.45-7.38m-3.45-7.37l-3.46-7.4m-3.45-7.36l-3.45-7.38m-3.46-7.37l-3.44-7.4m-3.45-7.36l-3.44-7.38m-3.46-7.37l-3.45-7.38m-3.45-7.38l-3.46-7.37m-3.45-7.38l-3.46-7.38m-3.46-7.38l-3.45-7.37m-3.45-7.38l-3.45-7.38m-3.46-7.38l-1.72-3.68" stroke="#3a414a" stroke-width="2" fill="none"/><path d="M-4791.37 676.57l-10.25-10.96 8.4-3.92zM-4928.63 383.43l10.25 10.95-8.4 3.94z" stroke="#3a414a" stroke-width="2" fill="#3a414a"/><path d="M-4545.44 673.74l-3.65-1.66m-7.3-3.32l-7.3-3.32m-7.28-3.32l-7.3-3.32m-7.3-3.32l-7.3-3.32m-7.3-3.32l-7.3-3.33m-7.3-3.3l-7.3-3.33m-7.3-3.32l-7.3-3.32m-7.3-3.32l-7.3-3.3m-7.3-3.33l-7.3-3.32m-7.3-3.32l-7.3-3.32m-7.3-3.3l-7.3-3.33m-7.3-3.32l-7.3-3.33m-7.3-3.3l-7.3-3.34m-7.28-3.32l-7.3-3.32m-7.3-3.32l-7.3-3.32m-7.3-3.32l-7.3-3.32m-7.3-3.32l-7.3-3.32m-7.3-3.32l-7.3-3.32m-7.3-3.32l-7.3-3.32m-7.3-3.32l-7.3-3.33m-7.3-3.33l-7.3-3.32m-7.3-3.32l-7.3-3.32m-7.3-3.3l-7.3-3.33m-7.3-3.32l-7.28-3.32m-7.3-3.32l-7.3-3.3m-7.3-3.33l-7.3-3.32m-7.3-3.32l-7.3-3.33m-7.3-3.32l-7.3-3.32m-7.3-3.32l-7.3-3.32m-7.3-3.32l-7.3-3.32m-7.3-3.32l-7.3-3.32m-7.3-3.32l-7.3-3.32m-7.3-3.32l-7.3-3.32m-7.3-3.32l-7.3-3.32m-7.3-3.33l-7.28-3.33m-7.3-3.32l-7.3-3.32m-7.3-3.32l-7.3-3.3m-7.3-3.33l-7.3-3.32m-7.3-3.32l-7.3-3.32m-7.3-3.3l-7.3-3.33m-7.3-3.32l-7.3-3.32m-7.3-3.32l-7.3-3.32m-7.3-3.32l-7.3-3.32m-7.3-3.32l-3.64-1.66" stroke="#3a414a" stroke-width="2" fill="none"/><path d="M-4531.54 680.06l-14.9-1.7 3.83-8.42zM-5187.05 381.84l14.9 1.7-3.84 8.43z" stroke="#3a414a" stroke-width="2" fill="#3a414a"/><path d="M-4884.5 666.85l-2.92-2.74m-5.84-5.46l-5.84-5.48m-5.84-5.47l-5.84-5.5m-5.84-5.46l-5.84-5.47m-5.84-5.48l-5.84-5.48m-5.84-5.48l-5.84-5.47m-5.84-5.47l-5.84-5.48m-5.84-5.47l-5.84-5.47m-5.84-5.48l-5.84-5.47m-5.84-5.48l-5.84-5.47m-5.84-5.47l-5.84-5.47m-5.84-5.47l-5.84-5.48m-5.84-5.47l-5.84-5.46m-5.84-5.48l-5.84-5.47m-5.84-5.48l-5.84-5.48m-5.84-5.47l-5.84-5.48m-5.84-5.48l-5.84-5.47m-5.84-5.48l-5.84-5.47m-5.84-5.48l-5.84-5.47m-5.84-5.47l-5.84-5.48m-5.84-5.47l-5.84-5.48m-5.84-5.47l-5.84-5.47m-5.84-5.47l-5.84-5.47m-5.84-5.47l-5.84-5.5m-5.84-5.46l-5.84-5.48m-5.84-5.47l-2.92-2.75" stroke="#3a414a" stroke-width="2" fill="none"/><path d="M-4873.36 677.3l-13.58-6.4 6.34-6.75zM-5187.64 382.7l13.58 6.4-6.34 6.75z" stroke="#3a414a" stroke-width="2" fill="#3a414a"/><path d="M-4214.56 673.74l3.65-1.66m7.3-3.32l7.3-3.32m7.28-3.32l7.3-3.32m7.3-3.32l7.3-3.32m7.3-3.32l7.3-3.33m7.3-3.3l7.3-3.33m7.3-3.32l7.3-3.32m7.3-3.32l7.3-3.3m7.3-3.33l7.3-3.32m7.3-3.32l7.3-3.32m7.3-3.3l7.3-3.33m7.3-3.32l7.3-3.33m7.3-3.3l7.3-3.34m7.28-3.32l7.3-3.32m7.3-3.32l7.3-3.32m7.3-3.32l7.3-3.32m7.3-3.32l7.3-3.32m7.3-3.32l7.3-3.32m7.3-3.32l7.3-3.32m7.3-3.32l7.3-3.33m7.3-3.33l7.3-3.32m7.3-3.32l7.3-3.32m7.3-3.3l7.3-3.33m7.3-3.32l7.28-3.32m7.3-3.32l7.3-3.3m7.3-3.33l7.3-3.32m7.3-3.32l7.3-3.33m7.3-3.32l7.3-3.32m7.3-3.32l7.3-3.32m7.3-3.32l7.3-3.32m7.3-3.32l7.3-3.32m7.3-3.32l7.3-3.32m7.3-3.32l7.3-3.32m7.3-3.32l7.3-3.32m7.3-3.33l7.3-3.33m7.28-3.32l7.3-3.32m7.3-3.32l7.3-3.3m7.3-3.33l7.3-3.32m7.3-3.32l7.3-3.32m7.3-3.3l7.3-3.33m7.3-3.32l7.3-3.32m7.3-3.32l7.3-3.32m7.3-3.32l7.3-3.32m7.3-3.32l3.64-1.66" stroke="#3a414a" stroke-width="2" fill="none"/><path d="M-4228.46 680.06l11.07-10.12 3.85 8.43zM-3572.95 381.84l-11.06 10.13-3.85-8.44z" stroke="#3a414a" stroke-width="2" fill="#3a414a"/><path d="M-4250 241V125a6 6 0 0 1 6-6h542.34a6 6 0 0 1 6 6v88.38" stroke="#3a414a" stroke-width="2" fill="none"/><path d="M-4250 256.26l-4.64-14.26h9.28z" stroke="#3a414a" stroke-width="2" fill="#3a414a"/><path d="M-3695.66 213.36v1.02M-4428.72 95.67l37.44 48.67" stroke="#3a414a" stroke-width="2" fill="none"/><path d="M-4438.03 83.56l12.38 8.5-7.35 5.64zM-4381.97 156.44l-12.38-8.5 7.35-5.64z" stroke="#3a414a" stroke-width="2" fill="#3a414a"/><path d="M-4560 45a6 6 0 0 1 6-6h228a6 6 0 0 1 6 6v30a6 6 0 0 1-6 6h-228a6 6 0 0 1-6-6z" stroke="#000" stroke-opacity="0" fill="#fff" fill-opacity="0"/><use xlink:href="#s" transform="matrix(1,0,0,1,-4555,44) translate(33.703703703703724 23.333333333333332)"/><use xlink:href="#t" transform="matrix(1,0,0,1,-4555,44) translate(109.03703703703704 23.333333333333332)"/><path d="M-3960.7 662.96c0 .55-.45 1-1 1-.56 0-1-.45-1-1s.44-1 1-1c.55 0 1 .45 1 1zm1.8-3.6c0 .56-.45 1-1 1s-1-.44-1-1c0-.54.45-1 1-1s1 .46 1 1zm1.8-3.6c0 .57-.45 1-1 1s-1-.43-1-1c0-.54.45-1 1-1s1 .46 1 1zm1.8-3.58c0 .55-.44 1-1 1-.55 0-1-.45-1-1s.45-1 1-1c.56 0 1 .45 1 1zm1.8-3.6c0 .56-.44 1-1 1-.55 0-1-.44-1-1 0-.54.45-1 1-1 .56 0 1 .46 1 1zm1.8-3.6c0 .57-.44 1-1 1-.54 0-1-.43-1-1 0-.54.46-1 1-1 .56 0 1 .46 1 1zm1.8-3.58c0 .55-.43 1-1 1-.54 0-1-.45-1-1s.46-1 1-1c.57 0 1 .45 1 1zm1.82-3.6c0 .56-.45 1-1 1-.56 0-1-.44-1-1 0-.54.44-1 1-1 .55 0 1 .46 1 1zm1.8-3.6c0 .57-.45 1-1 1s-1-.43-1-1c0-.54.45-1 1-1s1 .46 1 1zm1.8-3.58c0 .55-.45 1-1 1s-1-.45-1-1 .45-1 1-1 1 .45 1 1zm1.8-3.6c0 .56-.44 1-1 1-.55 0-1-.44-1-1 0-.55.45-1 1-1 .56 0 1 .45 1 1zm1.8-3.6c0 .57-.44 1-1 1-.55 0-1-.43-1-1 0-.54.45-1 1-1 .56 0 1 .46 1 1zm1.8-3.58c0 .55-.44 1-1 1-.54 0-1-.45-1-1s.46-1 1-1c.56 0 1 .45 1 1zm1.8-3.6c0 .56-.43 1-1 1-.54 0-1-.44-1-1 0-.55.46-1 1-1 .57 0 1 .45 1 1zm1.82-3.6c0 .57-.45 1-1 1-.56 0-1-.43-1-1 0-.54.44-1 1-1 .55 0 1 .46 1 1zm1.8-3.58c0 .55-.45 1-1 1s-1-.45-1-1 .45-1 1-1 1 .45 1 1zm1.8-3.6c0 .56-.45 1-1 1s-1-.44-1-1c0-.55.45-1 1-1s1 .45 1 1zm1.8-3.6c0 .56-.44 1-1 1-.55 0-1-.44-1-1 0-.54.45-1 1-1 .56 0 1 .46 1 1zm1.8-3.58c0 .55-.44 1-1 1-.54 0-1-.45-1-1s.46-1 1-1c.56 0 1 .45 1 1zm1.8-3.6c0 .56-.44 1-1 1-.54 0-1-.44-1-1 0-.55.46-1 1-1 .56 0 1 .45 1 1zm1.8-3.6c0 .56-.43 1-1 1-.54 0-1-.44-1-1 0-.54.46-1 1-1 .57 0 1 .46 1 1zm1.82-3.58c0 .55-.45 1-1 1-.56 0-1-.45-1-1s.44-1 1-1c.55 0 1 .45 1 1zm1.8-3.6c0 .56-.45 1-1 1s-1-.44-1-1c0-.55.45-1 1-1s1 .45 1 1zm1.8-3.6c0 .56-.45 1-1 1s-1-.44-1-1c0-.54.45-1 1-1s1 .46 1 1zm1.8-3.58c0 .55-.44 1-1 1-.55 0-1-.45-1-1 0-.56.45-1 1-1 .56 0 1 .44 1 1zm1.8-3.6c0 .55-.44 1-1 1-.55 0-1-.45-1-1s.45-1 1-1c.56 0 1 .45 1 1zm1.8-3.6c0 .56-.44 1-1 1-.54 0-1-.44-1-1 0-.54.46-1 1-1 .56 0 1 .46 1 1zm1.8-3.58c0 .55-.44 1-1 1-.54 0-1-.45-1-1 0-.56.46-1 1-1 .56 0 1 .44 1 1zm1.82-3.6c0 .55-.45 1-1 1-.56 0-1-.45-1-1s.44-1 1-1c.55 0 1 .45 1 1zm1.8-3.6c0 .56-.45 1-1 1s-1-.44-1-1c0-.54.45-1 1-1s1 .46 1 1zm1.8-3.6c0 .57-.45 1-1 1s-1-.43-1-1c0-.54.45-1 1-1s1 .46 1 1zm1.8-3.58c0 .55-.44 1-1 1-.55 0-1-.45-1-1s.45-1 1-1c.56 0 1 .45 1 1zm1.8-3.6c0 .56-.44 1-1 1-.55 0-1-.44-1-1 0-.54.45-1 1-1 .56 0 1 .46 1 1zm1.8-3.6c0 .57-.44 1-1 1-.54 0-1-.43-1-1 0-.54.46-1 1-1 .56 0 1 .46 1 1zm1.8-3.58c0 .55-.44 1-1 1-.54 0-1-.45-1-1s.46-1 1-1c.56 0 1 .45 1 1zm1.8-3.6c0 .56-.43 1-1 1-.54 0-1-.44-1-1 0-.54.46-1 1-1 .57 0 1 .46 1 1zm1.82-3.6c0 .57-.45 1-1 1s-1-.43-1-1c0-.54.45-1 1-1s1 .46 1 1zm1.8-3.58c0 .55-.45 1-1 1s-1-.45-1-1 .45-1 1-1 1 .45 1 1zm1.8-3.6c0 .56-.45 1-1 1s-1-.44-1-1c0-.55.45-1 1-1s1 .45 1 1zm1.8-3.6c0 .57-.44 1-1 1-.55 0-1-.43-1-1 0-.54.45-1 1-1 .56 0 1 .46 1 1zm1.8-3.58c0 .55-.44 1-1 1-.54 0-1-.45-1-1s.46-1 1-1c.56 0 1 .45 1 1zm1.8-3.6c0 .56-.44 1-1 1-.54 0-1-.44-1-1 0-.55.46-1 1-1 .56 0 1 .45 1 1zm1.8-3.6c0 .56-.43 1-1 1-.54 0-1-.44-1-1 0-.54.46-1 1-1 .57 0 1 .46 1 1zm1.82-3.58c0 .55-.45 1-1 1-.56 0-1-.45-1-1s.44-1 1-1c.55 0 1 .45 1 1zm1.8-3.6c0 .56-.45 1-1 1s-1-.44-1-1c0-.55.45-1 1-1s1 .45 1 1zm1.8-3.6c0 .56-.45 1-1 1s-1-.44-1-1c0-.54.45-1 1-1s1 .46 1 1zm1.8-3.58c0 .55-.44 1-1 1-.55 0-1-.45-1-1 0-.56.45-1 1-1 .56 0 1 .44 1 1zm1.8-3.6c0 .56-.44 1-1 1-.54 0-1-.44-1-1 0-.55.46-1 1-1 .56 0 1 .45 1 1zm1.8-3.6c0 .56-.44 1-1 1-.54 0-1-.44-1-1 0-.54.46-1 1-1 .56 0 1 .46 1 1zm1.8-3.58c0 .55-.43 1-1 1-.54 0-1-.45-1-1 0-.56.46-1 1-1 .57 0 1 .44 1 1zm1.82-3.6c0 .56-.45 1-1 1-.56 0-1-.44-1-1 0-.55.44-1 1-1 .55 0 1 .45 1 1zm1.8-3.6c0 .56-.45 1-1 1s-1-.44-1-1c0-.54.45-1 1-1s1 .46 1 1zm1.8-3.58c0 .55-.45 1-1 1s-1-.45-1-1c0-.56.45-1 1-1s1 .44 1 1zm1.8-3.6c0 .56-.44 1-1 1-.55 0-1-.44-1-1 0-.55.45-1 1-1 .56 0 1 .45 1 1zm1.8-3.6c0 .56-.44 1-1 1-.55 0-1-.44-1-1 0-.54.45-1 1-1 .56 0 1 .46 1 1zm1.8-3.58c0 .55-.44 1-1 1-.54 0-1-.45-1-1 0-.56.46-1 1-1 .56 0 1 .44 1 1zm1.8-3.6c0 .55-.43 1-1 1-.54 0-1-.45-1-1s.46-1 1-1c.57 0 1 .45 1 1zm1.82-3.6c0 .56-.45 1-1 1-.56 0-1-.44-1-1 0-.54.44-1 1-1 .55 0 1 .46 1 1zm1.8-3.58c0 .55-.45 1-1 1s-1-.45-1-1c0-.56.45-1 1-1s1 .44 1 1zm1.8-3.6c0 .55-.45 1-1 1s-1-.45-1-1 .45-1 1-1 1 .45 1 1zm1.8-3.6c0 .56-.44 1-1 1-.55 0-1-.44-1-1 0-.54.45-1 1-1 .56 0 1 .46 1 1zm1.8-3.6c0 .57-.44 1-1 1-.55 0-1-.43-1-1 0-.54.45-1 1-1 .56 0 1 .46 1 1zm1.8-3.58c0 .55-.44 1-1 1-.54 0-1-.45-1-1s.46-1 1-1c.56 0 1 .45 1 1zm1.8-3.6c0 .56-.43 1-1 1-.54 0-1-.44-1-1 0-.55.46-1 1-1 .57 0 1 .45 1 1zm1.82-3.6c0 .57-.45 1-1 1-.56 0-1-.43-1-1 0-.54.44-1 1-1 .55 0 1 .46 1 1zm1.8-3.58c0 .55-.45 1-1 1s-1-.45-1-1 .45-1 1-1 1 .45 1 1zm1.8-3.6c0 .56-.45 1-1 1s-1-.44-1-1c0-.55.45-1 1-1s1 .45 1 1zm1.8-3.6c0 .56-.44 1-1 1-.55 0-1-.44-1-1 0-.54.45-1 1-1 .56 0 1 .46 1 1zm1.8-3.58c0 .55-.44 1-1 1-.55 0-1-.45-1-1s.45-1 1-1c.56 0 1 .45 1 1zm1.8-3.6c0 .56-.44 1-1 1-.54 0-1-.44-1-1 0-.55.46-1 1-1 .56 0 1 .45 1 1zm1.8-3.6c0 .56-.43 1-1 1-.54 0-1-.44-1-1 0-.54.46-1 1-1 .57 0 1 .46 1 1zm1.82-3.58c0 .55-.45 1-1 1-.56 0-1-.45-1-1s.44-1 1-1c.55 0 1 .45 1 1zm1.8-3.6c0 .56-.45 1-1 1s-1-.44-1-1c0-.55.45-1 1-1s1 .45 1 1zm1.8-3.6c0 .56-.45 1-1 1s-1-.44-1-1c0-.54.45-1 1-1s1 .46 1 1z" fill="#3a414a"/><path d="M-3968.55 676.6l2.26-14.82 8.3 4.15zM-3821.45 383.4l-2.26 14.82-8.3-4.16z" stroke="#3a414a" stroke-width="2" fill="#3a414a"/><path d="M-3850.03 666.3c0 .56-.45 1-1 1s-1-.44-1-1c0-.54.45-1 1-1s1 .46 1 1zm2.8-2.83c0 .55-.45 1-1 1-.56 0-1-.45-1-1 0-.56.44-1 1-1 .55 0 1 .44 1 1zm2.8-2.84c0 .55-.46 1-1 1-.57 0-1-.45-1-1s.43-1 1-1c.54 0 1 .45 1 1zm2.78-2.84c0 .54-.45 1-1 1s-1-.46-1-1c0-.56.45-1 1-1s1 .44 1 1zm2.8-2.85c0 .55-.46 1-1 1-.56 0-1-.45-1-1s.44-1 1-1c.54 0 1 .45 1 1zm2.78-2.84c0 .56-.44 1-1 1-.55 0-1-.44-1-1 0-.54.45-1 1-1 .56 0 1 .46 1 1zm2.8-2.83c0 .55-.45 1-1 1-.56 0-1-.45-1-1s.44-1 1-1c.55 0 1 .45 1 1zm2.8-2.84c0 .55-.46 1-1 1-.56 0-1-.45-1-1s.44-1 1-1c.54 0 1 .45 1 1zm2.78-2.84c0 .54-.44 1-1 1-.54 0-1-.46-1-1 0-.56.46-1 1-1 .56 0 1 .44 1 1zm2.8-2.85c0 .55-.44 1-1 1-.55 0-1-.45-1-1s.45-1 1-1c.56 0 1 .45 1 1zm2.8-2.84c0 .56-.45 1-1 1-.56 0-1-.44-1-1 0-.54.44-1 1-1 .55 0 1 .46 1 1zm2.8-2.83c0 .55-.46 1-1 1-.56 0-1-.45-1-1s.44-1 1-1c.54 0 1 .45 1 1zm2.78-2.84c0 .55-.45 1-1 1s-1-.45-1-1 .45-1 1-1 1 .45 1 1zm2.8-2.84c0 .54-.46 1-1 1-.56 0-1-.46-1-1 0-.56.44-1 1-1 .54 0 1 .44 1 1zm2.78-2.85c0 .55-.44 1-1 1-.55 0-1-.45-1-1s.45-1 1-1c.56 0 1 .45 1 1zm2.8-2.84c0 .56-.45 1-1 1-.56 0-1-.44-1-1 0-.54.44-1 1-1 .55 0 1 .46 1 1zm2.8-2.83c0 .55-.46 1-1 1-.56 0-1-.45-1-1s.44-1 1-1c.54 0 1 .45 1 1zm2.78-2.84c0 .55-.45 1-1 1s-1-.45-1-1 .45-1 1-1 1 .45 1 1zm2.8-2.84c0 .54-.45 1-1 1-.56 0-1-.46-1-1 0-.56.44-1 1-1 .55 0 1 .44 1 1zm2.8-2.85c0 .55-.46 1-1 1-.57 0-1-.45-1-1s.43-1 1-1c.54 0 1 .45 1 1zm2.78-2.84c0 .57-.45 1-1 1-.56 0-1-.43-1-1 0-.54.44-1 1-1 .55 0 1 .46 1 1zm2.8-2.83c0 .56-.46 1-1 1-.56 0-1-.44-1-1 0-.55.44-1 1-1 .54 0 1 .45 1 1zm2.78-2.84c0 .55-.45 1-1 1s-1-.45-1-1 .45-1 1-1 1 .45 1 1zm2.8-2.84c0 .55-.45 1-1 1-.56 0-1-.45-1-1 0-.56.44-1 1-1 .55 0 1 .44 1 1zm2.8-2.85c0 .56-.46 1-1 1-.57 0-1-.44-1-1 0-.55.43-1 1-1 .54 0 1 .45 1 1zm2.78-2.84c0 .57-.45 1-1 1s-1-.43-1-1c0-.54.45-1 1-1s1 .46 1 1zm2.8-2.83c0 .56-.46 1-1 1-.56 0-1-.44-1-1 0-.55.44-1 1-1 .54 0 1 .45 1 1zm2.78-2.84c0 .56-.45 1-1 1s-1-.44-1-1c0-.55.45-1 1-1s1 .45 1 1zm2.8-2.84c0 .55-.45 1-1 1-.56 0-1-.45-1-1 0-.56.44-1 1-1 .55 0 1 .44 1 1zm2.8-2.84c0 .55-.46 1-1 1-.57 0-1-.45-1-1 0-.56.43-1 1-1 .54 0 1 .44 1 1zm2.78-2.85c0 .57-.45 1-1 1s-1-.43-1-1c0-.54.45-1 1-1s1 .46 1 1zm2.8-2.82c0 .55-.46 1-1 1-.56 0-1-.45-1-1 0-.56.44-1 1-1 .54 0 1 .44 1 1zm2.78-2.84c0 .55-.44 1-1 1-.55 0-1-.45-1-1 0-.56.45-1 1-1 .56 0 1 .44 1 1zm2.8-2.84c0 .55-.45 1-1 1-.56 0-1-.45-1-1 0-.56.44-1 1-1 .55 0 1 .44 1 1zm2.8-2.84c0 .55-.46 1-1 1-.56 0-1-.45-1-1 0-.56.44-1 1-1 .54 0 1 .44 1 1zm2.78-2.84c0 .55-.45 1-1 1s-1-.45-1-1c0-.56.45-1 1-1s1 .44 1 1zm2.8-2.84c0 .55-.45 1-1 1-.56 0-1-.45-1-1 0-.56.44-1 1-1 .55 0 1 .44 1 1zm2.78-2.84c0 .55-.44 1-1 1-.55 0-1-.45-1-1 0-.56.45-1 1-1 .56 0 1 .44 1 1zm2.8-2.84c0 .55-.45 1-1 1s-1-.45-1-1 .45-1 1-1 1 .45 1 1zm2.8-2.84c0 .55-.46 1-1 1-.56 0-1-.45-1-1s.44-1 1-1c.54 0 1 .45 1 1zm2.78-2.84c0 .55-.45 1-1 1s-1-.45-1-1 .45-1 1-1 1 .45 1 1zm2.8-2.84c0 .55-.45 1-1 1-.56 0-1-.45-1-1s.44-1 1-1c.55 0 1 .45 1 1zm2.8-2.84c0 .55-.46 1-1 1-.57 0-1-.45-1-1s.43-1 1-1c.54 0 1 .45 1 1zm2.78-2.84c0 .55-.45 1-1 1s-1-.45-1-1 .45-1 1-1 1 .45 1 1zm2.8-2.84c0 .55-.46 1-1 1-.56 0-1-.45-1-1s.44-1 1-1c.54 0 1 .45 1 1zm2.78-2.84c0 .55-.44 1-1 1-.55 0-1-.45-1-1s.45-1 1-1c.56 0 1 .45 1 1zm2.8-2.84c0 .55-.45 1-1 1-.56 0-1-.45-1-1s.44-1 1-1c.55 0 1 .45 1 1zm2.8-2.84c0 .55-.46 1-1 1-.56 0-1-.45-1-1s.44-1 1-1c.54 0 1 .45 1 1zm2.78-2.84c0 .55-.45 1-1 1s-1-.45-1-1 .45-1 1-1 1 .45 1 1zm2.8-2.84c0 .55-.46 1-1 1-.56 0-1-.45-1-1s.44-1 1-1c.54 0 1 .45 1 1zm2.78-2.84c0 .55-.44 1-1 1-.55 0-1-.45-1-1s.45-1 1-1c.56 0 1 .45 1 1zm2.8-2.84c0 .55-.45 1-1 1-.56 0-1-.45-1-1s.44-1 1-1c.55 0 1 .45 1 1zm2.8-2.84c0 .55-.46 1-1 1-.56 0-1-.45-1-1s.44-1 1-1c.54 0 1 .45 1 1zm2.78-2.84c0 .55-.45 1-1 1s-1-.45-1-1 .45-1 1-1 1 .45 1 1zm2.8-2.84c0 .55-.45 1-1 1-.56 0-1-.45-1-1s.44-1 1-1c.55 0 1 .45 1 1zm2.8-2.84c0 .55-.46 1-1 1-.57 0-1-.45-1-1s.43-1 1-1c.54 0 1 .45 1 1zm2.78-2.84c0 .55-.45 1-1 1s-1-.45-1-1 .45-1 1-1 1 .45 1 1zm2.8-2.84c0 .56-.46 1-1 1-.56 0-1-.44-1-1 0-.55.44-1 1-1 .54 0 1 .45 1 1zm2.78-2.84c0 .55-.45 1-1 1s-1-.45-1-1 .45-1 1-1 1 .45 1 1zm2.8-2.84c0 .56-.45 1-1 1-.56 0-1-.44-1-1 0-.55.44-1 1-1 .55 0 1 .45 1 1zm2.8-2.84c0 .56-.46 1-1 1-.57 0-1-.44-1-1 0-.55.43-1 1-1 .54 0 1 .45 1 1zm2.78-2.84c0 .56-.45 1-1 1s-1-.44-1-1c0-.55.45-1 1-1s1 .45 1 1zm2.8-2.84c0 .56-.46 1-1 1-.56 0-1-.44-1-1 0-.55.44-1 1-1 .54 0 1 .45 1 1zm2.78-2.84c0 .56-.44 1-1 1-.55 0-1-.44-1-1 0-.55.45-1 1-1 .56 0 1 .45 1 1zm2.8-2.84c0 .56-.45 1-1 1-.56 0-1-.44-1-1 0-.55.44-1 1-1 .55 0 1 .45 1 1zm2.8-2.84c0 .56-.46 1-1 1-.56 0-1-.44-1-1 0-.55.44-1 1-1 .54 0 1 .45 1 1zm2.78-2.84c0 .56-.45 1-1 1s-1-.44-1-1c0-.55.45-1 1-1s1 .45 1 1zm2.8-2.83c0 .55-.45 1-1 1-.56 0-1-.45-1-1 0-.56.44-1 1-1 .55 0 1 .44 1 1zm2.78-2.85c0 .56-.44 1-1 1-.55 0-1-.44-1-1 0-.55.45-1 1-1 .56 0 1 .45 1 1zm2.8-2.83c0 .55-.45 1-1 1s-1-.45-1-1c0-.56.45-1 1-1s1 .44 1 1zm2.8-2.84c0 .55-.46 1-1 1-.56 0-1-.45-1-1 0-.56.44-1 1-1 .54 0 1 .44 1 1zm2.78-2.84c0 .54-.45 1-1 1s-1-.46-1-1c0-.57.45-1 1-1s1 .43 1 1zm2.8-2.85c0 .55-.45 1-1 1-.56 0-1-.45-1-1 0-.56.44-1 1-1 .55 0 1 .44 1 1zm2.8-2.84c0 .56-.46 1-1 1-.57 0-1-.44-1-1 0-.55.43-1 1-1 .54 0 1 .45 1 1zm2.78-2.83c0 .55-.45 1-1 1s-1-.45-1-1c0-.56.45-1 1-1s1 .44 1 1zm2.8-2.84c0 .55-.46 1-1 1-.56 0-1-.45-1-1 0-.56.44-1 1-1 .54 0 1 .44 1 1zm2.78-2.84c0 .54-.44 1-1 1-.55 0-1-.46-1-1 0-.56.45-1 1-1 .56 0 1 .44 1 1zm2.8-2.85c0 .55-.45 1-1 1-.56 0-1-.45-1-1s.44-1 1-1c.55 0 1 .45 1 1zm2.8-2.84c0 .56-.46 1-1 1-.57 0-1-.44-1-1 0-.54.43-1 1-1 .54 0 1 .46 1 1zm2.78-2.83c0 .55-.45 1-1 1s-1-.45-1-1 .45-1 1-1 1 .45 1 1zm2.8-2.84c0 .55-.46 1-1 1-.56 0-1-.45-1-1s.44-1 1-1c.54 0 1 .45 1 1zm2.78-2.84c0 .54-.44 1-1 1-.55 0-1-.46-1-1 0-.56.45-1 1-1 .56 0 1 .44 1 1zm2.8-2.85c0 .55-.45 1-1 1-.56 0-1-.45-1-1s.44-1 1-1c.55 0 1 .45 1 1zm2.8-2.84c0 .56-.46 1-1 1-.56 0-1-.44-1-1 0-.54.44-1 1-1 .54 0 1 .46 1 1zm2.78-2.83c0 .55-.45 1-1 1s-1-.45-1-1 .45-1 1-1 1 .45 1 1zm2.8-2.84c0 .55-.46 1-1 1-.56 0-1-.45-1-1s.44-1 1-1c.54 0 1 .45 1 1zm2.78-2.84c0 .54-.44 1-1 1-.55 0-1-.46-1-1 0-.56.45-1 1-1 .56 0 1 .44 1 1zm2.8-2.85c0 .55-.45 1-1 1-.56 0-1-.45-1-1s.44-1 1-1c.55 0 1 .45 1 1zm2.8-2.84c0 .56-.46 1-1 1-.56 0-1-.44-1-1 0-.54.44-1 1-1 .54 0 1 .46 1 1zm2.78-2.83c0 .55-.45 1-1 1s-1-.45-1-1 .45-1 1-1 1 .45 1 1zm2.8-2.84c0 .55-.45 1-1 1-.56 0-1-.45-1-1s.44-1 1-1c.55 0 1 .45 1 1zm2.8-2.84c0 .54-.46 1-1 1-.57 0-1-.46-1-1 0-.56.43-1 1-1 .54 0 1 .44 1 1zm2.78-2.85c0 .55-.45 1-1 1s-1-.45-1-1 .45-1 1-1 1 .45 1 1zm2.8-2.84c0 .56-.46 1-1 1-.56 0-1-.44-1-1 0-.54.44-1 1-1 .54 0 1 .46 1 1zm2.78-2.83c0 .55-.44 1-1 1-.55 0-1-.45-1-1s.45-1 1-1c.56 0 1 .45 1 1zm2.8-2.84c0 .56-.45 1-1 1-.56 0-1-.44-1-1 0-.55.44-1 1-1 .55 0 1 .45 1 1zm2.8-2.84c0 .55-.46 1-1 1-.56 0-1-.45-1-1 0-.56.44-1 1-1 .54 0 1 .44 1 1z" fill="#3a414a"/><path d="M-3861.73 677.2l6.7-13.43 6.6 6.5zM-3572.27 382.8l-6.7 13.43-6.6-6.5z" stroke="#3a414a" stroke-width="2" fill="#3a414a"/><path d="M-3659 775h32.88M-3658.97 775h-1.03" stroke="#3a414a" stroke-width="2" fill="none"/><path d="M-3610.86 775l-14.26 4.63v-9.26z" stroke="#3a414a" stroke-width="2" fill="#3a414a"/><path d="M-3659 815h4.1m8.23 0h8.22m8.22 0h4.1M-3658.97 815h-1.03" stroke="#3a414a" stroke-width="2" fill="none"/><path d="M-3610.86 815l-14.26 4.63v-9.26z" stroke="#3a414a" stroke-width="2" fill="#3a414a"/><path d="M-3658 848.33c0 .56-.45 1-1 1s-1-.44-1-1c0-.55.45-1 1-1s1 .45 1 1zm4.1 0c0 .56-.44 1-1 1-.54 0-1-.44-1-1 0-.55.46-1 1-1 .56 0 1 .45 1 1zm4.12 0c0 .56-.45 1-1 1s-1-.44-1-1c0-.55.45-1 1-1s1 .45 1 1zm4.1 0c0 .56-.44 1-1 1-.54 0-1-.44-1-1 0-.55.46-1 1-1 .56 0 1 .45 1 1zm4.12 0c0 .56-.45 1-1 1s-1-.44-1-1c0-.55.45-1 1-1s1 .45 1 1zm4.1 0c0 .56-.44 1-1 1-.54 0-1-.44-1-1 0-.55.46-1 1-1 .56 0 1 .45 1 1zm4.12 0c0 .56-.45 1-1 1s-1-.44-1-1c0-.55.45-1 1-1s1 .45 1 1zm4.1 0c0 .56-.44 1-1 1-.54 0-1-.44-1-1 0-.55.46-1 1-1 .56 0 1 .45 1 1z" fill="#3a414a"/><path d="M-3658.97 848.33h-1.03" stroke="#3a414a" stroke-width="2" fill="none"/><path d="M-3610.86 848.33l-14.26 4.64v-9.27z" stroke="#3a414a" stroke-width="2" fill="#3a414a"/><path d="M-3607.62 766a6 6 0 0 1 6-6h92.76a6 6 0 0 1 6 6v18a6 6 0 0 1-6 6h-92.76a6 6 0 0 1-6-6z" stroke="#000" stroke-opacity="0" fill="#fff" fill-opacity="0"/><use xlink:href="#u" transform="matrix(1,0,0,1,-3602.6190476190477,765) translate(0 15.999999999999998)"/><path d="M-3607.62 839.33a6 6 0 0 1 6-6H-3446a6 6 0 0 1 6 6v18a6 6 0 0 1-6 6h-155.62a6 6 0 0 1-6-6z" stroke="#000" stroke-opacity="0" fill="#fff" fill-opacity="0"/><use xlink:href="#v" transform="matrix(1,0,0,1,-3602.6190476190477,838.3333333333334) translate(0 15.999999999999998)"/><path d="M-3607.62 806a6 6 0 0 1 6-6h113.7a6 6 0 0 1 6 6v18a6 6 0 0 1-6 6h-113.7a6 6 0 0 1-6-6z" stroke="#000" stroke-opacity="0" fill="#fff" fill-opacity="0"/><use xlink:href="#w" transform="matrix(1,0,0,1,-3602.6190476190473,805) translate(0 15.999999999999998)"/><path d="M-3694.76 572a12 12 0 0 1 12-12h276a12 12 0 0 1 12 12v156a12 12 0 0 1-12 12h-276a12 12 0 0 1-12-12z" stroke="#000" stroke-opacity="0" stroke-width="2" fill-opacity="0"/><path d="M-3635.14 632.4c0 7.05-5.72 12.77-12.78 12.77-7.05 0-12.77-5.72-12.77-12.77 0-7.06 5.73-12.78 12.78-12.78 7.06 0 12.78 5.72 12.78 12.78z" stroke="#000" stroke-opacity=".25" fill="#cfe4ff"/><path d="M-3635.14 666.75c0 7.06-5.72 12.78-12.78 12.78-7.05 0-12.77-5.72-12.77-12.78 0-7.05 5.73-12.77 12.78-12.77 7.06 0 12.78 5.72 12.78 12.77z" stroke="#000" stroke-opacity=".25" fill="#ffdda6"/><path d="M-3635.14 701.1c0 7.06-5.72 12.78-12.78 12.78-7.05 0-12.77-5.72-12.77-12.78 0-7.05 5.73-12.77 12.78-12.77 7.06 0 12.78 5.72 12.78 12.77z" stroke="#000" stroke-opacity=".25" fill="#dedeff"/><g><use xlink:href="#x" transform="matrix(1,0,0,1,-3660.6925041309896,585.5520504731861) translate(0 17.044444444444444)"/></g><g><use xlink:href="#y" transform="matrix(1,0,0,1,-3622.3644284212105,653.97476340694) translate(0 17.044444444444444)"/><use xlink:href="#z" transform="matrix(1,0,0,1,-3622.3644284212105,653.97476340694) translate(53.75740740740739 17.044444444444444)"/></g><g><use xlink:href="#A" transform="matrix(1,0,0,1,-3622.3644284212105,688.3280757097791) translate(0 16.177777777777774)"/><use xlink:href="#B" transform="matrix(1,0,0,1,-3622.3644284212105,688.3280757097791) translate(0 42.871111111111105)"/></g><g><use xlink:href="#y" transform="matrix(1,0,0,1,-3622.3644284212105,619.621451104101) translate(0 17.044444444444444)"/><use xlink:href="#C" transform="matrix(1,0,0,1,-3622.3644284212105,619.621451104101) translate(53.75740740740739 17.044444444444444)"/></g><path d="M-3820 241v-20.62a6 6 0 0 1 6-6h238a6 6 0 0 1 6 6V241" stroke="#3a414a" stroke-width="2" fill="none"/><path d="M-3820 256.26l-4.64-14.26h9.28zM-3570 256.26l-4.64-14.26h9.28z" stroke="#3a414a" stroke-width="2" fill="#3a414a"/><defs><path d="M212-179c-10-28-35-45-73-45-59 0-87 40-87 99 0 60 29 101 89 101 43 0 62-24 78-52l27 14C228-24 195 4 139 4 59 4 22-46 18-125c-6-104 99-153 187-111 19 9 31 26 39 46" id="D"/><path d="M100-194c62-1 85 37 85 99 1 63-27 99-86 99S16-35 15-95c0-66 28-99 85-99zM99-20c44 1 53-31 53-75 0-43-8-75-51-75s-53 32-53 75 10 74 51 75" id="E"/><path d="M114-163C36-179 61-72 57 0H25l-1-190h30c1 12-1 29 2 39 6-27 23-49 58-41v29" id="F"/><path d="M85-194c31 0 48 13 60 33l-1-100h32l1 261h-30c-2-10 0-23-3-31C134-8 116 4 85 4 32 4 16-35 15-94c0-66 23-100 70-100zm9 24c-40 0-46 34-46 75 0 40 6 74 45 74 42 0 51-32 51-76 0-42-9-74-50-73" id="G"/><path d="M24-231v-30h32v30H24zM24 0v-190h32V0H24" id="H"/><path d="M117-194c89-4 53 116 60 194h-32v-121c0-31-8-49-39-48C34-167 62-67 57 0H25l-1-190h30c1 10-1 24 2 32 11-22 29-35 61-36" id="I"/><path d="M141-36C126-15 110 5 73 4 37 3 15-17 15-53c-1-64 63-63 125-63 3-35-9-54-41-54-24 1-41 7-42 31l-33-3c5-37 33-52 76-52 45 0 72 20 72 64v82c-1 20 7 32 28 27v20c-31 9-61-2-59-35zM48-53c0 20 12 33 32 33 41-3 63-29 60-74-43 2-92-5-92 41" id="J"/><path d="M59-47c-2 24 18 29 38 22v24C64 9 27 4 27-40v-127H5v-23h24l9-43h21v43h35v23H59v120" id="K"/><g id="a"><use transform="matrix(0.07407407407407407,0,0,0.07407407407407407,0,0)" xlink:href="#D"/><use transform="matrix(0.07407407407407407,0,0,0.07407407407407407,19.185185185185183,0)" xlink:href="#E"/><use transform="matrix(0.07407407407407407,0,0,0.07407407407407407,34,0)" xlink:href="#E"/><use transform="matrix(0.07407407407407407,0,0,0.07407407407407407,48.81481481481481,0)" xlink:href="#F"/><use transform="matrix(0.07407407407407407,0,0,0.07407407407407407,57.629629629629626,0)" xlink:href="#G"/><use transform="matrix(0.07407407407407407,0,0,0.07407407407407407,72.44444444444444,0)" xlink:href="#H"/><use transform="matrix(0.07407407407407407,0,0,0.07407407407407407,78.29629629629629,0)" xlink:href="#I"/><use transform="matrix(0.07407407407407407,0,0,0.07407407407407407,93.1111111111111,0)" xlink:href="#J"/><use transform="matrix(0.07407407407407407,0,0,0.07407407407407407,107.92592592592591,0)" xlink:href="#K"/><use transform="matrix(0.07407407407407407,0,0,0.07407407407407407,115.33333333333331,0)" xlink:href="#E"/><use transform="matrix(0.07407407407407407,0,0,0.07407407407407407,130.14814814814812,0)" xlink:href="#F"/></g><path d="M140-251c81 0 123 46 123 126C263-46 219 4 140 4 59 4 17-45 17-125s42-126 123-126zm0 227c63 0 89-41 89-101s-29-99-89-99c-61 0-89 39-89 99S79-25 140-24" id="L"/><path d="M108 0H70L1-190h34L89-25l56-165h34" id="M"/><path d="M100-194c63 0 86 42 84 106H49c0 40 14 67 53 68 26 1 43-12 49-29l28 8c-11 28-37 45-77 45C44 4 14-33 15-96c1-61 26-98 85-98zm52 81c6-60-76-77-97-28-3 7-6 17-6 28h103" id="N"/><path d="M24 0v-261h32V0H24" id="O"/><g id="b"><use transform="matrix(0.07407407407407407,0,0,0.07407407407407407,0,0)" xlink:href="#L"/><use transform="matrix(0.07407407407407407,0,0,0.07407407407407407,20.74074074074074,0)" xlink:href="#M"/><use transform="matrix(0.07407407407407407,0,0,0.07407407407407407,34.074074074074076,0)" xlink:href="#N"/><use transform="matrix(0.07407407407407407,0,0,0.07407407407407407,48.888888888888886,0)" xlink:href="#F"/><use transform="matrix(0.07407407407407407,0,0,0.07407407407407407,57.7037037037037,0)" xlink:href="#O"/><use transform="matrix(0.07407407407407407,0,0,0.07407407407407407,63.55555555555556,0)" xlink:href="#E"/><use transform="matrix(0.07407407407407407,0,0,0.07407407407407407,78.37037037037037,0)" xlink:href="#F"/><use transform="matrix(0.07407407407407407,0,0,0.07407407407407407,87.18518518518518,0)" xlink:href="#G"/></g><path d="M240 0l2-218c-23 76-54 145-80 218h-23L58-218 59 0H30v-248h44l77 211c21-75 51-140 76-211h43V0h-30" id="P"/><path d="M177-190C167-65 218 103 67 71c-23-6-38-20-44-43l32-5c15 47 100 32 89-28v-30C133-14 115 1 83 1 29 1 15-40 15-95c0-56 16-97 71-98 29-1 48 16 59 35 1-10 0-23 2-32h30zM94-22c36 0 50-32 50-73 0-42-14-75-50-75-39 0-46 34-46 75s6 73 46 73" id="Q"/><g id="c"><use transform="matrix(0.07407407407407407,0,0,0.07407407407407407,0,0)" xlink:href="#P"/><use transform="matrix(0.07407407407407407,0,0,0.07407407407407407,22.148148148148145,0)" xlink:href="#H"/><use transform="matrix(0.07407407407407407,0,0,0.07407407407407407,28,0)" xlink:href="#G"/><use transform="matrix(0.07407407407407407,0,0,0.07407407407407407,42.81481481481481,0)" xlink:href="#G"/><use transform="matrix(0.07407407407407407,0,0,0.07407407407407407,57.62962962962962,0)" xlink:href="#O"/><use transform="matrix(0.07407407407407407,0,0,0.07407407407407407,63.48148148148147,0)" xlink:href="#N"/><use transform="matrix(0.07407407407407407,0,0,0.07407407407407407,78.29629629629628,0)" xlink:href="#P"/><use transform="matrix(0.07407407407407407,0,0,0.07407407407407407,100.44444444444443,0)" xlink:href="#J"/><use transform="matrix(0.07407407407407407,0,0,0.07407407407407407,115.25925925925924,0)" xlink:href="#I"/><use transform="matrix(0.07407407407407407,0,0,0.07407407407407407,130.07407407407405,0)" xlink:href="#J"/><use transform="matrix(0.07407407407407407,0,0,0.07407407407407407,144.88888888888886,0)" xlink:href="#Q"/><use transform="matrix(0.07407407407407407,0,0,0.07407407407407407,159.70370370370367,0)" xlink:href="#N"/><use transform="matrix(0.07407407407407407,0,0,0.07407407407407407,174.51851851851848,0)" xlink:href="#F"/></g><path d="M160-131c35 5 61 23 61 61C221 17 115-2 30 0v-248c76 3 177-17 177 60 0 33-19 50-47 57zm-97-11c50-1 110 9 110-42 0-47-63-36-110-37v79zm0 115c55-2 124 14 124-45 0-56-70-42-124-44v89" id="R"/><path d="M143 0L79-87 56-68V0H24v-261h32v163l83-92h37l-77 82L181 0h-38" id="S"/><g id="d"><use transform="matrix(0.07407407407407407,0,0,0.07407407407407407,0,0)" xlink:href="#R"/><use transform="matrix(0.07407407407407407,0,0,0.07407407407407407,17.77777777777778,0)" xlink:href="#F"/><use transform="matrix(0.07407407407407407,0,0,0.07407407407407407,26.592592592592595,0)" xlink:href="#E"/><use transform="matrix(0.07407407407407407,0,0,0.07407407407407407,41.407407407407405,0)" xlink:href="#S"/><use transform="matrix(0.07407407407407407,0,0,0.07407407407407407,54.740740740740726,0)" xlink:href="#N"/><use transform="matrix(0.07407407407407407,0,0,0.07407407407407407,69.55555555555554,0)" xlink:href="#F"/></g><path d="M233-177c-1 41-23 64-60 70L243 0h-38l-65-103H63V0H30v-248c88 3 205-21 203 71zM63-129c60-2 137 13 137-47 0-61-80-42-137-45v92" id="T"/><path d="M84 4C-5 8 30-112 23-190h32v120c0 31 7 50 39 49 72-2 45-101 50-169h31l1 190h-30c-1-10 1-25-2-33-11 22-28 36-60 37" id="U"/><g id="e"><use transform="matrix(0.07407407407407407,0,0,0.07407407407407407,0,0)" xlink:href="#T"/><use transform="matrix(0.07407407407407407,0,0,0.07407407407407407,19.185185185185183,0)" xlink:href="#E"/><use transform="matrix(0.07407407407407407,0,0,0.07407407407407407,34,0)" xlink:href="#U"/><use transform="matrix(0.07407407407407407,0,0,0.07407407407407407,48.81481481481481,0)" xlink:href="#K"/><use transform="matrix(0.07407407407407407,0,0,0.07407407407407407,56.22222222222221,0)" xlink:href="#N"/><use transform="matrix(0.07407407407407407,0,0,0.07407407407407407,71.03703703703702,0)" xlink:href="#F"/></g><path d="M87 75C49 33 22-17 22-94c0-76 28-126 65-167h31c-38 41-64 92-64 168S80 34 118 75H87" id="V"/><path d="M115-194c55 1 70 41 70 98S169 2 115 4C84 4 66-9 55-30l1 105H24l-1-265h31l2 30c10-21 28-34 59-34zm-8 174c40 0 45-34 45-75s-6-73-45-74c-42 0-51 32-51 76 0 43 10 73 51 73" id="W"/><path d="M33-261c38 41 65 92 65 168S71 34 33 75H2C39 34 66-17 66-93S39-220 2-261h31" id="X"/><g id="f"><use transform="matrix(0.07407407407407407,0,0,0.07407407407407407,0,0)" xlink:href="#V"/><use transform="matrix(0.07407407407407407,0,0,0.07407407407407407,8.814814814814815,0)" xlink:href="#E"/><use transform="matrix(0.07407407407407407,0,0,0.07407407407407407,23.629629629629623,0)" xlink:href="#W"/><use transform="matrix(0.07407407407407407,0,0,0.07407407407407407,38.44444444444444,0)" xlink:href="#K"/><use transform="matrix(0.07407407407407407,0,0,0.07407407407407407,45.85185185185185,0)" xlink:href="#H"/><use transform="matrix(0.07407407407407407,0,0,0.07407407407407407,51.703703703703695,0)" xlink:href="#E"/><use transform="matrix(0.07407407407407407,0,0,0.07407407407407407,66.5185185185185,0)" xlink:href="#I"/><use transform="matrix(0.07407407407407407,0,0,0.07407407407407407,81.33333333333331,0)" xlink:href="#J"/><use transform="matrix(0.07407407407407407,0,0,0.07407407407407407,96.14814814814812,0)" xlink:href="#O"/><use transform="matrix(0.07407407407407407,0,0,0.07407407407407407,101.99999999999997,0)" xlink:href="#X"/></g><path d="M197 0v-115H63V0H30v-248h33v105h134v-105h34V0h-34" id="Y"/><path d="M135-143c-3-34-86-38-87 0 15 53 115 12 119 90S17 21 10-45l28-5c4 36 97 45 98 0-10-56-113-15-118-90-4-57 82-63 122-42 12 7 21 19 24 35" id="Z"/><path d="M96-169c-40 0-48 33-48 73s9 75 48 75c24 0 41-14 43-38l32 2c-6 37-31 61-74 61-59 0-76-41-82-99-10-93 101-131 147-64 4 7 5 14 7 22l-32 3c-4-21-16-35-41-35" id="aa"/><g id="g"><use transform="matrix(0.07407407407407407,0,0,0.07407407407407407,0,0)" xlink:href="#Y"/><use transform="matrix(0.07407407407407407,0,0,0.07407407407407407,19.185185185185183,0)" xlink:href="#H"/><use transform="matrix(0.07407407407407407,0,0,0.07407407407407407,25.037037037037035,0)" xlink:href="#Z"/><use transform="matrix(0.07407407407407407,0,0,0.07407407407407407,38.37037037037037,0)" xlink:href="#K"/><use transform="matrix(0.07407407407407407,0,0,0.07407407407407407,45.77777777777778,0)" xlink:href="#E"/><use transform="matrix(0.07407407407407407,0,0,0.07407407407407407,60.59259259259258,0)" xlink:href="#F"/><use transform="matrix(0.07407407407407407,0,0,0.07407407407407407,69.40740740740739,0)" xlink:href="#aa"/><use transform="matrix(0.07407407407407407,0,0,0.07407407407407407,82.74074074074072,0)" xlink:href="#H"/><use transform="matrix(0.07407407407407407,0,0,0.07407407407407407,88.59259259259257,0)" xlink:href="#J"/><use transform="matrix(0.07407407407407407,0,0,0.07407407407407407,103.40740740740736,0)" xlink:href="#O"/></g><path d="M230 0l2-204L168 0h-37L68-204 70 0H24v-248h70l56 185 57-185h69V0h-46" id="ab"/><path d="M133-34C117-15 103 5 69 4 32 3 11-16 11-54c-1-60 55-63 116-61 1-26-3-47-28-47-18 1-26 9-28 27l-52-2c7-38 36-58 82-57s74 22 75 68l1 82c-1 14 12 18 25 15v27c-30 8-71 5-69-32zm-48 3c29 0 43-24 42-57-32 0-66-3-65 30 0 17 8 27 23 27" id="ac"/><path d="M137-138c1-29-70-34-71-4 15 46 118 7 119 86 1 83-164 76-172 9l43-7c4 19 20 25 44 25 33 8 57-30 24-41C81-84 22-81 20-136c-2-80 154-74 161-7" id="ad"/><path d="M115-3C79 11 28 4 28-45v-112H4v-33h27l15-45h31v45h36v33H77v99c-1 23 16 31 38 25v30" id="ae"/><path d="M185-48c-13 30-37 53-82 52C43 2 14-33 14-96s30-98 90-98c62 0 83 45 84 108H66c0 31 8 55 39 56 18 0 30-7 34-22zm-45-69c5-46-57-63-70-21-2 6-4 13-4 21h74" id="af"/><path d="M135-150c-39-12-60 13-60 57V0H25l-1-190h47c2 13-1 29 3 40 6-28 27-53 61-41v41" id="ag"/><g id="h"><use transform="matrix(0.07407407407407407,0,0,0.07407407407407407,0,0)" xlink:href="#ab"/><use transform="matrix(0.07407407407407407,0,0,0.07407407407407407,22.148148148148145,0)" xlink:href="#ac"/><use transform="matrix(0.07407407407407407,0,0,0.07407407407407407,36.96296296296296,0)" xlink:href="#ad"/><use transform="matrix(0.07407407407407407,0,0,0.07407407407407407,51.77777777777777,0)" xlink:href="#ae"/><use transform="matrix(0.07407407407407407,0,0,0.07407407407407407,60.59259259259259,0)" xlink:href="#af"/><use transform="matrix(0.07407407407407407,0,0,0.07407407407407407,75.4074074074074,0)" xlink:href="#ag"/></g><path d="M128 0H69L1-190h53L99-40l48-150h52" id="ah"/><g id="i"><use transform="matrix(0.07407407407407407,0,0,0.07407407407407407,0,0)" xlink:href="#ad"/><use transform="matrix(0.07407407407407407,0,0,0.07407407407407407,14.814814814814813,0)" xlink:href="#af"/><use transform="matrix(0.07407407407407407,0,0,0.07407407407407407,29.629629629629626,0)" xlink:href="#ag"/><use transform="matrix(0.07407407407407407,0,0,0.07407407407407407,40,0)" xlink:href="#ah"/><use transform="matrix(0.07407407407407407,0,0,0.07407407407407407,54.81481481481481,0)" xlink:href="#af"/><use transform="matrix(0.07407407407407407,0,0,0.07407407407407407,69.62962962962962,0)" xlink:href="#ag"/></g><path d="M140-251c80 0 125 45 125 126 0 70-33 111-92 124 6 28 34 38 68 31l-1 36C177 83 129 55 120 2 51-6 15-50 15-125c0-81 44-126 125-126zm-1 214c52 0 73-35 73-88 0-50-21-86-72-86-52 0-73 35-73 86s22 88 72 88" id="ai"/><path d="M85 4C-2 5 27-109 22-190h50c7 57-23 150 33 157 60-5 35-97 40-157h50l1 190h-47c-2-12 1-28-3-38-12 25-28 42-61 42" id="aj"/><path d="M123 10C108 53 80 86 19 72V37c35 8 53-11 59-39L3-190h52l48 148c12-52 28-100 44-148h51" id="ak"/><g id="j"><use transform="matrix(0.07407407407407407,0,0,0.07407407407407407,0,0)" xlink:href="#ai"/><use transform="matrix(0.07407407407407407,0,0,0.07407407407407407,20.74074074074074,0)" xlink:href="#aj"/><use transform="matrix(0.07407407407407407,0,0,0.07407407407407407,36.96296296296296,0)" xlink:href="#af"/><use transform="matrix(0.07407407407407407,0,0,0.07407407407407407,51.77777777777777,0)" xlink:href="#ag"/><use transform="matrix(0.07407407407407407,0,0,0.07407407407407407,62.14814814814814,0)" xlink:href="#ak"/></g><path d="M24-248c120-7 223 5 221 122C244-46 201 0 124 0H24v-248zM76-40c74 7 117-18 117-86 0-67-45-88-117-82v168" id="al"/><g id="k"><use transform="matrix(0.07407407407407407,0,0,0.07407407407407407,0,0)" xlink:href="#al"/><use transform="matrix(0.07407407407407407,0,0,0.07407407407407407,19.185185185185183,0)" xlink:href="#ac"/><use transform="matrix(0.07407407407407407,0,0,0.07407407407407407,34,0)" xlink:href="#ae"/><use transform="matrix(0.07407407407407407,0,0,0.07407407407407407,42.814814814814824,0)" xlink:href="#ac"/></g><path fill="#3a414a" d="M30-248c87 1 191-15 191 75 0 78-77 80-158 76V0H30v-248zm33 125c57 0 124 11 124-50 0-59-68-47-124-48v98" id="am"/><path fill="#3a414a" d="M114-163C36-179 61-72 57 0H25l-1-190h30c1 12-1 29 2 39 6-27 23-49 58-41v29" id="an"/><path fill="#3a414a" d="M100-194c62-1 85 37 85 99 1 63-27 99-86 99S16-35 15-95c0-66 28-99 85-99zM99-20c44 1 53-31 53-75 0-43-8-75-51-75s-53 32-53 75 10 74 51 75" id="ao"/><path fill="#3a414a" d="M96-169c-40 0-48 33-48 73s9 75 48 75c24 0 41-14 43-38l32 2c-6 37-31 61-74 61-59 0-76-41-82-99-10-93 101-131 147-64 4 7 5 14 7 22l-32 3c-4-21-16-35-41-35" id="ap"/><path fill="#3a414a" d="M100-194c63 0 86 42 84 106H49c0 40 14 67 53 68 26 1 43-12 49-29l28 8c-11 28-37 45-77 45C44 4 14-33 15-96c1-61 26-98 85-98zm52 81c6-60-76-77-97-28-3 7-6 17-6 28h103" id="aq"/><path fill="#3a414a" d="M135-143c-3-34-86-38-87 0 15 53 115 12 119 90S17 21 10-45l28-5c4 36 97 45 98 0-10-56-113-15-118-90-4-57 82-63 122-42 12 7 21 19 24 35" id="ar"/><g id="l"><use transform="matrix(0.06172839506172839,0,0,0.06172839506172839,0,0)" xlink:href="#am"/><use transform="matrix(0.06172839506172839,0,0,0.06172839506172839,14.814814814814813,0)" xlink:href="#an"/><use transform="matrix(0.06172839506172839,0,0,0.06172839506172839,22.160493827160494,0)" xlink:href="#ao"/><use transform="matrix(0.06172839506172839,0,0,0.06172839506172839,34.50617283950617,0)" xlink:href="#ap"/><use transform="matrix(0.06172839506172839,0,0,0.06172839506172839,45.61728395061728,0)" xlink:href="#aq"/><use transform="matrix(0.06172839506172839,0,0,0.06172839506172839,57.962962962962955,0)" xlink:href="#ar"/><use transform="matrix(0.06172839506172839,0,0,0.06172839506172839,69.07407407407406,0)" xlink:href="#ar"/></g><path d="M209 0H11v-25l151-195H24v-28h176v25L50-27h159V0" id="as"/><path d="M194 0L95-120 63-95V0H30v-248h33v124l119-124h40L117-140 236 0h-42" id="at"/><g id="m"><use transform="matrix(0.07407407407407407,0,0,0.07407407407407407,0,0)" xlink:href="#as"/><use transform="matrix(0.07407407407407407,0,0,0.07407407407407407,16.22222222222222,0)" xlink:href="#E"/><use transform="matrix(0.07407407407407407,0,0,0.07407407407407407,31.037037037037035,0)" xlink:href="#E"/><use transform="matrix(0.07407407407407407,0,0,0.07407407407407407,45.85185185185185,0)" xlink:href="#at"/><use transform="matrix(0.07407407407407407,0,0,0.07407407407407407,63.629629629629626,0)" xlink:href="#N"/><use transform="matrix(0.07407407407407407,0,0,0.07407407407407407,78.44444444444444,0)" xlink:href="#N"/><use transform="matrix(0.07407407407407407,0,0,0.07407407407407407,93.25925925925925,0)" xlink:href="#W"/><use transform="matrix(0.07407407407407407,0,0,0.07407407407407407,108.07407407407406,0)" xlink:href="#N"/><use transform="matrix(0.07407407407407407,0,0,0.07407407407407407,122.88888888888887,0)" xlink:href="#F"/></g><path d="M30-248c118-7 216 8 213 122C240-48 200 0 122 0H30v-248zM63-27c89 8 146-16 146-99s-60-101-146-95v194" id="au"/><g id="n"><use transform="matrix(0.07407407407407407,0,0,0.07407407407407407,0,0)" xlink:href="#au"/><use transform="matrix(0.07407407407407407,0,0,0.07407407407407407,19.185185185185183,0)" xlink:href="#N"/><use transform="matrix(0.07407407407407407,0,0,0.07407407407407407,34,0)" xlink:href="#N"/><use transform="matrix(0.07407407407407407,0,0,0.07407407407407407,48.81481481481481,0)" xlink:href="#W"/></g><g id="o"><use transform="matrix(0.07407407407407407,0,0,0.07407407407407407,0,0)" xlink:href="#Z"/><use transform="matrix(0.07407407407407407,0,0,0.07407407407407407,13.333333333333332,0)" xlink:href="#K"/><use transform="matrix(0.07407407407407407,0,0,0.07407407407407407,20.74074074074074,0)" xlink:href="#E"/><use transform="matrix(0.07407407407407407,0,0,0.07407407407407407,35.55555555555556,0)" xlink:href="#F"/><use transform="matrix(0.07407407407407407,0,0,0.07407407407407407,44.370370370370374,0)" xlink:href="#J"/><use transform="matrix(0.07407407407407407,0,0,0.07407407407407407,59.18518518518519,0)" xlink:href="#Q"/><use transform="matrix(0.07407407407407407,0,0,0.07407407407407407,74,0)" xlink:href="#N"/></g><g id="p"><use transform="matrix(0.07407407407407407,0,0,0.07407407407407407,0,0)" xlink:href="#P"/><use transform="matrix(0.07407407407407407,0,0,0.07407407407407407,22.148148148148145,0)" xlink:href="#N"/><use transform="matrix(0.07407407407407407,0,0,0.07407407407407407,36.96296296296296,0)" xlink:href="#K"/><use transform="matrix(0.07407407407407407,0,0,0.07407407407407407,44.37037037037037,0)" xlink:href="#J"/><use transform="matrix(0.07407407407407407,0,0,0.07407407407407407,59.185185185185176,0)" xlink:href="#G"/><use transform="matrix(0.07407407407407407,0,0,0.07407407407407407,73.99999999999999,0)" xlink:href="#J"/><use transform="matrix(0.07407407407407407,0,0,0.07407407407407407,88.8148148148148,0)" xlink:href="#K"/><use transform="matrix(0.07407407407407407,0,0,0.07407407407407407,96.2222222222222,0)" xlink:href="#J"/></g><path d="M24 0v-248h195v40H76v63h132v40H76v65h150V0H24" id="av"/><path d="M144 0l-44-69L55 0H2l70-98-66-92h53l41 62 40-62h54l-67 91 71 99h-54" id="aw"/><path d="M135-194c87-1 58 113 63 194h-50c-7-57 23-157-34-157-59 0-34 97-39 157H25l-1-190h47c2 12-1 28 3 38 12-26 28-41 61-42" id="ax"/><path d="M25 0v-261h50V0H25" id="ay"/><g id="q"><use transform="matrix(0.07407407407407407,0,0,0.07407407407407407,0,0)" xlink:href="#av"/><use transform="matrix(0.07407407407407407,0,0,0.07407407407407407,17.77777777777778,0)" xlink:href="#aw"/><use transform="matrix(0.07407407407407407,0,0,0.07407407407407407,32.592592592592595,0)" xlink:href="#ae"/><use transform="matrix(0.07407407407407407,0,0,0.07407407407407407,41.40740740740741,0)" xlink:href="#af"/><use transform="matrix(0.07407407407407407,0,0,0.07407407407407407,56.22222222222223,0)" xlink:href="#ag"/><use transform="matrix(0.07407407407407407,0,0,0.07407407407407407,66.5925925925926,0)" xlink:href="#ax"/><use transform="matrix(0.07407407407407407,0,0,0.07407407407407407,82.81481481481481,0)" xlink:href="#ac"/><use transform="matrix(0.07407407407407407,0,0,0.07407407407407407,97.62962962962962,0)" xlink:href="#ay"/></g><path d="M88-194c31-1 46 15 58 34l-1-101h50l1 261h-48c-2-10 0-23-3-31C134-8 116 4 84 4 32 4 16-41 15-95c0-56 19-97 73-99zm17 164c33 0 40-30 41-66 1-37-9-64-41-64s-38 30-39 65c0 43 13 65 39 65" id="az"/><path d="M135-194c53 0 70 44 70 98 0 56-19 98-73 100-31 1-45-17-59-34 3 33 2 69 2 105H25l-1-265h48c2 10 0 23 3 31 11-24 29-35 60-35zM114-30c33 0 39-31 40-66 0-38-9-64-40-64-56 0-55 130 0 130" id="aA"/><path d="M190-63c-7 42-38 67-86 67-59 0-84-38-90-98-12-110 154-137 174-36l-49 2c-2-19-15-32-35-32-30 0-35 28-38 64-6 74 65 87 74 30" id="aB"/><path d="M25-224v-37h50v37H25zM25 0v-190h50V0H25" id="aC"/><g id="r"><use transform="matrix(0.07407407407407407,0,0,0.07407407407407407,0,0)" xlink:href="#az"/><use transform="matrix(0.07407407407407407,0,0,0.07407407407407407,16.22222222222222,0)" xlink:href="#af"/><use transform="matrix(0.07407407407407407,0,0,0.07407407407407407,31.037037037037035,0)" xlink:href="#aA"/><use transform="matrix(0.07407407407407407,0,0,0.07407407407407407,47.259259259259245,0)" xlink:href="#af"/><use transform="matrix(0.07407407407407407,0,0,0.07407407407407407,62.07407407407406,0)" xlink:href="#ax"/><use transform="matrix(0.07407407407407407,0,0,0.07407407407407407,78.29629629629628,0)" xlink:href="#az"/><use transform="matrix(0.07407407407407407,0,0,0.07407407407407407,94.51851851851849,0)" xlink:href="#af"/><use transform="matrix(0.07407407407407407,0,0,0.07407407407407407,109.33333333333331,0)" xlink:href="#ax"/><use transform="matrix(0.07407407407407407,0,0,0.07407407407407407,125.55555555555554,0)" xlink:href="#aB"/><use transform="matrix(0.07407407407407407,0,0,0.07407407407407407,140.37037037037035,0)" xlink:href="#aC"/><use transform="matrix(0.07407407407407407,0,0,0.07407407407407407,147.77777777777777,0)" xlink:href="#af"/><use transform="matrix(0.07407407407407407,0,0,0.07407407407407407,162.59259259259258,0)" xlink:href="#ad"/></g><g id="s"><use transform="matrix(0.07407407407407407,0,0,0.07407407407407407,0,0)" xlink:href="#D"/><use transform="matrix(0.07407407407407407,0,0,0.07407407407407407,19.185185185185183,0)" xlink:href="#O"/><use transform="matrix(0.07407407407407407,0,0,0.07407407407407407,25.037037037037035,0)" xlink:href="#H"/><use transform="matrix(0.07407407407407407,0,0,0.07407407407407407,30.888888888888886,0)" xlink:href="#N"/><use transform="matrix(0.07407407407407407,0,0,0.07407407407407407,45.703703703703695,0)" xlink:href="#I"/><use transform="matrix(0.07407407407407407,0,0,0.07407407407407407,60.518518518518505,0)" xlink:href="#K"/></g><path d="M145-31C134-9 116 4 85 4 32 4 16-35 15-94c0-59 17-99 70-100 32-1 48 14 60 33 0-11-1-24 2-32h30l-1 268h-32zM93-21c41 0 51-33 51-76s-8-73-50-73c-40 0-46 35-46 75s5 74 45 74" id="aD"/><g id="t"><use transform="matrix(0.07407407407407407,0,0,0.07407407407407407,0,0)" xlink:href="#aD"/><use transform="matrix(0.07407407407407407,0,0,0.07407407407407407,14.814814814814813,0)" xlink:href="#U"/><use transform="matrix(0.07407407407407407,0,0,0.07407407407407407,29.629629629629626,0)" xlink:href="#N"/><use transform="matrix(0.07407407407407407,0,0,0.07407407407407407,44.44444444444444,0)" xlink:href="#F"/><use transform="matrix(0.07407407407407407,0,0,0.07407407407407407,53.25925925925926,0)" xlink:href="#H"/><use transform="matrix(0.07407407407407407,0,0,0.07407407407407407,59.111111111111114,0)" xlink:href="#N"/><use transform="matrix(0.07407407407407407,0,0,0.07407407407407407,73.92592592592592,0)" xlink:href="#Z"/></g><path d="M140-251c81 0 123 46 123 126C263-53 228-8 163 1c7 30 30 48 69 40v23c-55 16-95-15-103-61C56-3 17-48 17-125c0-80 42-126 123-126zm0 227c63 0 89-41 89-101s-29-99-89-99c-61 0-89 39-89 99S79-25 140-24" id="aE"/><g id="u"><use transform="matrix(0.055555555555555546,0,0,0.055555555555555546,0,0)" xlink:href="#aE"/><use transform="matrix(0.055555555555555546,0,0,0.055555555555555546,15.555555555555554,0)" xlink:href="#U"/><use transform="matrix(0.055555555555555546,0,0,0.055555555555555546,26.666666666666664,0)" xlink:href="#N"/><use transform="matrix(0.055555555555555546,0,0,0.055555555555555546,37.77777777777777,0)" xlink:href="#F"/><use transform="matrix(0.055555555555555546,0,0,0.055555555555555546,44.38888888888888,0)" xlink:href="#H"/><use transform="matrix(0.055555555555555546,0,0,0.055555555555555546,48.777777777777764,0)" xlink:href="#N"/><use transform="matrix(0.055555555555555546,0,0,0.055555555555555546,59.888888888888864,0)" xlink:href="#Z"/></g><path d="M0 4l72-265h28L28 4H0" id="aF"/><path d="M185-189c-5-48-123-54-124 2 14 75 158 14 163 119 3 78-121 87-175 55-17-10-28-26-33-46l33-7c5 56 141 63 141-1 0-78-155-14-162-118-5-82 145-84 179-34 5 7 8 16 11 25" id="aG"/><path d="M210-169c-67 3-38 105-44 169h-31v-121c0-29-5-50-35-48C34-165 62-65 56 0H25l-1-190h30c1 10-1 24 2 32 10-44 99-50 107 0 11-21 27-35 58-36 85-2 47 119 55 194h-31v-121c0-29-5-49-35-48" id="aH"/><g id="v"><use transform="matrix(0.055555555555555546,0,0,0.055555555555555546,0,0)" xlink:href="#au"/><use transform="matrix(0.055555555555555546,0,0,0.055555555555555546,14.388888888888886,0)" xlink:href="#J"/><use transform="matrix(0.055555555555555546,0,0,0.055555555555555546,25.499999999999993,0)" xlink:href="#K"/><use transform="matrix(0.055555555555555546,0,0,0.055555555555555546,31.055555555555543,0)" xlink:href="#J"/><use transform="matrix(0.055555555555555546,0,0,0.055555555555555546,42.16666666666666,0)" xlink:href="#aF"/><use transform="matrix(0.055555555555555546,0,0,0.055555555555555546,47.722222222222214,0)" xlink:href="#aG"/><use transform="matrix(0.055555555555555546,0,0,0.055555555555555546,61.05555555555554,0)" xlink:href="#N"/><use transform="matrix(0.055555555555555546,0,0,0.055555555555555546,72.16666666666666,0)" xlink:href="#Q"/><use transform="matrix(0.055555555555555546,0,0,0.055555555555555546,83.27777777777777,0)" xlink:href="#aH"/><use transform="matrix(0.055555555555555546,0,0,0.055555555555555546,99.88888888888889,0)" xlink:href="#N"/><use transform="matrix(0.055555555555555546,0,0,0.055555555555555546,111,0)" xlink:href="#I"/><use transform="matrix(0.055555555555555546,0,0,0.055555555555555546,122.11111111111111,0)" xlink:href="#K"/><use transform="matrix(0.055555555555555546,0,0,0.055555555555555546,127.66666666666667,0)" xlink:href="#Z"/></g><g id="w"><use transform="matrix(0.055555555555555546,0,0,0.055555555555555546,0,0)" xlink:href="#P"/><use transform="matrix(0.055555555555555546,0,0,0.055555555555555546,16.611111111111107,0)" xlink:href="#N"/><use transform="matrix(0.055555555555555546,0,0,0.055555555555555546,27.722222222222214,0)" xlink:href="#K"/><use transform="matrix(0.055555555555555546,0,0,0.055555555555555546,33.27777777777777,0)" xlink:href="#J"/><use transform="matrix(0.055555555555555546,0,0,0.055555555555555546,44.38888888888888,0)" xlink:href="#G"/><use transform="matrix(0.055555555555555546,0,0,0.055555555555555546,55.499999999999986,0)" xlink:href="#J"/><use transform="matrix(0.055555555555555546,0,0,0.055555555555555546,66.6111111111111,0)" xlink:href="#K"/><use transform="matrix(0.055555555555555546,0,0,0.055555555555555546,72.16666666666666,0)" xlink:href="#J"/></g><g id="y"><use transform="matrix(0.05617283950617283,0,0,0.05617283950617283,0,0)" xlink:href="#au"/><use transform="matrix(0.05617283950617283,0,0,0.05617283950617283,14.548765432098762,0)" xlink:href="#F"/><use transform="matrix(0.05617283950617283,0,0,0.05617283950617283,21.233333333333327,0)" xlink:href="#U"/><use transform="matrix(0.05617283950617283,0,0,0.05617283950617283,32.46790123456789,0)" xlink:href="#H"/><use transform="matrix(0.05617283950617283,0,0,0.05617283950617283,36.905555555555544,0)" xlink:href="#G"/></g><g id="z"><use transform="matrix(0.05617283950617283,0,0,0.05617283950617283,0,0)" xlink:href="#Z"/><use transform="matrix(0.05617283950617283,0,0,0.05617283950617283,10.111111111111109,0)" xlink:href="#N"/><use transform="matrix(0.05617283950617283,0,0,0.05617283950617283,21.345679012345677,0)" xlink:href="#F"/><use transform="matrix(0.05617283950617283,0,0,0.05617283950617283,28.030246913580243,0)" xlink:href="#M"/><use transform="matrix(0.05617283950617283,0,0,0.05617283950617283,38.14135802469135,0)" xlink:href="#H"/><use transform="matrix(0.05617283950617283,0,0,0.05617283950617283,42.579012345679004,0)" xlink:href="#aa"/><use transform="matrix(0.05617283950617283,0,0,0.05617283950617283,52.69012345679011,0)" xlink:href="#N"/><use transform="matrix(0.05617283950617283,0,0,0.05617283950617283,63.92469135802468,0)" xlink:href="#Z"/></g><path d="M30 0v-248h187v28H63v79h144v27H63v87h162V0H30" id="aI"/><path d="M141 0L90-78 38 0H4l68-98-65-92h35l48 74 47-74h35l-64 92 68 98h-35" id="aJ"/><g id="A"><use transform="matrix(0.05617283950617283,0,0,0.05617283950617283,0,0)" xlink:href="#aI"/><use transform="matrix(0.05617283950617283,0,0,0.05617283950617283,13.48148148148148,0)" xlink:href="#aJ"/><use transform="matrix(0.05617283950617283,0,0,0.05617283950617283,23.592592592592588,0)" xlink:href="#K"/><use transform="matrix(0.05617283950617283,0,0,0.05617283950617283,29.20987654320987,0)" xlink:href="#N"/><use transform="matrix(0.05617283950617283,0,0,0.05617283950617283,40.44444444444444,0)" xlink:href="#F"/><use transform="matrix(0.05617283950617283,0,0,0.05617283950617283,47.12901234567901,0)" xlink:href="#I"/><use transform="matrix(0.05617283950617283,0,0,0.05617283950617283,58.36358024691357,0)" xlink:href="#J"/><use transform="matrix(0.05617283950617283,0,0,0.05617283950617283,69.59814814814814,0)" xlink:href="#O"/></g><g id="B"><use transform="matrix(0.05617283950617283,0,0,0.05617283950617283,0,0)" xlink:href="#G"/><use transform="matrix(0.05617283950617283,0,0,0.05617283950617283,11.234567901234566,0)" xlink:href="#N"/><use transform="matrix(0.05617283950617283,0,0,0.05617283950617283,22.469135802469133,0)" xlink:href="#W"/><use transform="matrix(0.05617283950617283,0,0,0.05617283950617283,33.703703703703695,0)" xlink:href="#N"/><use transform="matrix(0.05617283950617283,0,0,0.05617283950617283,44.938271604938265,0)" xlink:href="#I"/><use transform="matrix(0.05617283950617283,0,0,0.05617283950617283,56.172839506172835,0)" xlink:href="#G"/><use transform="matrix(0.05617283950617283,0,0,0.05617283950617283,67.4074074074074,0)" xlink:href="#N"/><use transform="matrix(0.05617283950617283,0,0,0.05617283950617283,78.64197530864197,0)" xlink:href="#I"/><use transform="matrix(0.05617283950617283,0,0,0.05617283950617283,89.87654320987654,0)" xlink:href="#H"/><use transform="matrix(0.05617283950617283,0,0,0.05617283950617283,94.31419753086419,0)" xlink:href="#N"/><use transform="matrix(0.05617283950617283,0,0,0.05617283950617283,105.54876543209876,0)" xlink:href="#Z"/></g><g id="C"><use transform="matrix(0.05617283950617283,0,0,0.05617283950617283,0,0)" xlink:href="#Z"/><use transform="matrix(0.05617283950617283,0,0,0.05617283950617283,10.111111111111109,0)" xlink:href="#N"/><use transform="matrix(0.05617283950617283,0,0,0.05617283950617283,21.345679012345677,0)" xlink:href="#F"/><use transform="matrix(0.05617283950617283,0,0,0.05617283950617283,28.030246913580243,0)" xlink:href="#M"/><use transform="matrix(0.05617283950617283,0,0,0.05617283950617283,38.14135802469135,0)" xlink:href="#N"/><use transform="matrix(0.05617283950617283,0,0,0.05617283950617283,49.37592592592591,0)" xlink:href="#F"/><use transform="matrix(0.05617283950617283,0,0,0.05617283950617283,56.06049382716048,0)" xlink:href="#Z"/></g></defs></g></svg>