<!--
  ~ Licensed to the Apache Software Foundation (ASF) under one
  ~ or more contributor license agreements.  See the NOTICE file
  ~ distributed with this work for additional information
  ~ regarding copyright ownership.  The ASF licenses this file
  ~ to you under the Apache License, Version 2.0 (the
  ~ "License"); you may not use this file except in compliance
  ~ with the License.  You may obtain a copy of the License at
  ~
  ~   http://www.apache.org/licenses/LICENSE-2.0
  ~
  ~ Unless required by applicable law or agreed to in writing,
  ~ software distributed under the License is distributed on an
  ~ "AS IS" BASIS, WITHOUT WARRANTIES OR CONDITIONS OF ANY
  ~ KIND, either express or implied.  See the License for the
  ~ specific language governing permissions and limitations
  ~ under the License.
  -->
<svg xmlns="http://www.w3.org/2000/svg" xmlns:xlink="http://www.w3.org/1999/xlink" xmlns:lucid="lucid" width="1967.24" height="864.83"><g transform="translate(5341 -19.5)" lucid:page-tab-id="0_0"><path d="M-5320 166a6 6 0 0 1 6-6h508a6 6 0 0 1 6 6v308a6 6 0 0 1-6 6h-508a6 6 0 0 1-6-6zM-4640 166a6 6 0 0 1 6-6h508a6 6 0 0 1 6 6v308a6 6 0 0 1-6 6h-508a6 6 0 0 1-6-6zM-3960 166a6 6 0 0 1 6-6h508a6 6 0 0 1 6 6v308a6 6 0 0 1-6 6h-508a6 6 0 0 1-6-6z" stroke="#cfe4ff" stroke-width="2" fill="#cfe4ff"/><path d="M-5280 266a6 6 0 0 1 6-6h168a6 6 0 0 1 6 6v108a6 6 0 0 1-6 6h-168a6 6 0 0 1-6-6z" stroke="#fc9432" fill="#ffdda6"/><use xlink:href="#a" transform="matrix(1,0,0,1,-5275,265) translate(9.728395061728392 60.923611111111114)"/><path d="M-5020 266a6 6 0 0 1 6-6h168a6 6 0 0 1 6 6v108a6 6 0 0 1-6 6h-168a6 6 0 0 1-6-6z" stroke="#fc9432" fill="#ffdda6"/><use xlink:href="#b" transform="matrix(1,0,0,1,-5015,265) translate(29.750000000000007 60.923611111111114)"/><path d="M-3920 266a6 6 0 0 1 6-6h208a6 6 0 0 1 6 6v108a6 6 0 0 1-6 6h-208a6 6 0 0 1-6-6z" stroke="#fc9432" fill="#ffdda6"/><use xlink:href="#c" transform="matrix(1,0,0,1,-3915,265) translate(5.694444444444429 60.923611111111114)"/><path d="M-4340 266a6 6 0 0 1 6-6h168a6 6 0 0 1 6 6v108a6 6 0 0 1-6 6h-168a6 6 0 0 1-6-6z" stroke="#fc9432" fill="#ffdda6"/><use xlink:href="#d" transform="matrix(1,0,0,1,-4335,265) translate(42.54938271604939 60.923611111111114)"/><path d="M-4600 266a6 6 0 0 1 6-6h168a6 6 0 0 1 6 6v108a6 6 0 0 1-6 6h-168a6 6 0 0 1-6-6z" stroke="#fc9432" fill="#ffdda6"/><use xlink:href="#e" transform="matrix(1,0,0,1,-4595,265) translate(41.74691358024692 60.923611111111114)"/><path d="M-3660 266a6 6 0 0 1 6-6h168a6 6 0 0 1 6 6v108a6 6 0 0 1-6 6h-168a6 6 0 0 1-6-6z" stroke="#fc9432" fill="#ffdda6"/><use xlink:href="#f" transform="matrix(1,0,0,1,-3655,265) translate(25.817901234567906 60.923611111111114)"/><path d="M-4401 320h42" stroke="#3a414a" stroke-width="2" fill="none"/><path d="M-4416.26 320l14.26-4.63v9.26zM-4343.74 320l-14.26 4.63v-9.26z" stroke="#3a414a" stroke-width="2" fill="#3a414a"/><path d="M-5320 156.33a6 6 0 0 1 6-6h208a6 6 0 0 1 6 6v67.34a6 6 0 0 1-6 6h-208a6 6 0 0 1-6-6z" stroke="#000" stroke-opacity="0" fill="#fff" fill-opacity="0"/><use xlink:href="#g" transform="matrix(1,0,0,1,-5315,155.33333333333334) translate(11.191358024691354 40.611111111111114)"/><use xlink:href="#h" transform="matrix(1,0,0,1,-5315,155.33333333333334) translate(112.14197530864197 40.611111111111114)"/><path d="M-4640 166a6 6 0 0 1 6-6h188a6 6 0 0 1 6 6v48a6 6 0 0 1-6 6h-188a6 6 0 0 1-6-6z" stroke="#000" stroke-opacity="0" fill="#fff" fill-opacity="0"/><use xlink:href="#i" transform="matrix(1,0,0,1,-4635,165.00000000000006) translate(5.966049382716051 29.36111111111111)"/><use xlink:href="#h" transform="matrix(1,0,0,1,-4635,165.00000000000006) translate(97.36728395061729 29.36111111111111)"/><path d="M-3960 166a6 6 0 0 1 6-6h188a6 6 0 0 1 6 6v48a6 6 0 0 1-6 6h-188a6 6 0 0 1-6-6z" stroke="#000" stroke-opacity="0" fill="#fff" fill-opacity="0"/><use xlink:href="#j" transform="matrix(1,0,0,1,-3955,165.00000000000006) translate(16.43827160493828 29.36111111111111)"/><use xlink:href="#h" transform="matrix(1,0,0,1,-3955,165.00000000000006) translate(86.89506172839506 29.36111111111111)"/><path d="M-5000 646a6 6 0 0 1 6-6h1228a6 6 0 0 1 6 6v188a6 6 0 0 1-6 6h-1228a6 6 0 0 1-6-6z" stroke="#ced4db" fill="#f2f3f5"/><use xlink:href="#k" transform="matrix(1,0,0,1,-4988,652) translate(567.9074074074074 94.77777777777777)"/><path d="M-4530 686a6 6 0 0 1 6-6h288a6 6 0 0 1 6 6v68a6 6 0 0 1-6 6h-288a6 6 0 0 1-6-6z" stroke="#9391ff" fill="#dedeff"/><use xlink:href="#l" transform="matrix(1,0,0,1,-4518,692) translate(66.6604938271605 33.611111111111114)"/><path d="M-4120 686a6 6 0 0 1 6-6h288a6 6 0 0 1 6 6v68a6 6 0 0 1-6 6h-288a6 6 0 0 1-6-6z" stroke="#9391ff" fill="#dedeff"/><use xlink:href="#m" transform="matrix(1,0,0,1,-4108,692) translate(51.4135802469136 33.611111111111114)"/><use xlink:href="#n" transform="matrix(1,0,0,1,-4108,692) translate(128.37037037037038 33.611111111111114)"/><path d="M-4940 686a6 6 0 0 1 6-6h288a6 6 0 0 1 6 6v68a6 6 0 0 1-6 6h-288a6 6 0 0 1-6-6z" stroke="#9391ff" fill="#dedeff"/><use xlink:href="#o" transform="matrix(1,0,0,1,-4928,692) translate(25.734567901234584 33.611111111111114)"/><use xlink:href="#n" transform="matrix(1,0,0,1,-4928,692) translate(154.0493827160494 33.611111111111114)"/><path d="M-4560 766.67a6 6 0 0 1 6-6h348a6 6 0 0 1 6 6V834a6 6 0 0 1-6 6h-348a6 6 0 0 1-6-6z" stroke="#000" stroke-opacity="0" fill="#fff" fill-opacity="0"/><use xlink:href="#p" transform="matrix(1,0,0,1,-4555,765.6666666666666) translate(17.99691358024691 40.611111111111114)"/><use xlink:href="#q" transform="matrix(1,0,0,1,-4555,765.6666666666666) translate(139.81172839506172 40.611111111111114)"/><path d="M-4387.38 662.53l-1.6-3.68m-3.2-7.36l-3.2-7.38m-3.2-7.36l-3.2-7.36m-3.2-7.36l-3.2-7.37m-3.2-7.36l-3.2-7.35m-3.2-7.37l-3.2-7.36m-3.2-7.36l-3.2-7.36m-3.2-7.37l-3.22-7.36m-3.2-7.36l-3.2-7.36m-3.2-7.36l-3.2-7.36m-3.2-7.36l-3.2-7.37m-3.2-7.37l-3.2-7.36m-3.2-7.37l-3.2-7.36m-3.2-7.36l-3.2-7.36m-3.2-7.37l-3.2-7.36m-3.2-7.37l-3.22-7.37m-3.2-7.36l-3.2-7.36m-3.2-7.37l-3.2-7.36m-3.2-7.35l-1.6-3.68" stroke="#3a414a" stroke-width="2" fill="none"/><path d="M-4381.3 676.53l-9.93-11.23 8.5-3.7zM-4508.7 383.47l9.93 11.23-8.5 3.7z" stroke="#3a414a" stroke-width="2" fill="#3a414a"/><path d="M-4372.62 662.53l1.6-3.68m3.2-7.36l3.2-7.38m3.2-7.36l3.2-7.36m3.2-7.36l3.2-7.37m3.2-7.36l3.2-7.35m3.2-7.37l3.2-7.36m3.2-7.36l3.2-7.36m3.2-7.37l3.22-7.36m3.2-7.36l3.2-7.36m3.2-7.36l3.2-7.36m3.2-7.36l3.2-7.37m3.2-7.37l3.2-7.36m3.2-7.37l3.2-7.36m3.2-7.36l3.2-7.36m3.2-7.37l3.2-7.36m3.2-7.37l3.22-7.37m3.2-7.36l3.2-7.36m3.2-7.37l3.2-7.36m3.2-7.35l1.6-3.68" stroke="#3a414a" stroke-width="2" fill="none"/><path d="M-4378.7 676.53l1.43-14.93 8.5 3.7zM-4251.3 383.47l-1.43 14.93-8.5-3.7z" stroke="#3a414a" stroke-width="2" fill="#3a414a"/><path d="M-4269.67 669.65l3.36-2.12m6.72-4.23l6.73-4.23m6.72-4.23l6.73-4.23m6.73-4.23l6.73-4.23m6.72-4.23l6.73-4.22m6.74-4.23l6.73-4.24m6.72-4.22l6.72-4.23m6.73-4.23l6.73-4.23m6.72-4.24l6.73-4.24m6.73-4.23l6.72-4.24m6.73-4.23l6.74-4.23m6.73-4.24l6.72-4.23m6.72-4.23l6.73-4.23m6.73-4.23l6.72-4.23m6.73-4.23l6.73-4.23m6.73-4.23l6.7-4.22m6.74-4.23l6.73-4.23m6.73-4.24l6.72-4.23m6.73-4.23l6.73-4.23m6.73-4.24l6.73-4.23m6.73-4.24l6.73-4.24m6.72-4.23l6.72-4.23m6.73-4.23l6.73-4.24m6.73-4.23l6.72-4.23m6.73-4.23l6.73-4.23m6.74-4.22l6.72-4.24m6.73-4.23l6.72-4.22m6.73-4.23l6.72-4.23m6.73-4.23l6.73-4.25m6.73-4.23l6.72-4.23m6.73-4.24l6.74-4.23m6.72-4.24l6.73-4.24m6.72-4.23l6.73-4.23m6.72-4.23l3.37-2.12" stroke="#3a414a" stroke-width="2" fill="none"/><path d="M-4282.6 677.78l9.6-11.52 4.95 7.85zM-3812.74 382.22l-9.6 11.52-4.94-7.85z" stroke="#3a414a" stroke-width="2" fill="#3a414a"/><path d="M-4482.72 669.46l-3.37-2.18m-6.74-4.36l-6.74-4.35m-6.75-4.36l-6.75-4.35m-6.74-4.36l-6.75-4.37m-6.74-4.36l-6.76-4.35m-6.75-4.36l-6.75-4.36m-6.75-4.36l-6.74-4.36m-6.75-4.36l-6.74-4.35m-6.74-4.36l-6.75-4.35m-6.74-4.36l-6.75-4.37m-6.75-4.35l-6.74-4.36m-6.76-4.36l-6.74-4.36m-6.75-4.36l-6.75-4.35m-6.74-4.37l-6.75-4.36m-6.73-4.36l-6.75-4.35m-6.75-4.36l-6.74-4.36m-6.75-4.36l-6.74-4.36m-6.75-4.36l-6.76-4.36m-6.74-4.35l-6.75-4.36m-6.74-4.37l-6.74-4.36m-6.74-4.36l-6.75-4.34m-6.75-4.36l-6.74-4.36m-6.75-4.36l-6.74-4.36m-6.76-4.35l-6.75-4.36m-6.75-4.35l-6.75-4.36m-6.74-4.37l-6.75-4.36m-6.74-4.35l-6.74-4.36m-6.75-4.36l-6.74-4.36m-6.75-4.36l-6.74-4.35m-6.75-4.36l-6.76-4.36m-6.74-4.35l-6.75-4.36m-6.74-4.37l-6.74-4.35m-6.75-4.36l-3.36-2.18" stroke="#3a414a" stroke-width="2" fill="none"/><path d="M-4469.9 677.74l-14.5-3.84 5.03-7.8zM-4927.28 382.26l14.5 3.84-5.03 7.8z" stroke="#3a414a" stroke-width="2" fill="#3a414a"/><path d="M-4797.85 662.74l-1.72-3.68m-3.45-7.38l-3.46-7.37m-3.45-7.37l-3.45-7.37m-3.46-7.38l-3.45-7.37m-3.44-7.37l-3.46-7.37m-3.45-7.38l-3.45-7.37m-3.45-7.37l-3.46-7.37m-3.46-7.37l-3.45-7.4m-3.47-7.36l-3.45-7.38m-3.45-7.37l-3.46-7.4m-3.45-7.36l-3.45-7.38m-3.46-7.37l-3.44-7.4m-3.45-7.36l-3.44-7.38m-3.46-7.37l-3.45-7.38m-3.45-7.38l-3.46-7.37m-3.45-7.38l-3.46-7.38m-3.46-7.38l-3.45-7.37m-3.45-7.38l-3.45-7.38m-3.46-7.38l-1.72-3.68" stroke="#3a414a" stroke-width="2" fill="none"/><path d="M-4791.37 676.57l-10.25-10.96 8.4-3.92zM-4928.63 383.43l10.25 10.95-8.4 3.94z" stroke="#3a414a" stroke-width="2" fill="#3a414a"/><path d="M-4545.44 673.74l-3.65-1.66m-7.3-3.32l-7.3-3.32m-7.28-3.32l-7.3-3.32m-7.3-3.32l-7.3-3.32m-7.3-3.32l-7.3-3.33m-7.3-3.3l-7.3-3.33m-7.3-3.32l-7.3-3.32m-7.3-3.32l-7.3-3.3m-7.3-3.33l-7.3-3.32m-7.3-3.32l-7.3-3.32m-7.3-3.3l-7.3-3.33m-7.3-3.32l-7.3-3.33m-7.3-3.3l-7.3-3.34m-7.28-3.32l-7.3-3.32m-7.3-3.32l-7.3-3.32m-7.3-3.32l-7.3-3.32m-7.3-3.32l-7.3-3.32m-7.3-3.32l-7.3-3.32m-7.3-3.32l-7.3-3.32m-7.3-3.32l-7.3-3.33m-7.3-3.33l-7.3-3.32m-7.3-3.32l-7.3-3.32m-7.3-3.3l-7.3-3.33m-7.3-3.32l-7.28-3.32m-7.3-3.32l-7.3-3.3m-7.3-3.33l-7.3-3.32m-7.3-3.32l-7.3-3.33m-7.3-3.32l-7.3-3.32m-7.3-3.32l-7.3-3.32m-7.3-3.32l-7.3-3.32m-7.3-3.32l-7.3-3.32m-7.3-3.32l-7.3-3.32m-7.3-3.32l-7.3-3.32m-7.3-3.32l-7.3-3.32m-7.3-3.33l-7.28-3.33m-7.3-3.32l-7.3-3.32m-7.3-3.32l-7.3-3.3m-7.3-3.33l-7.3-3.32m-7.3-3.32l-7.3-3.32m-7.3-3.3l-7.3-3.33m-7.3-3.32l-7.3-3.32m-7.3-3.32l-7.3-3.32m-7.3-3.32l-7.3-3.32m-7.3-3.32l-3.64-1.66" stroke="#3a414a" stroke-width="2" fill="none"/><path d="M-4531.54 680.06l-14.9-1.7 3.83-8.42zM-5187.05 381.84l14.9 1.7-3.84 8.43z" stroke="#3a414a" stroke-width="2" fill="#3a414a"/><path d="M-4884.5 666.85l-2.92-2.74m-5.84-5.46l-5.84-5.48m-5.84-5.47l-5.84-5.5m-5.84-5.46l-5.84-5.47m-5.84-5.48l-5.84-5.48m-5.84-5.48l-5.84-5.47m-5.84-5.47l-5.84-5.48m-5.84-5.47l-5.84-5.47m-5.84-5.48l-5.84-5.47m-5.84-5.48l-5.84-5.47m-5.84-5.47l-5.84-5.47m-5.84-5.47l-5.84-5.48m-5.84-5.47l-5.84-5.46m-5.84-5.48l-5.84-5.47m-5.84-5.48l-5.84-5.48m-5.84-5.47l-5.84-5.48m-5.84-5.48l-5.84-5.47m-5.84-5.48l-5.84-5.47m-5.84-5.48l-5.84-5.47m-5.84-5.47l-5.84-5.48m-5.84-5.47l-5.84-5.48m-5.84-5.47l-5.84-5.47m-5.84-5.47l-5.84-5.47m-5.84-5.47l-5.84-5.5m-5.84-5.46l-5.84-5.48m-5.84-5.47l-2.92-2.75" stroke="#3a414a" stroke-width="2" fill="none"/><path d="M-4873.36 677.3l-13.58-6.4 6.34-6.75zM-5187.64 382.7l13.58 6.4-6.34 6.75z" stroke="#3a414a" stroke-width="2" fill="#3a414a"/><path d="M-4214.56 673.74l3.65-1.66m7.3-3.32l7.3-3.32m7.28-3.32l7.3-3.32m7.3-3.32l7.3-3.32m7.3-3.32l7.3-3.33m7.3-3.3l7.3-3.33m7.3-3.32l7.3-3.32m7.3-3.32l7.3-3.3m7.3-3.33l7.3-3.32m7.3-3.32l7.3-3.32m7.3-3.3l7.3-3.33m7.3-3.32l7.3-3.33m7.3-3.3l7.3-3.34m7.28-3.32l7.3-3.32m7.3-3.32l7.3-3.32m7.3-3.32l7.3-3.32m7.3-3.32l7.3-3.32m7.3-3.32l7.3-3.32m7.3-3.32l7.3-3.32m7.3-3.32l7.3-3.33m7.3-3.33l7.3-3.32m7.3-3.32l7.3-3.32m7.3-3.3l7.3-3.33m7.3-3.32l7.28-3.32m7.3-3.32l7.3-3.3m7.3-3.33l7.3-3.32m7.3-3.32l7.3-3.33m7.3-3.32l7.3-3.32m7.3-3.32l7.3-3.32m7.3-3.32l7.3-3.32m7.3-3.32l7.3-3.32m7.3-3.32l7.3-3.32m7.3-3.32l7.3-3.32m7.3-3.32l7.3-3.32m7.3-3.33l7.3-3.33m7.28-3.32l7.3-3.32m7.3-3.32l7.3-3.3m7.3-3.33l7.3-3.32m7.3-3.32l7.3-3.32m7.3-3.3l7.3-3.33m7.3-3.32l7.3-3.32m7.3-3.32l7.3-3.32m7.3-3.32l7.3-3.32m7.3-3.32l3.64-1.66" stroke="#3a414a" stroke-width="2" fill="none"/><path d="M-4228.46 680.06l11.07-10.12 3.85 8.43zM-3572.95 381.84l-11.06 10.13-3.85-8.44z" stroke="#3a414a" stroke-width="2" fill="#3a414a"/><path d="M-4250 241V125a6 6 0 0 1 6-6h542.34a6 6 0 0 1 6 6v88.38" stroke="#3a414a" stroke-width="2" fill="none"/><path d="M-4250 256.26l-4.64-14.26h9.28z" stroke="#3a414a" stroke-width="2" fill="#3a414a"/><path d="M-3695.66 213.36v1.02M-4380 103.17v37.33" stroke="#3a414a" stroke-width="2" fill="none"/><path d="M-4380 87.9l4.64 14.27h-9.28zM-4380 155.76l-4.64-14.26h9.28z" stroke="#3a414a" stroke-width="2" fill="#3a414a"/><path d="M-4500 46a6 6 0 0 1 6-6h228a6 6 0 0 1 6 6v32.67a6 6 0 0 1-6 6h-228a6 6 0 0 1-6-6z" stroke="#000" stroke-opacity="0" fill="#fff" fill-opacity="0"/><use xlink:href="#r" transform="matrix(1,0,0,1,-4495,45) translate(26.929012345679013 25.29861111111111)"/><use xlink:href="#s" transform="matrix(1,0,0,1,-4495,45) translate(108.54012345679013 25.29861111111111)"/><path d="M-3960.27 663.2c0 .54-.45 1-1 1s-1-.46-1-1c0-.57.45-1 1-1s1 .43 1 1zm1.88-3.52c0 .55-.44 1-1 1-.55 0-1-.45-1-1s.45-1 1-1c.56 0 1 .45 1 1zm1.88-3.5c0 .55-.45 1-1 1s-1-.45-1-1 .45-1 1-1 1 .45 1 1zm1.88-3.5c0 .54-.45 1-1 1-.56 0-1-.46-1-1 0-.56.44-1 1-1 .55 0 1 .44 1 1zm1.87-3.5c0 .54-.45 1-1 1s-1-.46-1-1c0-.56.45-1 1-1s1 .44 1 1zm1.88-3.52c0 .56-.44 1-1 1-.55 0-1-.44-1-1 0-.55.45-1 1-1 .56 0 1 .45 1 1zm1.88-3.5c0 .55-.45 1-1 1s-1-.45-1-1 .45-1 1-1 1 .45 1 1zm1.88-3.5c0 .55-.45 1-1 1s-1-.45-1-1c0-.56.45-1 1-1s1 .44 1 1zm1.87-3.5c0 .54-.44 1-1 1-.55 0-1-.46-1-1 0-.56.45-1 1-1 .56 0 1 .44 1 1zm1.88-3.52c0 .56-.44 1-1 1-.54 0-1-.44-1-1 0-.55.46-1 1-1 .56 0 1 .45 1 1zm1.9-3.5c0 .55-.46 1-1 1-.57 0-1-.45-1-1s.43-1 1-1c.54 0 1 .45 1 1zm1.86-3.5c0 .54-.45 1-1 1s-1-.46-1-1c0-.56.45-1 1-1s1 .44 1 1zm1.88-3.5c0 .54-.45 1-1 1-.56 0-1-.46-1-1 0-.56.44-1 1-1 .55 0 1 .44 1 1zm1.87-3.52c0 .55-.44 1-1 1-.54 0-1-.45-1-1s.46-1 1-1c.56 0 1 .45 1 1zm1.9-3.5c0 .55-.46 1-1 1-.57 0-1-.45-1-1s.43-1 1-1c.54 0 1 .45 1 1zm1.86-3.5c0 .54-.45 1-1 1s-1-.46-1-1c0-.56.45-1 1-1s1 .44 1 1zm1.88-3.5c0 .54-.45 1-1 1s-1-.46-1-1c0-.56.45-1 1-1s1 .44 1 1zm1.87-3.52c0 .56-.43 1-1 1-.54 0-1-.44-1-1 0-.55.46-1 1-1 .57 0 1 .45 1 1zm1.9-3.5c0 .55-.46 1-1 1-.56 0-1-.45-1-1s.44-1 1-1c.54 0 1 .45 1 1zm1.86-3.5c0 .55-.44 1-1 1-.55 0-1-.45-1-1 0-.56.45-1 1-1 .56 0 1 .44 1 1zm1.88-3.5c0 .54-.45 1-1 1s-1-.46-1-1c0-.56.45-1 1-1s1 .44 1 1zm1.88-3.52c0 .56-.45 1-1 1-.56 0-1-.44-1-1 0-.55.44-1 1-1 .55 0 1 .45 1 1zm1.87-3.5c0 .55-.46 1-1 1-.56 0-1-.45-1-1s.44-1 1-1c.54 0 1 .45 1 1zm1.87-3.5c0 .55-.45 1-1 1s-1-.45-1-1c0-.56.45-1 1-1s1 .44 1 1zm1.87-3.5c0 .54-.44 1-1 1-.55 0-1-.46-1-1 0-.56.45-1 1-1 .56 0 1 .44 1 1zm1.88-3.52c0 .56-.45 1-1 1s-1-.44-1-1c0-.55.45-1 1-1s1 .45 1 1zm1.87-3.5c0 .55-.45 1-1 1-.56 0-1-.45-1-1s.44-1 1-1c.55 0 1 .45 1 1zm1.87-3.5c0 .55-.45 1-1 1s-1-.45-1-1c0-.56.45-1 1-1s1 .44 1 1zm1.88-3.5c0 .54-.45 1-1 1-.56 0-1-.46-1-1 0-.56.44-1 1-1 .55 0 1 .44 1 1zm1.87-3.52c0 .56-.45 1-1 1s-1-.44-1-1c0-.55.45-1 1-1s1 .45 1 1zm1.88-3.5c0 .55-.45 1-1 1-.56 0-1-.45-1-1s.44-1 1-1c.55 0 1 .45 1 1zm1.87-3.5c0 .55-.45 1-1 1s-1-.45-1-1c0-.56.45-1 1-1s1 .44 1 1zm1.88-3.5c0 .54-.45 1-1 1-.56 0-1-.46-1-1 0-.56.44-1 1-1 .55 0 1 .44 1 1zm1.87-3.5c0 .54-.44 1-1 1-.55 0-1-.46-1-1 0-.57.45-1 1-1 .56 0 1 .43 1 1zm1.88-3.52c0 .55-.45 1-1 1s-1-.45-1-1 .45-1 1-1 1 .45 1 1zm1.87-3.5c0 .55-.44 1-1 1-.55 0-1-.45-1-1 0-.56.45-1 1-1 .56 0 1 .44 1 1zm1.88-3.5c0 .54-.45 1-1 1s-1-.46-1-1c0-.56.45-1 1-1s1 .44 1 1zm1.87-3.5c0 .54-.44 1-1 1-.55 0-1-.46-1-1 0-.57.45-1 1-1 .56 0 1 .43 1 1zm1.88-3.52c0 .55-.45 1-1 1s-1-.45-1-1 .45-1 1-1 1 .45 1 1zm1.88-3.5c0 .55-.45 1-1 1-.56 0-1-.45-1-1 0-.56.44-1 1-1 .55 0 1 .44 1 1zm1.87-3.5c0 .54-.45 1-1 1s-1-.46-1-1c0-.56.45-1 1-1s1 .44 1 1zm1.88-3.5c0 .54-.45 1-1 1-.56 0-1-.46-1-1 0-.57.44-1 1-1 .55 0 1 .43 1 1zm1.87-3.52c0 .55-.45 1-1 1s-1-.45-1-1 .45-1 1-1 1 .45 1 1zm1.88-3.5c0 .55-.45 1-1 1-.56 0-1-.45-1-1 0-.56.44-1 1-1 .55 0 1 .44 1 1zm1.87-3.5c0 .54-.44 1-1 1-.55 0-1-.46-1-1 0-.56.45-1 1-1 .56 0 1 .44 1 1zm1.88-3.5c0 .54-.45 1-1 1s-1-.46-1-1c0-.57.45-1 1-1s1 .43 1 1zm1.87-3.52c0 .55-.44 1-1 1-.55 0-1-.45-1-1s.45-1 1-1c.56 0 1 .45 1 1zm1.88-3.5c0 .55-.45 1-1 1s-1-.45-1-1c0-.56.45-1 1-1s1 .44 1 1zm1.88-3.5c0 .54-.45 1-1 1-.56 0-1-.46-1-1 0-.56.44-1 1-1 .55 0 1 .44 1 1zm1.87-3.5c0 .54-.45 1-1 1s-1-.46-1-1c0-.57.45-1 1-1s1 .43 1 1zm1.88-3.52c0 .55-.44 1-1 1-.55 0-1-.45-1-1s.45-1 1-1c.56 0 1 .45 1 1zm1.88-3.5c0 .55-.45 1-1 1s-1-.45-1-1c0-.56.45-1 1-1s1 .44 1 1zm1.88-3.5c0 .54-.45 1-1 1-.56 0-1-.46-1-1 0-.56.44-1 1-1 .55 0 1 .44 1 1zm1.87-3.5c0 .54-.45 1-1 1s-1-.46-1-1c0-.57.45-1 1-1s1 .43 1 1zm1.88-3.52c0 .55-.44 1-1 1-.54 0-1-.45-1-1s.46-1 1-1c.56 0 1 .45 1 1zm1.88-3.5c0 .55-.44 1-1 1-.55 0-1-.45-1-1 0-.56.45-1 1-1 .56 0 1 .44 1 1zm1.88-3.5c0 .54-.45 1-1 1s-1-.46-1-1c0-.56.45-1 1-1s1 .44 1 1zm1.88-3.5c0 .54-.45 1-1 1-.56 0-1-.46-1-1 0-.57.44-1 1-1 .55 0 1 .43 1 1zm1.87-3.52c0 .55-.44 1-1 1-.54 0-1-.45-1-1s.46-1 1-1c.56 0 1 .45 1 1zm1.9-3.5c0 .55-.46 1-1 1-.57 0-1-.45-1-1 0-.56.43-1 1-1 .54 0 1 .44 1 1zm1.86-3.5c0 .54-.45 1-1 1s-1-.46-1-1c0-.56.45-1 1-1s1 .44 1 1zm1.88-3.5c0 .54-.45 1-1 1s-1-.46-1-1c0-.56.45-1 1-1s1 .44 1 1zm1.87-3.52c0 .55-.43 1-1 1-.54 0-1-.45-1-1s.46-1 1-1c.57 0 1 .45 1 1zm1.9-3.5c0 .55-.46 1-1 1-.56 0-1-.45-1-1 0-.56.44-1 1-1 .54 0 1 .44 1 1zm1.86-3.5c0 .54-.44 1-1 1-.55 0-1-.46-1-1 0-.56.45-1 1-1 .56 0 1 .44 1 1zm1.88-3.5c0 .54-.45 1-1 1s-1-.46-1-1c0-.56.45-1 1-1s1 .44 1 1zm1.88-3.52c0 .56-.45 1-1 1-.56 0-1-.44-1-1 0-.55.44-1 1-1 .55 0 1 .45 1 1zm1.87-3.5c0 .55-.46 1-1 1-.56 0-1-.45-1-1 0-.56.44-1 1-1 .54 0 1 .44 1 1zm1.87-3.5c0 .54-.45 1-1 1-.56 0-1-.46-1-1 0-.56.44-1 1-1 .55 0 1 .44 1 1zm1.87-3.5c0 .54-.45 1-1 1s-1-.46-1-1c0-.56.45-1 1-1s1 .44 1 1zm1.88-3.52c0 .56-.45 1-1 1s-1-.44-1-1c0-.55.45-1 1-1s1 .45 1 1zm1.87-3.5c0 .55-.45 1-1 1-.56 0-1-.45-1-1s.44-1 1-1c.55 0 1 .45 1 1zm1.87-3.5c0 .55-.45 1-1 1s-1-.45-1-1c0-.56.45-1 1-1s1 .44 1 1zm1.87-3.5c0 .54-.44 1-1 1-.55 0-1-.46-1-1 0-.56.45-1 1-1 .56 0 1 .44 1 1zm1.88-3.52c0 .56-.45 1-1 1s-1-.44-1-1c0-.55.45-1 1-1s1 .45 1 1zm1.88-3.5c0 .55-.45 1-1 1-.56 0-1-.45-1-1s.44-1 1-1c.55 0 1 .45 1 1zm1.87-3.5c0 .55-.45 1-1 1s-1-.45-1-1c0-.56.45-1 1-1s1 .44 1 1z" fill="#3a414a"/><path d="M-3968.47 676.65l2.64-14.77 8.17 4.38zM-3811.53 383.35l-2.64 14.77-8.17-4.38z" stroke="#3a414a" stroke-width="2" fill="#3a414a"/><path d="M-3850.03 666.3c0 .56-.45 1-1 1s-1-.44-1-1c0-.54.45-1 1-1s1 .46 1 1zm2.8-2.83c0 .55-.45 1-1 1-.56 0-1-.45-1-1 0-.56.44-1 1-1 .55 0 1 .44 1 1zm2.8-2.84c0 .55-.46 1-1 1-.57 0-1-.45-1-1s.43-1 1-1c.54 0 1 .45 1 1zm2.78-2.84c0 .54-.45 1-1 1s-1-.46-1-1c0-.56.45-1 1-1s1 .44 1 1zm2.8-2.85c0 .55-.46 1-1 1-.56 0-1-.45-1-1s.44-1 1-1c.54 0 1 .45 1 1zm2.78-2.84c0 .56-.44 1-1 1-.55 0-1-.44-1-1 0-.54.45-1 1-1 .56 0 1 .46 1 1zm2.8-2.83c0 .55-.45 1-1 1-.56 0-1-.45-1-1s.44-1 1-1c.55 0 1 .45 1 1zm2.8-2.84c0 .55-.46 1-1 1-.56 0-1-.45-1-1s.44-1 1-1c.54 0 1 .45 1 1zm2.78-2.84c0 .54-.44 1-1 1-.54 0-1-.46-1-1 0-.56.46-1 1-1 .56 0 1 .44 1 1zm2.8-2.85c0 .55-.44 1-1 1-.55 0-1-.45-1-1s.45-1 1-1c.56 0 1 .45 1 1zm2.8-2.84c0 .56-.45 1-1 1-.56 0-1-.44-1-1 0-.54.44-1 1-1 .55 0 1 .46 1 1zm2.8-2.83c0 .55-.46 1-1 1-.56 0-1-.45-1-1s.44-1 1-1c.54 0 1 .45 1 1zm2.78-2.84c0 .55-.45 1-1 1s-1-.45-1-1 .45-1 1-1 1 .45 1 1zm2.8-2.84c0 .54-.46 1-1 1-.56 0-1-.46-1-1 0-.56.44-1 1-1 .54 0 1 .44 1 1zm2.78-2.85c0 .55-.44 1-1 1-.55 0-1-.45-1-1s.45-1 1-1c.56 0 1 .45 1 1zm2.8-2.84c0 .56-.45 1-1 1-.56 0-1-.44-1-1 0-.54.44-1 1-1 .55 0 1 .46 1 1zm2.8-2.83c0 .55-.46 1-1 1-.56 0-1-.45-1-1s.44-1 1-1c.54 0 1 .45 1 1zm2.78-2.84c0 .55-.45 1-1 1s-1-.45-1-1 .45-1 1-1 1 .45 1 1zm2.8-2.84c0 .54-.45 1-1 1-.56 0-1-.46-1-1 0-.56.44-1 1-1 .55 0 1 .44 1 1zm2.8-2.85c0 .55-.46 1-1 1-.57 0-1-.45-1-1s.43-1 1-1c.54 0 1 .45 1 1zm2.78-2.84c0 .57-.45 1-1 1-.56 0-1-.43-1-1 0-.54.44-1 1-1 .55 0 1 .46 1 1zm2.8-2.83c0 .56-.46 1-1 1-.56 0-1-.44-1-1 0-.55.44-1 1-1 .54 0 1 .45 1 1zm2.78-2.84c0 .55-.45 1-1 1s-1-.45-1-1 .45-1 1-1 1 .45 1 1zm2.8-2.84c0 .55-.45 1-1 1-.56 0-1-.45-1-1 0-.56.44-1 1-1 .55 0 1 .44 1 1zm2.8-2.85c0 .56-.46 1-1 1-.57 0-1-.44-1-1 0-.55.43-1 1-1 .54 0 1 .45 1 1zm2.78-2.84c0 .57-.45 1-1 1s-1-.43-1-1c0-.54.45-1 1-1s1 .46 1 1zm2.8-2.83c0 .56-.46 1-1 1-.56 0-1-.44-1-1 0-.55.44-1 1-1 .54 0 1 .45 1 1zm2.78-2.84c0 .56-.45 1-1 1s-1-.44-1-1c0-.55.45-1 1-1s1 .45 1 1zm2.8-2.84c0 .55-.45 1-1 1-.56 0-1-.45-1-1 0-.56.44-1 1-1 .55 0 1 .44 1 1zm2.8-2.84c0 .55-.46 1-1 1-.57 0-1-.45-1-1 0-.56.43-1 1-1 .54 0 1 .44 1 1zm2.78-2.85c0 .57-.45 1-1 1s-1-.43-1-1c0-.54.45-1 1-1s1 .46 1 1zm2.8-2.82c0 .55-.46 1-1 1-.56 0-1-.45-1-1 0-.56.44-1 1-1 .54 0 1 .44 1 1zm2.78-2.84c0 .55-.44 1-1 1-.55 0-1-.45-1-1 0-.56.45-1 1-1 .56 0 1 .44 1 1zm2.8-2.84c0 .55-.45 1-1 1-.56 0-1-.45-1-1 0-.56.44-1 1-1 .55 0 1 .44 1 1zm2.8-2.84c0 .55-.46 1-1 1-.56 0-1-.45-1-1 0-.56.44-1 1-1 .54 0 1 .44 1 1zm2.78-2.84c0 .55-.45 1-1 1s-1-.45-1-1c0-.56.45-1 1-1s1 .44 1 1zm2.8-2.84c0 .55-.45 1-1 1-.56 0-1-.45-1-1 0-.56.44-1 1-1 .55 0 1 .44 1 1zm2.78-2.84c0 .55-.44 1-1 1-.55 0-1-.45-1-1 0-.56.45-1 1-1 .56 0 1 .44 1 1zm2.8-2.84c0 .55-.45 1-1 1s-1-.45-1-1 .45-1 1-1 1 .45 1 1zm2.8-2.84c0 .55-.46 1-1 1-.56 0-1-.45-1-1s.44-1 1-1c.54 0 1 .45 1 1zm2.78-2.84c0 .55-.45 1-1 1s-1-.45-1-1 .45-1 1-1 1 .45 1 1zm2.8-2.84c0 .55-.45 1-1 1-.56 0-1-.45-1-1s.44-1 1-1c.55 0 1 .45 1 1zm2.8-2.84c0 .55-.46 1-1 1-.57 0-1-.45-1-1s.43-1 1-1c.54 0 1 .45 1 1zm2.78-2.84c0 .55-.45 1-1 1s-1-.45-1-1 .45-1 1-1 1 .45 1 1zm2.8-2.84c0 .55-.46 1-1 1-.56 0-1-.45-1-1s.44-1 1-1c.54 0 1 .45 1 1zm2.78-2.84c0 .55-.44 1-1 1-.55 0-1-.45-1-1s.45-1 1-1c.56 0 1 .45 1 1zm2.8-2.84c0 .55-.45 1-1 1-.56 0-1-.45-1-1s.44-1 1-1c.55 0 1 .45 1 1zm2.8-2.84c0 .55-.46 1-1 1-.56 0-1-.45-1-1s.44-1 1-1c.54 0 1 .45 1 1zm2.78-2.84c0 .55-.45 1-1 1s-1-.45-1-1 .45-1 1-1 1 .45 1 1zm2.8-2.84c0 .55-.46 1-1 1-.56 0-1-.45-1-1s.44-1 1-1c.54 0 1 .45 1 1zm2.78-2.84c0 .55-.44 1-1 1-.55 0-1-.45-1-1s.45-1 1-1c.56 0 1 .45 1 1zm2.8-2.84c0 .55-.45 1-1 1-.56 0-1-.45-1-1s.44-1 1-1c.55 0 1 .45 1 1zm2.8-2.84c0 .55-.46 1-1 1-.56 0-1-.45-1-1s.44-1 1-1c.54 0 1 .45 1 1zm2.78-2.84c0 .55-.45 1-1 1s-1-.45-1-1 .45-1 1-1 1 .45 1 1zm2.8-2.84c0 .55-.45 1-1 1-.56 0-1-.45-1-1s.44-1 1-1c.55 0 1 .45 1 1zm2.8-2.84c0 .55-.46 1-1 1-.57 0-1-.45-1-1s.43-1 1-1c.54 0 1 .45 1 1zm2.78-2.84c0 .55-.45 1-1 1s-1-.45-1-1 .45-1 1-1 1 .45 1 1zm2.8-2.84c0 .56-.46 1-1 1-.56 0-1-.44-1-1 0-.55.44-1 1-1 .54 0 1 .45 1 1zm2.78-2.84c0 .55-.45 1-1 1s-1-.45-1-1 .45-1 1-1 1 .45 1 1zm2.8-2.84c0 .56-.45 1-1 1-.56 0-1-.44-1-1 0-.55.44-1 1-1 .55 0 1 .45 1 1zm2.8-2.84c0 .56-.46 1-1 1-.57 0-1-.44-1-1 0-.55.43-1 1-1 .54 0 1 .45 1 1zm2.78-2.84c0 .56-.45 1-1 1s-1-.44-1-1c0-.55.45-1 1-1s1 .45 1 1zm2.8-2.84c0 .56-.46 1-1 1-.56 0-1-.44-1-1 0-.55.44-1 1-1 .54 0 1 .45 1 1zm2.78-2.84c0 .56-.44 1-1 1-.55 0-1-.44-1-1 0-.55.45-1 1-1 .56 0 1 .45 1 1zm2.8-2.84c0 .56-.45 1-1 1-.56 0-1-.44-1-1 0-.55.44-1 1-1 .55 0 1 .45 1 1zm2.8-2.84c0 .56-.46 1-1 1-.56 0-1-.44-1-1 0-.55.44-1 1-1 .54 0 1 .45 1 1zm2.78-2.84c0 .56-.45 1-1 1s-1-.44-1-1c0-.55.45-1 1-1s1 .45 1 1zm2.8-2.83c0 .55-.45 1-1 1-.56 0-1-.45-1-1 0-.56.44-1 1-1 .55 0 1 .44 1 1zm2.78-2.85c0 .56-.44 1-1 1-.55 0-1-.44-1-1 0-.55.45-1 1-1 .56 0 1 .45 1 1zm2.8-2.83c0 .55-.45 1-1 1s-1-.45-1-1c0-.56.45-1 1-1s1 .44 1 1zm2.8-2.84c0 .55-.46 1-1 1-.56 0-1-.45-1-1 0-.56.44-1 1-1 .54 0 1 .44 1 1zm2.78-2.84c0 .54-.45 1-1 1s-1-.46-1-1c0-.57.45-1 1-1s1 .43 1 1zm2.8-2.85c0 .55-.45 1-1 1-.56 0-1-.45-1-1 0-.56.44-1 1-1 .55 0 1 .44 1 1zm2.8-2.84c0 .56-.46 1-1 1-.57 0-1-.44-1-1 0-.55.43-1 1-1 .54 0 1 .45 1 1zm2.78-2.83c0 .55-.45 1-1 1s-1-.45-1-1c0-.56.45-1 1-1s1 .44 1 1zm2.8-2.84c0 .55-.46 1-1 1-.56 0-1-.45-1-1 0-.56.44-1 1-1 .54 0 1 .44 1 1zm2.78-2.84c0 .54-.44 1-1 1-.55 0-1-.46-1-1 0-.56.45-1 1-1 .56 0 1 .44 1 1zm2.8-2.85c0 .55-.45 1-1 1-.56 0-1-.45-1-1s.44-1 1-1c.55 0 1 .45 1 1zm2.8-2.84c0 .56-.46 1-1 1-.57 0-1-.44-1-1 0-.54.43-1 1-1 .54 0 1 .46 1 1zm2.78-2.83c0 .55-.45 1-1 1s-1-.45-1-1 .45-1 1-1 1 .45 1 1zm2.8-2.84c0 .55-.46 1-1 1-.56 0-1-.45-1-1s.44-1 1-1c.54 0 1 .45 1 1zm2.78-2.84c0 .54-.44 1-1 1-.55 0-1-.46-1-1 0-.56.45-1 1-1 .56 0 1 .44 1 1zm2.8-2.85c0 .55-.45 1-1 1-.56 0-1-.45-1-1s.44-1 1-1c.55 0 1 .45 1 1zm2.8-2.84c0 .56-.46 1-1 1-.56 0-1-.44-1-1 0-.54.44-1 1-1 .54 0 1 .46 1 1zm2.78-2.83c0 .55-.45 1-1 1s-1-.45-1-1 .45-1 1-1 1 .45 1 1zm2.8-2.84c0 .55-.46 1-1 1-.56 0-1-.45-1-1s.44-1 1-1c.54 0 1 .45 1 1zm2.78-2.84c0 .54-.44 1-1 1-.55 0-1-.46-1-1 0-.56.45-1 1-1 .56 0 1 .44 1 1zm2.8-2.85c0 .55-.45 1-1 1-.56 0-1-.45-1-1s.44-1 1-1c.55 0 1 .45 1 1zm2.8-2.84c0 .56-.46 1-1 1-.56 0-1-.44-1-1 0-.54.44-1 1-1 .54 0 1 .46 1 1zm2.78-2.83c0 .55-.45 1-1 1s-1-.45-1-1 .45-1 1-1 1 .45 1 1zm2.8-2.84c0 .55-.45 1-1 1-.56 0-1-.45-1-1s.44-1 1-1c.55 0 1 .45 1 1zm2.8-2.84c0 .54-.46 1-1 1-.57 0-1-.46-1-1 0-.56.43-1 1-1 .54 0 1 .44 1 1zm2.78-2.85c0 .55-.45 1-1 1s-1-.45-1-1 .45-1 1-1 1 .45 1 1zm2.8-2.84c0 .56-.46 1-1 1-.56 0-1-.44-1-1 0-.54.44-1 1-1 .54 0 1 .46 1 1zm2.78-2.83c0 .55-.44 1-1 1-.55 0-1-.45-1-1s.45-1 1-1c.56 0 1 .45 1 1zm2.8-2.84c0 .56-.45 1-1 1-.56 0-1-.44-1-1 0-.55.44-1 1-1 .55 0 1 .45 1 1zm2.8-2.84c0 .55-.46 1-1 1-.56 0-1-.45-1-1 0-.56.44-1 1-1 .54 0 1 .44 1 1z" fill="#3a414a"/><path d="M-3861.73 677.2l6.7-13.43 6.6 6.5zM-3572.27 382.8l-6.7 13.43-6.6-6.5z" stroke="#3a414a" stroke-width="2" fill="#3a414a"/><path d="M-3658.5 775h30.26M-3658.46 775h-1.54" stroke="#3a414a" stroke-width="3" fill="none"/><path d="M-3612.47 775l-14.27 4.63v-9.26z" stroke="#3a414a" stroke-width="3" fill="#3a414a"/><path d="M-3658.5 815h7.57m15.13 0h7.56M-3658.46 815h-1.54" stroke="#3a414a" stroke-width="3" fill="none"/><path d="M-3612.47 815l-14.27 4.63v-9.26z" stroke="#3a414a" stroke-width="3" fill="#3a414a"/><path d="M-3657 848.33c0 .83-.67 1.5-1.5 1.5s-1.5-.67-1.5-1.5.67-1.5 1.5-1.5 1.5.67 1.5 1.5zm6.05 0c0 .83-.67 1.5-1.5 1.5s-1.5-.67-1.5-1.5.67-1.5 1.5-1.5 1.5.67 1.5 1.5zm6.05 0c0 .83-.67 1.5-1.5 1.5-.82 0-1.5-.67-1.5-1.5s.68-1.5 1.5-1.5c.83 0 1.5.67 1.5 1.5zm6.06 0c0 .83-.67 1.5-1.5 1.5s-1.5-.67-1.5-1.5.67-1.5 1.5-1.5 1.5.67 1.5 1.5zm6.05 0c0 .83-.66 1.5-1.5 1.5-.82 0-1.5-.67-1.5-1.5s.68-1.5 1.5-1.5c.84 0 1.5.67 1.5 1.5z" fill="#3a414a"/><path d="M-3658.46 848.33h-1.54" stroke="#3a414a" stroke-width="3" fill="none"/><path d="M-3612.47 848.33l-14.27 4.64v-9.27z" stroke="#3a414a" stroke-width="3" fill="#3a414a"/><path d="M-3607.62 766a6 6 0 0 1 6-6h92.76a6 6 0 0 1 6 6v18a6 6 0 0 1-6 6h-92.76a6 6 0 0 1-6-6z" stroke="#000" stroke-opacity="0" fill="#fff" fill-opacity="0"/><use xlink:href="#t" transform="matrix(1,0,0,1,-3602.6190476190477,765) translate(0 19.555555555555554)"/><path d="M-3607.62 839.33a6 6 0 0 1 6-6H-3446a6 6 0 0 1 6 6v18a6 6 0 0 1-6 6h-155.62a6 6 0 0 1-6-6z" stroke="#000" stroke-opacity="0" fill="#fff" fill-opacity="0"/><use xlink:href="#u" transform="matrix(1,0,0,1,-3602.6190476190477,838.3333333333334) translate(0 19.555555555555554)"/><path d="M-3607.62 806a6 6 0 0 1 6-6h113.7a6 6 0 0 1 6 6v18a6 6 0 0 1-6 6h-113.7a6 6 0 0 1-6-6z" stroke="#000" stroke-opacity="0" fill="#fff" fill-opacity="0"/><use xlink:href="#v" transform="matrix(1,0,0,1,-3602.6190476190473,805) translate(0 19.555555555555554)"/><path d="M-3694.76 552a12 12 0 0 1 12-12h276a12 12 0 0 1 12 12v198.96a12 12 0 0 1-12 12h-276a12 12 0 0 1-12-12z" stroke="#000" stroke-opacity="0" stroke-width="2" fill-opacity="0"/><path d="M-3638.76 613.6c0 6.63-5.37 12-12 12s-12-5.37-12-12 5.37-12 12-12 12 5.37 12 12z" stroke="#000" stroke-opacity=".25" fill="#cfe4ff"/><path d="M-3638.76 651.2c0 6.63-5.37 12-12 12s-12-5.37-12-12 5.37-12 12-12 12 5.37 12 12z" stroke="#000" stroke-opacity=".25" fill="#ffdda6"/><path d="M-3638.76 688.8c0 6.63-5.37 12-12 12s-12-5.37-12-12 5.37-12 12-12 12 5.37 12 12z" stroke="#000" stroke-opacity=".25" fill="#dedeff"/><use xlink:href="#w" transform="matrix(1,0,0,1,-3662.7619047619046,564) translate(0 19.933333333333334)"/><g><use xlink:href="#x" transform="matrix(1,0,0,1,-3626.7619047619046,639.2) translate(0 19.933333333333334)"/><use xlink:href="#y" transform="matrix(1,0,0,1,-3626.7619047619046,639.2) translate(65.57222222222221 19.933333333333334)"/></g><g><use xlink:href="#z" transform="matrix(1,0,0,1,-3626.7619047619046,676.8) translate(0 20.153333333333336)"/><use xlink:href="#A" transform="matrix(1,0,0,1,-3626.7619047619046,676.8) translate(0 52.71333333333334)"/></g><g><use xlink:href="#x" transform="matrix(1,0,0,1,-3626.7619047619046,601.6) translate(0 19.933333333333334)"/><use xlink:href="#B" transform="matrix(1,0,0,1,-3626.7619047619046,601.6) translate(65.57222222222221 19.933333333333334)"/></g><path d="M-3810 241v-20.62a6 6 0 0 1 6-6h228a6 6 0 0 1 6 6V241" stroke="#3a414a" stroke-width="2" fill="none"/><path d="M-3810 256.26l-4.64-14.26h9.28zM-3570 256.26l-4.64-14.26h9.28z" stroke="#3a414a" stroke-width="2" fill="#3a414a"/><defs><path d="M212-179c-10-28-35-45-73-45-59 0-87 40-87 99 0 60 29 101 89 101 43 0 62-24 78-52l27 14C228-24 195 4 139 4 59 4 22-46 18-125c-6-104 99-153 187-111 19 9 31 26 39 46" id="C"/><path d="M100-194c62-1 85 37 85 99 1 63-27 99-86 99S16-35 15-95c0-66 28-99 85-99zM99-20c44 1 53-31 53-75 0-43-8-75-51-75s-53 32-53 75 10 74 51 75" id="D"/><path d="M114-163C36-179 61-72 57 0H25l-1-190h30c1 12-1 29 2 39 6-27 23-49 58-41v29" id="E"/><path d="M85-194c31 0 48 13 60 33l-1-100h32l1 261h-30c-2-10 0-23-3-31C134-8 116 4 85 4 32 4 16-35 15-94c0-66 23-100 70-100zm9 24c-40 0-46 34-46 75 0 40 6 74 45 74 42 0 51-32 51-76 0-42-9-74-50-73" id="F"/><path d="M24-231v-30h32v30H24zM24 0v-190h32V0H24" id="G"/><path d="M117-194c89-4 53 116 60 194h-32v-121c0-31-8-49-39-48C34-167 62-67 57 0H25l-1-190h30c1 10-1 24 2 32 11-22 29-35 61-36" id="H"/><path d="M141-36C126-15 110 5 73 4 37 3 15-17 15-53c-1-64 63-63 125-63 3-35-9-54-41-54-24 1-41 7-42 31l-33-3c5-37 33-52 76-52 45 0 72 20 72 64v82c-1 20 7 32 28 27v20c-31 9-61-2-59-35zM48-53c0 20 12 33 32 33 41-3 63-29 60-74-43 2-92-5-92 41" id="I"/><path d="M59-47c-2 24 18 29 38 22v24C64 9 27 4 27-40v-127H5v-23h24l9-43h21v43h35v23H59v120" id="J"/><g id="a"><use transform="matrix(0.08024691358024691,0,0,0.08024691358024691,0,0)" xlink:href="#C"/><use transform="matrix(0.08024691358024691,0,0,0.08024691358024691,20.78395061728395,0)" xlink:href="#D"/><use transform="matrix(0.08024691358024691,0,0,0.08024691358024691,36.83333333333333,0)" xlink:href="#D"/><use transform="matrix(0.08024691358024691,0,0,0.08024691358024691,52.8827160493827,0)" xlink:href="#E"/><use transform="matrix(0.08024691358024691,0,0,0.08024691358024691,62.43209876543209,0)" xlink:href="#F"/><use transform="matrix(0.08024691358024691,0,0,0.08024691358024691,78.48148148148147,0)" xlink:href="#G"/><use transform="matrix(0.08024691358024691,0,0,0.08024691358024691,84.82098765432096,0)" xlink:href="#H"/><use transform="matrix(0.08024691358024691,0,0,0.08024691358024691,100.87037037037035,0)" xlink:href="#I"/><use transform="matrix(0.08024691358024691,0,0,0.08024691358024691,116.91975308641973,0)" xlink:href="#J"/><use transform="matrix(0.08024691358024691,0,0,0.08024691358024691,124.94444444444444,0)" xlink:href="#D"/><use transform="matrix(0.08024691358024691,0,0,0.08024691358024691,140.99382716049382,0)" xlink:href="#E"/></g><path d="M140-251c81 0 123 46 123 126C263-46 219 4 140 4 59 4 17-45 17-125s42-126 123-126zm0 227c63 0 89-41 89-101s-29-99-89-99c-61 0-89 39-89 99S79-25 140-24" id="K"/><path d="M108 0H70L1-190h34L89-25l56-165h34" id="L"/><path d="M100-194c63 0 86 42 84 106H49c0 40 14 67 53 68 26 1 43-12 49-29l28 8c-11 28-37 45-77 45C44 4 14-33 15-96c1-61 26-98 85-98zm52 81c6-60-76-77-97-28-3 7-6 17-6 28h103" id="M"/><path d="M24 0v-261h32V0H24" id="N"/><g id="b"><use transform="matrix(0.08024691358024691,0,0,0.08024691358024691,0,0)" xlink:href="#K"/><use transform="matrix(0.08024691358024691,0,0,0.08024691358024691,22.469135802469136,0)" xlink:href="#L"/><use transform="matrix(0.08024691358024691,0,0,0.08024691358024691,36.91358024691358,0)" xlink:href="#M"/><use transform="matrix(0.08024691358024691,0,0,0.08024691358024691,52.96296296296296,0)" xlink:href="#E"/><use transform="matrix(0.08024691358024691,0,0,0.08024691358024691,62.51234567901234,0)" xlink:href="#N"/><use transform="matrix(0.08024691358024691,0,0,0.08024691358024691,68.85185185185185,0)" xlink:href="#D"/><use transform="matrix(0.08024691358024691,0,0,0.08024691358024691,84.90123456790123,0)" xlink:href="#E"/><use transform="matrix(0.08024691358024691,0,0,0.08024691358024691,94.4506172839506,0)" xlink:href="#F"/></g><path d="M240 0l2-218c-23 76-54 145-80 218h-23L58-218 59 0H30v-248h44l77 211c21-75 51-140 76-211h43V0h-30" id="O"/><path d="M177-190C167-65 218 103 67 71c-23-6-38-20-44-43l32-5c15 47 100 32 89-28v-30C133-14 115 1 83 1 29 1 15-40 15-95c0-56 16-97 71-98 29-1 48 16 59 35 1-10 0-23 2-32h30zM94-22c36 0 50-32 50-73 0-42-14-75-50-75-39 0-46 34-46 75s6 73 46 73" id="P"/><g id="c"><use transform="matrix(0.08024691358024691,0,0,0.08024691358024691,0,0)" xlink:href="#O"/><use transform="matrix(0.08024691358024691,0,0,0.08024691358024691,23.993827160493826,0)" xlink:href="#G"/><use transform="matrix(0.08024691358024691,0,0,0.08024691358024691,30.333333333333332,0)" xlink:href="#F"/><use transform="matrix(0.08024691358024691,0,0,0.08024691358024691,46.382716049382715,0)" xlink:href="#F"/><use transform="matrix(0.08024691358024691,0,0,0.08024691358024691,62.4320987654321,0)" xlink:href="#N"/><use transform="matrix(0.08024691358024691,0,0,0.08024691358024691,68.77160493827161,0)" xlink:href="#M"/><use transform="matrix(0.08024691358024691,0,0,0.08024691358024691,84.82098765432099,0)" xlink:href="#O"/><use transform="matrix(0.08024691358024691,0,0,0.08024691358024691,108.81481481481481,0)" xlink:href="#I"/><use transform="matrix(0.08024691358024691,0,0,0.08024691358024691,124.86419753086419,0)" xlink:href="#H"/><use transform="matrix(0.08024691358024691,0,0,0.08024691358024691,140.91358024691357,0)" xlink:href="#I"/><use transform="matrix(0.08024691358024691,0,0,0.08024691358024691,156.96296296296296,0)" xlink:href="#P"/><use transform="matrix(0.08024691358024691,0,0,0.08024691358024691,173.01234567901238,0)" xlink:href="#M"/><use transform="matrix(0.08024691358024691,0,0,0.08024691358024691,189.06172839506175,0)" xlink:href="#E"/></g><path d="M160-131c35 5 61 23 61 61C221 17 115-2 30 0v-248c76 3 177-17 177 60 0 33-19 50-47 57zm-97-11c50-1 110 9 110-42 0-47-63-36-110-37v79zm0 115c55-2 124 14 124-45 0-56-70-42-124-44v89" id="Q"/><path d="M143 0L79-87 56-68V0H24v-261h32v163l83-92h37l-77 82L181 0h-38" id="R"/><g id="d"><use transform="matrix(0.08024691358024691,0,0,0.08024691358024691,0,0)" xlink:href="#Q"/><use transform="matrix(0.08024691358024691,0,0,0.08024691358024691,19.25925925925926,0)" xlink:href="#E"/><use transform="matrix(0.08024691358024691,0,0,0.08024691358024691,28.80864197530864,0)" xlink:href="#D"/><use transform="matrix(0.08024691358024691,0,0,0.08024691358024691,44.858024691358025,0)" xlink:href="#R"/><use transform="matrix(0.08024691358024691,0,0,0.08024691358024691,59.30246913580247,0)" xlink:href="#M"/><use transform="matrix(0.08024691358024691,0,0,0.08024691358024691,75.35185185185185,0)" xlink:href="#E"/></g><path d="M233-177c-1 41-23 64-60 70L243 0h-38l-65-103H63V0H30v-248c88 3 205-21 203 71zM63-129c60-2 137 13 137-47 0-61-80-42-137-45v92" id="S"/><path d="M84 4C-5 8 30-112 23-190h32v120c0 31 7 50 39 49 72-2 45-101 50-169h31l1 190h-30c-1-10 1-25-2-33-11 22-28 36-60 37" id="T"/><g id="e"><use transform="matrix(0.08024691358024691,0,0,0.08024691358024691,0,0)" xlink:href="#S"/><use transform="matrix(0.08024691358024691,0,0,0.08024691358024691,20.78395061728395,0)" xlink:href="#D"/><use transform="matrix(0.08024691358024691,0,0,0.08024691358024691,36.83333333333333,0)" xlink:href="#T"/><use transform="matrix(0.08024691358024691,0,0,0.08024691358024691,52.8827160493827,0)" xlink:href="#J"/><use transform="matrix(0.08024691358024691,0,0,0.08024691358024691,60.9074074074074,0)" xlink:href="#M"/><use transform="matrix(0.08024691358024691,0,0,0.08024691358024691,76.95679012345678,0)" xlink:href="#E"/></g><path d="M197 0v-115H63V0H30v-248h33v105h134v-105h34V0h-34" id="U"/><path d="M135-143c-3-34-86-38-87 0 15 53 115 12 119 90S17 21 10-45l28-5c4 36 97 45 98 0-10-56-113-15-118-90-4-57 82-63 122-42 12 7 21 19 24 35" id="V"/><path d="M96-169c-40 0-48 33-48 73s9 75 48 75c24 0 41-14 43-38l32 2c-6 37-31 61-74 61-59 0-76-41-82-99-10-93 101-131 147-64 4 7 5 14 7 22l-32 3c-4-21-16-35-41-35" id="W"/><g id="f"><use transform="matrix(0.08024691358024691,0,0,0.08024691358024691,0,0)" xlink:href="#U"/><use transform="matrix(0.08024691358024691,0,0,0.08024691358024691,20.78395061728395,0)" xlink:href="#G"/><use transform="matrix(0.08024691358024691,0,0,0.08024691358024691,27.123456790123456,0)" xlink:href="#V"/><use transform="matrix(0.08024691358024691,0,0,0.08024691358024691,41.5679012345679,0)" xlink:href="#J"/><use transform="matrix(0.08024691358024691,0,0,0.08024691358024691,49.59259259259259,0)" xlink:href="#D"/><use transform="matrix(0.08024691358024691,0,0,0.08024691358024691,65.64197530864197,0)" xlink:href="#E"/><use transform="matrix(0.08024691358024691,0,0,0.08024691358024691,75.19135802469135,0)" xlink:href="#W"/><use transform="matrix(0.08024691358024691,0,0,0.08024691358024691,89.6358024691358,0)" xlink:href="#G"/><use transform="matrix(0.08024691358024691,0,0,0.08024691358024691,95.9753086419753,0)" xlink:href="#I"/><use transform="matrix(0.08024691358024691,0,0,0.08024691358024691,112.02469135802468,0)" xlink:href="#N"/></g><path d="M230 0l2-204L168 0h-37L68-204 70 0H24v-248h70l56 185 57-185h69V0h-46" id="X"/><path d="M133-34C117-15 103 5 69 4 32 3 11-16 11-54c-1-60 55-63 116-61 1-26-3-47-28-47-18 1-26 9-28 27l-52-2c7-38 36-58 82-57s74 22 75 68l1 82c-1 14 12 18 25 15v27c-30 8-71 5-69-32zm-48 3c29 0 43-24 42-57-32 0-66-3-65 30 0 17 8 27 23 27" id="Y"/><path d="M137-138c1-29-70-34-71-4 15 46 118 7 119 86 1 83-164 76-172 9l43-7c4 19 20 25 44 25 33 8 57-30 24-41C81-84 22-81 20-136c-2-80 154-74 161-7" id="Z"/><path d="M115-3C79 11 28 4 28-45v-112H4v-33h27l15-45h31v45h36v33H77v99c-1 23 16 31 38 25v30" id="aa"/><path d="M185-48c-13 30-37 53-82 52C43 2 14-33 14-96s30-98 90-98c62 0 83 45 84 108H66c0 31 8 55 39 56 18 0 30-7 34-22zm-45-69c5-46-57-63-70-21-2 6-4 13-4 21h74" id="ab"/><path d="M135-150c-39-12-60 13-60 57V0H25l-1-190h47c2 13-1 29 3 40 6-28 27-53 61-41v41" id="ac"/><g id="g"><use transform="matrix(0.08024691358024691,0,0,0.08024691358024691,0,0)" xlink:href="#X"/><use transform="matrix(0.08024691358024691,0,0,0.08024691358024691,23.993827160493826,0)" xlink:href="#Y"/><use transform="matrix(0.08024691358024691,0,0,0.08024691358024691,40.04320987654321,0)" xlink:href="#Z"/><use transform="matrix(0.08024691358024691,0,0,0.08024691358024691,56.092592592592595,0)" xlink:href="#aa"/><use transform="matrix(0.08024691358024691,0,0,0.08024691358024691,65.64197530864197,0)" xlink:href="#ab"/><use transform="matrix(0.08024691358024691,0,0,0.08024691358024691,81.69135802469135,0)" xlink:href="#ac"/></g><path d="M128 0H69L1-190h53L99-40l48-150h52" id="ad"/><g id="h"><use transform="matrix(0.08024691358024691,0,0,0.08024691358024691,0,0)" xlink:href="#Z"/><use transform="matrix(0.08024691358024691,0,0,0.08024691358024691,16.049382716049383,0)" xlink:href="#ab"/><use transform="matrix(0.08024691358024691,0,0,0.08024691358024691,32.098765432098766,0)" xlink:href="#ac"/><use transform="matrix(0.08024691358024691,0,0,0.08024691358024691,43.33333333333334,0)" xlink:href="#ad"/><use transform="matrix(0.08024691358024691,0,0,0.08024691358024691,59.38271604938272,0)" xlink:href="#ab"/><use transform="matrix(0.08024691358024691,0,0,0.08024691358024691,75.4320987654321,0)" xlink:href="#ac"/></g><path d="M140-251c80 0 125 45 125 126 0 70-33 111-92 124 6 28 34 38 68 31l-1 36C177 83 129 55 120 2 51-6 15-50 15-125c0-81 44-126 125-126zm-1 214c52 0 73-35 73-88 0-50-21-86-72-86-52 0-73 35-73 86s22 88 72 88" id="ae"/><path d="M85 4C-2 5 27-109 22-190h50c7 57-23 150 33 157 60-5 35-97 40-157h50l1 190h-47c-2-12 1-28-3-38-12 25-28 42-61 42" id="af"/><path d="M123 10C108 53 80 86 19 72V37c35 8 53-11 59-39L3-190h52l48 148c12-52 28-100 44-148h51" id="ag"/><g id="i"><use transform="matrix(0.08024691358024691,0,0,0.08024691358024691,0,0)" xlink:href="#ae"/><use transform="matrix(0.08024691358024691,0,0,0.08024691358024691,22.469135802469136,0)" xlink:href="#af"/><use transform="matrix(0.08024691358024691,0,0,0.08024691358024691,40.04320987654321,0)" xlink:href="#ab"/><use transform="matrix(0.08024691358024691,0,0,0.08024691358024691,56.092592592592595,0)" xlink:href="#ac"/><use transform="matrix(0.08024691358024691,0,0,0.08024691358024691,67.32716049382717,0)" xlink:href="#ag"/></g><path d="M24-248c120-7 223 5 221 122C244-46 201 0 124 0H24v-248zM76-40c74 7 117-18 117-86 0-67-45-88-117-82v168" id="ah"/><g id="j"><use transform="matrix(0.08024691358024691,0,0,0.08024691358024691,0,0)" xlink:href="#ah"/><use transform="matrix(0.08024691358024691,0,0,0.08024691358024691,20.78395061728395,0)" xlink:href="#Y"/><use transform="matrix(0.08024691358024691,0,0,0.08024691358024691,36.83333333333333,0)" xlink:href="#aa"/><use transform="matrix(0.08024691358024691,0,0,0.08024691358024691,46.3827160493827,0)" xlink:href="#Y"/></g><path fill="#3a414a" d="M30-248c87 1 191-15 191 75 0 78-77 80-158 76V0H30v-248zm33 125c57 0 124 11 124-50 0-59-68-47-124-48v98" id="ai"/><path fill="#3a414a" d="M114-163C36-179 61-72 57 0H25l-1-190h30c1 12-1 29 2 39 6-27 23-49 58-41v29" id="aj"/><path fill="#3a414a" d="M100-194c62-1 85 37 85 99 1 63-27 99-86 99S16-35 15-95c0-66 28-99 85-99zM99-20c44 1 53-31 53-75 0-43-8-75-51-75s-53 32-53 75 10 74 51 75" id="ak"/><path fill="#3a414a" d="M96-169c-40 0-48 33-48 73s9 75 48 75c24 0 41-14 43-38l32 2c-6 37-31 61-74 61-59 0-76-41-82-99-10-93 101-131 147-64 4 7 5 14 7 22l-32 3c-4-21-16-35-41-35" id="al"/><path fill="#3a414a" d="M100-194c63 0 86 42 84 106H49c0 40 14 67 53 68 26 1 43-12 49-29l28 8c-11 28-37 45-77 45C44 4 14-33 15-96c1-61 26-98 85-98zm52 81c6-60-76-77-97-28-3 7-6 17-6 28h103" id="am"/><path fill="#3a414a" d="M135-143c-3-34-86-38-87 0 15 53 115 12 119 90S17 21 10-45l28-5c4 36 97 45 98 0-10-56-113-15-118-90-4-57 82-63 122-42 12 7 21 19 24 35" id="an"/><g id="k"><use transform="matrix(0.06172839506172839,0,0,0.06172839506172839,0,0)" xlink:href="#ai"/><use transform="matrix(0.06172839506172839,0,0,0.06172839506172839,14.814814814814813,0)" xlink:href="#aj"/><use transform="matrix(0.06172839506172839,0,0,0.06172839506172839,22.160493827160494,0)" xlink:href="#ak"/><use transform="matrix(0.06172839506172839,0,0,0.06172839506172839,34.50617283950617,0)" xlink:href="#al"/><use transform="matrix(0.06172839506172839,0,0,0.06172839506172839,45.61728395061728,0)" xlink:href="#am"/><use transform="matrix(0.06172839506172839,0,0,0.06172839506172839,57.962962962962955,0)" xlink:href="#an"/><use transform="matrix(0.06172839506172839,0,0,0.06172839506172839,69.07407407407406,0)" xlink:href="#an"/></g><path d="M209 0H11v-25l151-195H24v-28h176v25L50-27h159V0" id="ao"/><path d="M194 0L95-120 63-95V0H30v-248h33v124l119-124h40L117-140 236 0h-42" id="ap"/><path d="M115-194c55 1 70 41 70 98S169 2 115 4C84 4 66-9 55-30l1 105H24l-1-265h31l2 30c10-21 28-34 59-34zm-8 174c40 0 45-34 45-75s-6-73-45-74c-42 0-51 32-51 76 0 43 10 73 51 73" id="aq"/><g id="l"><use transform="matrix(0.08024691358024691,0,0,0.08024691358024691,0,0)" xlink:href="#ao"/><use transform="matrix(0.08024691358024691,0,0,0.08024691358024691,17.574074074074073,0)" xlink:href="#D"/><use transform="matrix(0.08024691358024691,0,0,0.08024691358024691,33.623456790123456,0)" xlink:href="#D"/><use transform="matrix(0.08024691358024691,0,0,0.08024691358024691,49.672839506172835,0)" xlink:href="#ap"/><use transform="matrix(0.08024691358024691,0,0,0.08024691358024691,68.9320987654321,0)" xlink:href="#M"/><use transform="matrix(0.08024691358024691,0,0,0.08024691358024691,84.98148148148148,0)" xlink:href="#M"/><use transform="matrix(0.08024691358024691,0,0,0.08024691358024691,101.03086419753086,0)" xlink:href="#aq"/><use transform="matrix(0.08024691358024691,0,0,0.08024691358024691,117.08024691358024,0)" xlink:href="#M"/><use transform="matrix(0.08024691358024691,0,0,0.08024691358024691,133.12962962962962,0)" xlink:href="#E"/></g><path d="M30-248c118-7 216 8 213 122C240-48 200 0 122 0H30v-248zM63-27c89 8 146-16 146-99s-60-101-146-95v194" id="ar"/><g id="m"><use transform="matrix(0.08024691358024691,0,0,0.08024691358024691,0,0)" xlink:href="#ar"/><use transform="matrix(0.08024691358024691,0,0,0.08024691358024691,20.78395061728395,0)" xlink:href="#M"/><use transform="matrix(0.08024691358024691,0,0,0.08024691358024691,36.83333333333333,0)" xlink:href="#M"/><use transform="matrix(0.08024691358024691,0,0,0.08024691358024691,52.8827160493827,0)" xlink:href="#aq"/></g><g id="n"><use transform="matrix(0.08024691358024691,0,0,0.08024691358024691,0,0)" xlink:href="#V"/><use transform="matrix(0.08024691358024691,0,0,0.08024691358024691,14.444444444444443,0)" xlink:href="#J"/><use transform="matrix(0.08024691358024691,0,0,0.08024691358024691,22.469135802469136,0)" xlink:href="#D"/><use transform="matrix(0.08024691358024691,0,0,0.08024691358024691,38.51851851851852,0)" xlink:href="#E"/><use transform="matrix(0.08024691358024691,0,0,0.08024691358024691,48.0679012345679,0)" xlink:href="#I"/><use transform="matrix(0.08024691358024691,0,0,0.08024691358024691,64.11728395061728,0)" xlink:href="#P"/><use transform="matrix(0.08024691358024691,0,0,0.08024691358024691,80.16666666666666,0)" xlink:href="#M"/></g><g id="o"><use transform="matrix(0.08024691358024691,0,0,0.08024691358024691,0,0)" xlink:href="#O"/><use transform="matrix(0.08024691358024691,0,0,0.08024691358024691,23.993827160493826,0)" xlink:href="#M"/><use transform="matrix(0.08024691358024691,0,0,0.08024691358024691,40.04320987654321,0)" xlink:href="#J"/><use transform="matrix(0.08024691358024691,0,0,0.08024691358024691,48.0679012345679,0)" xlink:href="#I"/><use transform="matrix(0.08024691358024691,0,0,0.08024691358024691,64.11728395061728,0)" xlink:href="#F"/><use transform="matrix(0.08024691358024691,0,0,0.08024691358024691,80.16666666666666,0)" xlink:href="#I"/><use transform="matrix(0.08024691358024691,0,0,0.08024691358024691,96.21604938271605,0)" xlink:href="#J"/><use transform="matrix(0.08024691358024691,0,0,0.08024691358024691,104.24074074074073,0)" xlink:href="#I"/></g><path d="M24 0v-248h195v40H76v63h132v40H76v65h150V0H24" id="as"/><path d="M144 0l-44-69L55 0H2l70-98-66-92h53l41 62 40-62h54l-67 91 71 99h-54" id="at"/><path d="M135-194c87-1 58 113 63 194h-50c-7-57 23-157-34-157-59 0-34 97-39 157H25l-1-190h47c2 12-1 28 3 38 12-26 28-41 61-42" id="au"/><path d="M25 0v-261h50V0H25" id="av"/><g id="p"><use transform="matrix(0.08024691358024691,0,0,0.08024691358024691,0,0)" xlink:href="#as"/><use transform="matrix(0.08024691358024691,0,0,0.08024691358024691,19.25925925925926,0)" xlink:href="#at"/><use transform="matrix(0.08024691358024691,0,0,0.08024691358024691,35.308641975308646,0)" xlink:href="#aa"/><use transform="matrix(0.08024691358024691,0,0,0.08024691358024691,44.858024691358025,0)" xlink:href="#ab"/><use transform="matrix(0.08024691358024691,0,0,0.08024691358024691,60.907407407407405,0)" xlink:href="#ac"/><use transform="matrix(0.08024691358024691,0,0,0.08024691358024691,72.14197530864197,0)" xlink:href="#au"/><use transform="matrix(0.08024691358024691,0,0,0.08024691358024691,89.71604938271605,0)" xlink:href="#Y"/><use transform="matrix(0.08024691358024691,0,0,0.08024691358024691,105.76543209876543,0)" xlink:href="#av"/></g><path d="M88-194c31-1 46 15 58 34l-1-101h50l1 261h-48c-2-10 0-23-3-31C134-8 116 4 84 4 32 4 16-41 15-95c0-56 19-97 73-99zm17 164c33 0 40-30 41-66 1-37-9-64-41-64s-38 30-39 65c0 43 13 65 39 65" id="aw"/><path d="M135-194c53 0 70 44 70 98 0 56-19 98-73 100-31 1-45-17-59-34 3 33 2 69 2 105H25l-1-265h48c2 10 0 23 3 31 11-24 29-35 60-35zM114-30c33 0 39-31 40-66 0-38-9-64-40-64-56 0-55 130 0 130" id="ax"/><path d="M190-63c-7 42-38 67-86 67-59 0-84-38-90-98-12-110 154-137 174-36l-49 2c-2-19-15-32-35-32-30 0-35 28-38 64-6 74 65 87 74 30" id="ay"/><path d="M25-224v-37h50v37H25zM25 0v-190h50V0H25" id="az"/><g id="q"><use transform="matrix(0.08024691358024691,0,0,0.08024691358024691,0,0)" xlink:href="#aw"/><use transform="matrix(0.08024691358024691,0,0,0.08024691358024691,17.574074074074073,0)" xlink:href="#ab"/><use transform="matrix(0.08024691358024691,0,0,0.08024691358024691,33.623456790123456,0)" xlink:href="#ax"/><use transform="matrix(0.08024691358024691,0,0,0.08024691358024691,51.197530864197525,0)" xlink:href="#ab"/><use transform="matrix(0.08024691358024691,0,0,0.08024691358024691,67.24691358024691,0)" xlink:href="#au"/><use transform="matrix(0.08024691358024691,0,0,0.08024691358024691,84.82098765432099,0)" xlink:href="#aw"/><use transform="matrix(0.08024691358024691,0,0,0.08024691358024691,102.39506172839505,0)" xlink:href="#ab"/><use transform="matrix(0.08024691358024691,0,0,0.08024691358024691,118.44444444444444,0)" xlink:href="#au"/><use transform="matrix(0.08024691358024691,0,0,0.08024691358024691,136.0185185185185,0)" xlink:href="#ay"/><use transform="matrix(0.08024691358024691,0,0,0.08024691358024691,152.0679012345679,0)" xlink:href="#az"/><use transform="matrix(0.08024691358024691,0,0,0.08024691358024691,160.09259259259258,0)" xlink:href="#ab"/><use transform="matrix(0.08024691358024691,0,0,0.08024691358024691,176.14197530864197,0)" xlink:href="#Z"/></g><g id="r"><use transform="matrix(0.08024691358024691,0,0,0.08024691358024691,0,0)" xlink:href="#C"/><use transform="matrix(0.08024691358024691,0,0,0.08024691358024691,20.78395061728395,0)" xlink:href="#N"/><use transform="matrix(0.08024691358024691,0,0,0.08024691358024691,27.123456790123456,0)" xlink:href="#G"/><use transform="matrix(0.08024691358024691,0,0,0.08024691358024691,33.46296296296296,0)" xlink:href="#M"/><use transform="matrix(0.08024691358024691,0,0,0.08024691358024691,49.51234567901234,0)" xlink:href="#H"/><use transform="matrix(0.08024691358024691,0,0,0.08024691358024691,65.56172839506172,0)" xlink:href="#J"/></g><path d="M145-31C134-9 116 4 85 4 32 4 16-35 15-94c0-59 17-99 70-100 32-1 48 14 60 33 0-11-1-24 2-32h30l-1 268h-32zM93-21c41 0 51-33 51-76s-8-73-50-73c-40 0-46 35-46 75s5 74 45 74" id="aA"/><g id="s"><use transform="matrix(0.08024691358024691,0,0,0.08024691358024691,0,0)" xlink:href="#aA"/><use transform="matrix(0.08024691358024691,0,0,0.08024691358024691,16.049382716049383,0)" xlink:href="#T"/><use transform="matrix(0.08024691358024691,0,0,0.08024691358024691,32.098765432098766,0)" xlink:href="#M"/><use transform="matrix(0.08024691358024691,0,0,0.08024691358024691,48.14814814814815,0)" xlink:href="#E"/><use transform="matrix(0.08024691358024691,0,0,0.08024691358024691,57.697530864197525,0)" xlink:href="#G"/><use transform="matrix(0.08024691358024691,0,0,0.08024691358024691,64.03703703703704,0)" xlink:href="#M"/><use transform="matrix(0.08024691358024691,0,0,0.08024691358024691,80.08641975308642,0)" xlink:href="#V"/></g><path d="M140-251c81 0 123 46 123 126C263-53 228-8 163 1c7 30 30 48 69 40v23c-55 16-95-15-103-61C56-3 17-48 17-125c0-80 42-126 123-126zm0 227c63 0 89-41 89-101s-29-99-89-99c-61 0-89 39-89 99S79-25 140-24" id="aB"/><g id="t"><use transform="matrix(0.06790123456790122,0,0,0.06790123456790122,0,0)" xlink:href="#aB"/><use transform="matrix(0.06790123456790122,0,0,0.06790123456790122,19.01234567901234,0)" xlink:href="#T"/><use transform="matrix(0.06790123456790122,0,0,0.06790123456790122,32.59259259259258,0)" xlink:href="#M"/><use transform="matrix(0.06790123456790122,0,0,0.06790123456790122,46.17283950617282,0)" xlink:href="#E"/><use transform="matrix(0.06790123456790122,0,0,0.06790123456790122,54.25308641975307,0)" xlink:href="#G"/><use transform="matrix(0.06790123456790122,0,0,0.06790123456790122,59.617283950617264,0)" xlink:href="#M"/><use transform="matrix(0.06790123456790122,0,0,0.06790123456790122,73.1975308641975,0)" xlink:href="#V"/></g><path d="M0 4l72-265h28L28 4H0" id="aC"/><path d="M185-189c-5-48-123-54-124 2 14 75 158 14 163 119 3 78-121 87-175 55-17-10-28-26-33-46l33-7c5 56 141 63 141-1 0-78-155-14-162-118-5-82 145-84 179-34 5 7 8 16 11 25" id="aD"/><path d="M210-169c-67 3-38 105-44 169h-31v-121c0-29-5-50-35-48C34-165 62-65 56 0H25l-1-190h30c1 10-1 24 2 32 10-44 99-50 107 0 11-21 27-35 58-36 85-2 47 119 55 194h-31v-121c0-29-5-49-35-48" id="aE"/><g id="u"><use transform="matrix(0.06790123456790122,0,0,0.06790123456790122,0,0)" xlink:href="#ar"/><use transform="matrix(0.06790123456790122,0,0,0.06790123456790122,17.586419753086414,0)" xlink:href="#I"/><use transform="matrix(0.06790123456790122,0,0,0.06790123456790122,31.166666666666657,0)" xlink:href="#J"/><use transform="matrix(0.06790123456790122,0,0,0.06790123456790122,37.95679012345678,0)" xlink:href="#I"/><use transform="matrix(0.06790123456790122,0,0,0.06790123456790122,51.537037037037024,0)" xlink:href="#aC"/><use transform="matrix(0.06790123456790122,0,0,0.06790123456790122,58.327160493827144,0)" xlink:href="#aD"/><use transform="matrix(0.06790123456790122,0,0,0.06790123456790122,74.62345679012344,0)" xlink:href="#M"/><use transform="matrix(0.06790123456790122,0,0,0.06790123456790122,88.20370370370368,0)" xlink:href="#P"/><use transform="matrix(0.06790123456790122,0,0,0.06790123456790122,101.78395061728392,0)" xlink:href="#aE"/><use transform="matrix(0.06790123456790122,0,0,0.06790123456790122,122.08641975308639,0)" xlink:href="#M"/><use transform="matrix(0.06790123456790122,0,0,0.06790123456790122,135.66666666666663,0)" xlink:href="#H"/><use transform="matrix(0.06790123456790122,0,0,0.06790123456790122,149.24691358024688,0)" xlink:href="#J"/><use transform="matrix(0.06790123456790122,0,0,0.06790123456790122,156.037037037037,0)" xlink:href="#V"/></g><g id="v"><use transform="matrix(0.06790123456790122,0,0,0.06790123456790122,0,0)" xlink:href="#O"/><use transform="matrix(0.06790123456790122,0,0,0.06790123456790122,20.302469135802465,0)" xlink:href="#M"/><use transform="matrix(0.06790123456790122,0,0,0.06790123456790122,33.88271604938271,0)" xlink:href="#J"/><use transform="matrix(0.06790123456790122,0,0,0.06790123456790122,40.67283950617283,0)" xlink:href="#I"/><use transform="matrix(0.06790123456790122,0,0,0.06790123456790122,54.253086419753075,0)" xlink:href="#F"/><use transform="matrix(0.06790123456790122,0,0,0.06790123456790122,67.83333333333331,0)" xlink:href="#I"/><use transform="matrix(0.06790123456790122,0,0,0.06790123456790122,81.41358024691355,0)" xlink:href="#J"/><use transform="matrix(0.06790123456790122,0,0,0.06790123456790122,88.20370370370368,0)" xlink:href="#I"/></g><g id="x"><use transform="matrix(0.0685185185185185,0,0,0.0685185185185185,0,0)" xlink:href="#ar"/><use transform="matrix(0.0685185185185185,0,0,0.0685185185185185,17.746296296296293,0)" xlink:href="#E"/><use transform="matrix(0.0685185185185185,0,0,0.0685185185185185,25.899999999999995,0)" xlink:href="#T"/><use transform="matrix(0.0685185185185185,0,0,0.0685185185185185,39.603703703703694,0)" xlink:href="#G"/><use transform="matrix(0.0685185185185185,0,0,0.0685185185185185,45.01666666666666,0)" xlink:href="#F"/></g><g id="y"><use transform="matrix(0.0685185185185185,0,0,0.0685185185185185,0,0)" xlink:href="#V"/><use transform="matrix(0.0685185185185185,0,0,0.0685185185185185,12.33333333333333,0)" xlink:href="#M"/><use transform="matrix(0.0685185185185185,0,0,0.0685185185185185,26.03703703703703,0)" xlink:href="#E"/><use transform="matrix(0.0685185185185185,0,0,0.0685185185185185,34.190740740740736,0)" xlink:href="#L"/><use transform="matrix(0.0685185185185185,0,0,0.0685185185185185,46.524074074074065,0)" xlink:href="#G"/><use transform="matrix(0.0685185185185185,0,0,0.0685185185185185,51.93703703703703,0)" xlink:href="#W"/><use transform="matrix(0.0685185185185185,0,0,0.0685185185185185,64.27037037037036,0)" xlink:href="#M"/><use transform="matrix(0.0685185185185185,0,0,0.0685185185185185,77.97407407407405,0)" xlink:href="#V"/></g><path d="M30 0v-248h187v28H63v79h144v27H63v87h162V0H30" id="aF"/><path d="M141 0L90-78 38 0H4l68-98-65-92h35l48 74 47-74h35l-64 92 68 98h-35" id="aG"/><g id="z"><use transform="matrix(0.0685185185185185,0,0,0.0685185185185185,0,0)" xlink:href="#aF"/><use transform="matrix(0.0685185185185185,0,0,0.0685185185185185,16.444444444444443,0)" xlink:href="#aG"/><use transform="matrix(0.0685185185185185,0,0,0.0685185185185185,28.77777777777777,0)" xlink:href="#J"/><use transform="matrix(0.0685185185185185,0,0,0.0685185185185185,35.62962962962961,0)" xlink:href="#M"/><use transform="matrix(0.0685185185185185,0,0,0.0685185185185185,49.33333333333332,0)" xlink:href="#E"/><use transform="matrix(0.0685185185185185,0,0,0.0685185185185185,57.48703703703703,0)" xlink:href="#H"/><use transform="matrix(0.0685185185185185,0,0,0.0685185185185185,71.19074074074072,0)" xlink:href="#I"/><use transform="matrix(0.0685185185185185,0,0,0.0685185185185185,84.89444444444442,0)" xlink:href="#N"/></g><g id="A"><use transform="matrix(0.0685185185185185,0,0,0.0685185185185185,0,0)" xlink:href="#F"/><use transform="matrix(0.0685185185185185,0,0,0.0685185185185185,13.7037037037037,0)" xlink:href="#M"/><use transform="matrix(0.0685185185185185,0,0,0.0685185185185185,27.4074074074074,0)" xlink:href="#aq"/><use transform="matrix(0.0685185185185185,0,0,0.0685185185185185,41.11111111111111,0)" xlink:href="#M"/><use transform="matrix(0.0685185185185185,0,0,0.0685185185185185,54.8148148148148,0)" xlink:href="#H"/><use transform="matrix(0.0685185185185185,0,0,0.0685185185185185,68.5185185185185,0)" xlink:href="#F"/><use transform="matrix(0.0685185185185185,0,0,0.0685185185185185,82.22222222222221,0)" xlink:href="#M"/><use transform="matrix(0.0685185185185185,0,0,0.0685185185185185,95.9259259259259,0)" xlink:href="#H"/><use transform="matrix(0.0685185185185185,0,0,0.0685185185185185,109.62962962962959,0)" xlink:href="#G"/><use transform="matrix(0.0685185185185185,0,0,0.0685185185185185,115.04259259259256,0)" xlink:href="#M"/><use transform="matrix(0.0685185185185185,0,0,0.0685185185185185,128.74629629629626,0)" xlink:href="#V"/></g><g id="B"><use transform="matrix(0.0685185185185185,0,0,0.0685185185185185,0,0)" xlink:href="#V"/><use transform="matrix(0.0685185185185185,0,0,0.0685185185185185,12.33333333333333,0)" xlink:href="#M"/><use transform="matrix(0.0685185185185185,0,0,0.0685185185185185,26.03703703703703,0)" xlink:href="#E"/><use transform="matrix(0.0685185185185185,0,0,0.0685185185185185,34.190740740740736,0)" xlink:href="#L"/><use transform="matrix(0.0685185185185185,0,0,0.0685185185185185,46.524074074074065,0)" xlink:href="#M"/><use transform="matrix(0.0685185185185185,0,0,0.0685185185185185,60.22777777777777,0)" xlink:href="#E"/><use transform="matrix(0.0685185185185185,0,0,0.0685185185185185,68.38148148148147,0)" xlink:href="#V"/></g></defs></g></svg>
